<ttFont>
    <TTGlyph name="A" xMin="17" yMin="0" xMax="611" yMax="730">
      <contour>
        <pt x="255" y="730" on="1"/>
        <pt x="372" y="730" on="1"/>
        <pt x="611" y="0" on="1"/>
        <pt x="524" y="0" on="1"/>
        <pt x="453" y="220" on="1"/>
        <pt x="175" y="220" on="1"/>
        <pt x="104" y="0" on="1"/>
        <pt x="17" y="0" on="1"/>
      </contour>
      <contour>
        <pt x="314" y="652" on="1"/>
        <pt x="197" y="290" on="1"/>
        <pt x="430" y="290" on="1"/>
      </contour>
    </TTGlyph>
    <TTGlyph name="AE" xMin="29" yMin="0" xMax="865" yMax="730">
      <contour>
        <pt x="845" y="730" on="1"/>
        <pt x="845" y="660" on="1"/>
        <pt x="545" y="660" on="1"/>
        <pt x="545" y="386" on="1"/>
        <pt x="824" y="386" on="1"/>
        <pt x="824" y="316" on="1"/>
        <pt x="545" y="316" on="1"/>
        <pt x="545" y="70" on="1"/>
        <pt x="865" y="70" on="1"/>
        <pt x="865" y="0" on="1"/>
        <pt x="457" y="0" on="1"/>
        <pt x="457" y="316" on="1"/>
        <pt x="249" y="316" on="1"/>
        <pt x="116" y="0" on="1"/>
        <pt x="29" y="0" on="1"/>
        <pt x="340" y="730" on="1"/>
      </contour>
      <contour>
        <pt x="457" y="659" on="1"/>
        <pt x="394" y="659" on="1"/>
        <pt x="279" y="386" on="1"/>
        <pt x="457" y="386" on="1"/>
      </contour>
    </TTGlyph>
    <TTGlyph name="Aacute" xMin="17" yMin="0" xMax="611" yMax="985">
      <contour>
        <pt x="255" y="730" on="1"/>
        <pt x="372" y="730" on="1"/>
        <pt x="611" y="0" on="1"/>
        <pt x="524" y="0" on="1"/>
        <pt x="453" y="220" on="1"/>
        <pt x="175" y="220" on="1"/>
        <pt x="104" y="0" on="1"/>
        <pt x="17" y="0" on="1"/>
      </contour>
      <contour>
        <pt x="314" y="652" on="1"/>
        <pt x="197" y="290" on="1"/>
        <pt x="430" y="290" on="1"/>
      </contour>
      <contour>
        <pt x="246" y="783" on="1"/>
        <pt x="207" y="829" on="1"/>
        <pt x="375" y="985" on="1"/>
        <pt x="429" y="921" on="1"/>
      </contour>
    </TTGlyph>
    <TTGlyph name="Acircumflex" xMin="17" yMin="0" xMax="611" yMax="979">
      <contour>
        <pt x="255" y="730" on="1"/>
        <pt x="372" y="730" on="1"/>
        <pt x="611" y="0" on="1"/>
        <pt x="524" y="0" on="1"/>
        <pt x="453" y="220" on="1"/>
        <pt x="175" y="220" on="1"/>
        <pt x="104" y="0" on="1"/>
        <pt x="17" y="0" on="1"/>
      </contour>
      <contour>
        <pt x="314" y="652" on="1"/>
        <pt x="197" y="290" on="1"/>
        <pt x="430" y="290" on="1"/>
      </contour>
      <contour>
        <pt x="200" y="790" on="1"/>
        <pt x="164" y="826" on="1"/>
        <pt x="298" y="979" on="1"/>
        <pt x="335" y="979" on="1"/>
        <pt x="469" y="826" on="1"/>
        <pt x="433" y="790" on="1"/>
        <pt x="316" y="886" on="1"/>
      </contour>
    </TTGlyph>
    <TTGlyph name="Adieresis" xMin="17" yMin="0" xMax="611" yMax="938">
      <contour>
        <pt x="255" y="730" on="1"/>
        <pt x="372" y="730" on="1"/>
        <pt x="611" y="0" on="1"/>
        <pt x="524" y="0" on="1"/>
        <pt x="453" y="220" on="1"/>
        <pt x="175" y="220" on="1"/>
        <pt x="104" y="0" on="1"/>
        <pt x="17" y="0" on="1"/>
      </contour>
      <contour>
        <pt x="314" y="652" on="1"/>
        <pt x="197" y="290" on="1"/>
        <pt x="430" y="290" on="1"/>
      </contour>
      <contour>
        <pt x="256" y="844" on="0"/>
        <pt x="232" y="825" on="0"/>
        <pt x="187" y="825" on="0"/>
        <pt x="164" y="844" on="0"/>
        <pt x="160" y="864" on="0"/>
        <pt x="160" y="898" on="0"/>
        <pt x="164" y="919" on="0"/>
        <pt x="187" y="938" on="0"/>
        <pt x="242" y="938" on="0"/>
        <pt x="260" y="908" on="0"/>
        <pt x="260" y="864" on="0"/>
      </contour>
      <contour>
        <pt x="468" y="844" on="0"/>
        <pt x="444" y="825" on="0"/>
        <pt x="399" y="825" on="0"/>
        <pt x="376" y="844" on="0"/>
        <pt x="372" y="864" on="0"/>
        <pt x="372" y="898" on="0"/>
        <pt x="376" y="919" on="0"/>
        <pt x="399" y="938" on="0"/>
        <pt x="454" y="938" on="0"/>
        <pt x="472" y="908" on="0"/>
        <pt x="472" y="864" on="0"/>
      </contour>
    </TTGlyph>
    <TTGlyph name="Agrave" xMin="17" yMin="0" xMax="611" yMax="985">
      <contour>
        <pt x="255" y="730" on="1"/>
        <pt x="372" y="730" on="1"/>
        <pt x="611" y="0" on="1"/>
        <pt x="524" y="0" on="1"/>
        <pt x="453" y="220" on="1"/>
        <pt x="175" y="220" on="1"/>
        <pt x="104" y="0" on="1"/>
        <pt x="17" y="0" on="1"/>
      </contour>
      <contour>
        <pt x="314" y="652" on="1"/>
        <pt x="197" y="290" on="1"/>
        <pt x="430" y="290" on="1"/>
      </contour>
      <contour>
        <pt x="425" y="829" on="1"/>
        <pt x="386" y="783" on="1"/>
        <pt x="203" y="921" on="1"/>
        <pt x="257" y="985" on="1"/>
      </contour>
    </TTGlyph>
    <TTGlyph name="Aring" xMin="17" yMin="0" xMax="611" yMax="988">
      <contour>
        <pt x="255" y="730" on="1"/>
        <pt x="372" y="730" on="1"/>
        <pt x="611" y="0" on="1"/>
        <pt x="524" y="0" on="1"/>
        <pt x="453" y="220" on="1"/>
        <pt x="175" y="220" on="1"/>
        <pt x="104" y="0" on="1"/>
        <pt x="17" y="0" on="1"/>
      </contour>
      <contour>
        <pt x="314" y="652" on="1"/>
        <pt x="197" y="290" on="1"/>
        <pt x="430" y="290" on="1"/>
      </contour>
      <contour>
        <pt x="315" y="826" on="1"/>
        <pt x="362" y="826" on="0"/>
        <pt x="362" y="940" on="0"/>
        <pt x="315" y="940" on="1"/>
        <pt x="271" y="940" on="0"/>
        <pt x="271" y="826" on="0"/>
      </contour>
      <contour>
        <pt x="315" y="779" on="1"/>
        <pt x="213" y="779" on="0"/>
        <pt x="213" y="883" on="1"/>
        <pt x="213" y="909" on="0"/>
        <pt x="227" y="952" on="0"/>
        <pt x="275" y="988" on="0"/>
        <pt x="315" y="988" on="1"/>
        <pt x="419" y="988" on="0"/>
        <pt x="419" y="779" on="0"/>
      </contour>
    </TTGlyph>
    <TTGlyph name="Atilde" xMin="17" yMin="0" xMax="611" yMax="948">
      <contour>
        <pt x="255" y="730" on="1"/>
        <pt x="372" y="730" on="1"/>
        <pt x="611" y="0" on="1"/>
        <pt x="524" y="0" on="1"/>
        <pt x="453" y="220" on="1"/>
        <pt x="175" y="220" on="1"/>
        <pt x="104" y="0" on="1"/>
        <pt x="17" y="0" on="1"/>
      </contour>
      <contour>
        <pt x="314" y="652" on="1"/>
        <pt x="197" y="290" on="1"/>
        <pt x="430" y="290" on="1"/>
      </contour>
      <contour>
        <pt x="481" y="930" on="1"/>
        <pt x="454" y="831" on="0"/>
        <pt x="392" y="831" on="1"/>
        <pt x="364" y="831" on="0"/>
        <pt x="267" y="867" on="0"/>
        <pt x="236" y="867" on="0"/>
        <pt x="216" y="846" on="0"/>
        <pt x="208" y="823" on="1"/>
        <pt x="151" y="841" on="1"/>
        <pt x="166" y="895" on="0"/>
        <pt x="211" y="940" on="0"/>
        <pt x="268" y="940" on="0"/>
        <pt x="366" y="904" on="0"/>
        <pt x="397" y="904" on="0"/>
        <pt x="417" y="924" on="0"/>
        <pt x="425" y="948" on="1"/>
      </contour>
    </TTGlyph>
    <TTGlyph name="B" xMin="106" yMin="0" xMax="567" yMax="730">
      <contour>
        <pt x="344" y="0" on="1"/>
        <pt x="106" y="0" on="1"/>
        <pt x="106" y="730" on="1"/>
        <pt x="306" y="730" on="1"/>
        <pt x="529" y="730" on="0"/>
        <pt x="529" y="543" on="1"/>
        <pt x="529" y="417" on="0"/>
        <pt x="424" y="378" on="1"/>
        <pt x="567" y="347" on="0"/>
        <pt x="567" y="195" on="1"/>
        <pt x="567" y="0" on="0"/>
      </contour>
      <contour>
        <pt x="194" y="70" on="1"/>
        <pt x="343" y="70" on="1"/>
        <pt x="413" y="70" on="0"/>
        <pt x="479" y="142" on="0"/>
        <pt x="479" y="264" on="0"/>
        <pt x="413" y="338" on="0"/>
        <pt x="343" y="338" on="1"/>
        <pt x="194" y="338" on="1"/>
      </contour>
      <contour>
        <pt x="194" y="409" on="1"/>
        <pt x="305" y="409" on="1"/>
        <pt x="375" y="409" on="0"/>
        <pt x="441" y="476" on="0"/>
        <pt x="441" y="592" on="0"/>
        <pt x="375" y="660" on="0"/>
        <pt x="305" y="660" on="1"/>
        <pt x="194" y="660" on="1"/>
      </contour>
    </TTGlyph>
    <TTGlyph name="C" xMin="74" yMin="-14" xMax="586" yMax="744">
      <contour>
        <pt x="355" y="672" on="1"/>
        <pt x="262" y="672" on="0"/>
        <pt x="216" y="620" on="1"/>
        <pt x="175" y="575" on="0"/>
        <pt x="166" y="472" on="1"/>
        <pt x="162" y="429" on="0"/>
        <pt x="162" y="303" on="0"/>
        <pt x="170" y="214" on="0"/>
        <pt x="195" y="134" on="0"/>
        <pt x="216" y="110" on="1"/>
        <pt x="262" y="58" on="0"/>
        <pt x="355" y="58" on="1"/>
        <pt x="509" y="58" on="0"/>
        <pt x="514" y="222" on="1"/>
        <pt x="586" y="218" on="1"/>
        <pt x="579" y="107" on="0"/>
        <pt x="472" y="-14" on="0"/>
        <pt x="355" y="-14" on="1"/>
        <pt x="190" y="-14" on="0"/>
        <pt x="130" y="88" on="1"/>
        <pt x="99" y="139" on="0"/>
        <pt x="74" y="271" on="0"/>
        <pt x="74" y="460" on="0"/>
        <pt x="99" y="592" on="0"/>
        <pt x="130" y="643" on="1"/>
        <pt x="190" y="744" on="0"/>
        <pt x="355" y="744" on="1"/>
        <pt x="464" y="744" on="0"/>
        <pt x="570" y="645" on="0"/>
        <pt x="582" y="553" on="1"/>
        <pt x="511" y="540" on="1"/>
        <pt x="490" y="672" on="0"/>
      </contour>
    </TTGlyph>
    <TTGlyph name="Ccedilla" xMin="74" yMin="-241" xMax="586" yMax="744">
      <contour>
        <pt x="355" y="672" on="1"/>
        <pt x="262" y="672" on="0"/>
        <pt x="216" y="620" on="1"/>
        <pt x="175" y="575" on="0"/>
        <pt x="166" y="472" on="1"/>
        <pt x="162" y="429" on="0"/>
        <pt x="162" y="303" on="0"/>
        <pt x="170" y="214" on="0"/>
        <pt x="195" y="134" on="0"/>
        <pt x="216" y="110" on="1"/>
        <pt x="262" y="58" on="0"/>
        <pt x="355" y="58" on="1"/>
        <pt x="509" y="58" on="0"/>
        <pt x="514" y="222" on="1"/>
        <pt x="586" y="218" on="1"/>
        <pt x="579" y="107" on="0"/>
        <pt x="472" y="-14" on="0"/>
        <pt x="355" y="-14" on="1"/>
        <pt x="190" y="-14" on="0"/>
        <pt x="130" y="88" on="1"/>
        <pt x="99" y="139" on="0"/>
        <pt x="74" y="271" on="0"/>
        <pt x="74" y="460" on="0"/>
        <pt x="99" y="592" on="0"/>
        <pt x="130" y="643" on="1"/>
        <pt x="190" y="744" on="0"/>
        <pt x="355" y="744" on="1"/>
        <pt x="464" y="744" on="0"/>
        <pt x="570" y="645" on="0"/>
        <pt x="582" y="553" on="1"/>
        <pt x="511" y="540" on="1"/>
        <pt x="490" y="672" on="0"/>
      </contour>
      <contour>
        <pt x="218" y="-142" on="1"/>
        <pt x="284" y="-142" on="1"/>
        <pt x="284" y="-157" on="0"/>
        <pt x="286" y="-165" on="1"/>
        <pt x="291" y="-185" on="0"/>
        <pt x="349" y="-185" on="0"/>
        <pt x="363" y="-164" on="0"/>
        <pt x="363" y="-120" on="0"/>
        <pt x="344" y="-99" on="0"/>
        <pt x="319" y="-95" on="1"/>
        <pt x="265" y="-85" on="1"/>
        <pt x="272" y="-50" on="1"/>
        <pt x="314" y="-50" on="1"/>
        <pt x="370" y="-50" on="0"/>
        <pt x="425" y="-88" on="0"/>
        <pt x="425" y="-191" on="0"/>
        <pt x="380" y="-241" on="0"/>
        <pt x="263" y="-241" on="0"/>
        <pt x="218" y="-190" on="0"/>
      </contour>
    </TTGlyph>
    <TTGlyph name="D" xMin="106" yMin="0" xMax="614" yMax="730">
      <contour>
        <pt x="106" y="730" on="1"/>
        <pt x="328" y="730" on="1"/>
        <pt x="500" y="730" on="0"/>
        <pt x="561" y="622" on="1"/>
        <pt x="591" y="570" on="0"/>
        <pt x="614" y="448" on="0"/>
        <pt x="614" y="299" on="0"/>
        <pt x="601" y="197" on="0"/>
        <pt x="563" y="100" on="0"/>
        <pt x="532" y="69" on="1"/>
        <pt x="461" y="0" on="0"/>
        <pt x="328" y="0" on="1"/>
        <pt x="106" y="0" on="1"/>
      </contour>
      <contour>
        <pt x="324" y="660" on="1"/>
        <pt x="194" y="660" on="1"/>
        <pt x="194" y="70" on="1"/>
        <pt x="324" y="70" on="1"/>
        <pt x="422" y="70" on="0"/>
        <pt x="470" y="126" on="1"/>
        <pt x="526" y="194" on="0"/>
        <pt x="526" y="536" on="0"/>
        <pt x="470" y="604" on="1"/>
        <pt x="422" y="660" on="0"/>
      </contour>
    </TTGlyph>
    <TTGlyph name="Delta" xMin="-6" yMin="0" xMax="624" yMax="730">
      <contour>
        <pt x="262" y="730" on="1"/>
        <pt x="356" y="730" on="1"/>
        <pt x="624" y="0" on="1"/>
        <pt x="-6" y="0" on="1"/>
      </contour>
      <contour>
        <pt x="309" y="633" on="1"/>
        <pt x="102" y="60" on="1"/>
        <pt x="515" y="60" on="1"/>
      </contour>
    </TTGlyph>
    <TTGlyph name="E" xMin="106" yMin="0" xMax="514" yMax="730">
      <contour>
        <pt x="106" y="730" on="1"/>
        <pt x="494" y="730" on="1"/>
        <pt x="494" y="660" on="1"/>
        <pt x="194" y="660" on="1"/>
        <pt x="194" y="406" on="1"/>
        <pt x="473" y="406" on="1"/>
        <pt x="473" y="336" on="1"/>
        <pt x="194" y="336" on="1"/>
        <pt x="194" y="70" on="1"/>
        <pt x="514" y="70" on="1"/>
        <pt x="514" y="0" on="1"/>
        <pt x="106" y="0" on="1"/>
      </contour>
    </TTGlyph>
    <TTGlyph name="Eacute" xMin="106" yMin="0" xMax="514" yMax="985">
      <contour>
        <pt x="106" y="730" on="1"/>
        <pt x="494" y="730" on="1"/>
        <pt x="494" y="660" on="1"/>
        <pt x="194" y="660" on="1"/>
        <pt x="194" y="406" on="1"/>
        <pt x="473" y="406" on="1"/>
        <pt x="473" y="336" on="1"/>
        <pt x="194" y="336" on="1"/>
        <pt x="194" y="70" on="1"/>
        <pt x="514" y="70" on="1"/>
        <pt x="514" y="0" on="1"/>
        <pt x="106" y="0" on="1"/>
      </contour>
      <contour>
        <pt x="252" y="783" on="1"/>
        <pt x="213" y="829" on="1"/>
        <pt x="381" y="985" on="1"/>
        <pt x="435" y="921" on="1"/>
      </contour>
    </TTGlyph>
    <TTGlyph name="Ecircumflex" xMin="106" yMin="0" xMax="514" yMax="979">
      <contour>
        <pt x="106" y="730" on="1"/>
        <pt x="494" y="730" on="1"/>
        <pt x="494" y="660" on="1"/>
        <pt x="194" y="660" on="1"/>
        <pt x="194" y="406" on="1"/>
        <pt x="473" y="406" on="1"/>
        <pt x="473" y="336" on="1"/>
        <pt x="194" y="336" on="1"/>
        <pt x="194" y="70" on="1"/>
        <pt x="514" y="70" on="1"/>
        <pt x="514" y="0" on="1"/>
        <pt x="106" y="0" on="1"/>
      </contour>
      <contour>
        <pt x="174" y="790" on="1"/>
        <pt x="138" y="826" on="1"/>
        <pt x="272" y="979" on="1"/>
        <pt x="309" y="979" on="1"/>
        <pt x="443" y="826" on="1"/>
        <pt x="407" y="790" on="1"/>
        <pt x="290" y="886" on="1"/>
      </contour>
    </TTGlyph>
    <TTGlyph name="Edieresis" xMin="106" yMin="0" xMax="514" yMax="938">
      <contour>
        <pt x="106" y="730" on="1"/>
        <pt x="494" y="730" on="1"/>
        <pt x="494" y="660" on="1"/>
        <pt x="194" y="660" on="1"/>
        <pt x="194" y="406" on="1"/>
        <pt x="473" y="406" on="1"/>
        <pt x="473" y="336" on="1"/>
        <pt x="194" y="336" on="1"/>
        <pt x="194" y="70" on="1"/>
        <pt x="514" y="70" on="1"/>
        <pt x="514" y="0" on="1"/>
        <pt x="106" y="0" on="1"/>
      </contour>
      <contour>
        <pt x="230" y="844" on="0"/>
        <pt x="206" y="825" on="0"/>
        <pt x="161" y="825" on="0"/>
        <pt x="138" y="844" on="0"/>
        <pt x="134" y="864" on="0"/>
        <pt x="134" y="898" on="0"/>
        <pt x="138" y="919" on="0"/>
        <pt x="161" y="938" on="0"/>
        <pt x="216" y="938" on="0"/>
        <pt x="234" y="908" on="0"/>
        <pt x="234" y="864" on="0"/>
      </contour>
      <contour>
        <pt x="442" y="844" on="0"/>
        <pt x="418" y="825" on="0"/>
        <pt x="373" y="825" on="0"/>
        <pt x="350" y="844" on="0"/>
        <pt x="346" y="864" on="0"/>
        <pt x="346" y="898" on="0"/>
        <pt x="350" y="919" on="0"/>
        <pt x="373" y="938" on="0"/>
        <pt x="428" y="938" on="0"/>
        <pt x="446" y="908" on="0"/>
        <pt x="446" y="864" on="0"/>
      </contour>
    </TTGlyph>
    <TTGlyph name="Egrave" xMin="106" yMin="0" xMax="514" yMax="985">
      <contour>
        <pt x="106" y="730" on="1"/>
        <pt x="494" y="730" on="1"/>
        <pt x="494" y="660" on="1"/>
        <pt x="194" y="660" on="1"/>
        <pt x="194" y="406" on="1"/>
        <pt x="473" y="406" on="1"/>
        <pt x="473" y="336" on="1"/>
        <pt x="194" y="336" on="1"/>
        <pt x="194" y="70" on="1"/>
        <pt x="514" y="70" on="1"/>
        <pt x="514" y="0" on="1"/>
        <pt x="106" y="0" on="1"/>
      </contour>
      <contour>
        <pt x="399" y="829" on="1"/>
        <pt x="360" y="783" on="1"/>
        <pt x="177" y="921" on="1"/>
        <pt x="231" y="985" on="1"/>
      </contour>
    </TTGlyph>
    <TTGlyph name="Eth" xMin="58" yMin="0" xMax="614" yMax="730">
      <contour>
        <pt x="58" y="330" on="1"/>
        <pt x="58" y="398" on="1"/>
        <pt x="106" y="398" on="1"/>
        <pt x="106" y="730" on="1"/>
        <pt x="328" y="730" on="1"/>
        <pt x="500" y="730" on="0"/>
        <pt x="561" y="622" on="1"/>
        <pt x="591" y="570" on="0"/>
        <pt x="614" y="448" on="0"/>
        <pt x="614" y="299" on="0"/>
        <pt x="601" y="197" on="0"/>
        <pt x="563" y="100" on="0"/>
        <pt x="532" y="69" on="1"/>
        <pt x="461" y="0" on="0"/>
        <pt x="328" y="0" on="1"/>
        <pt x="106" y="0" on="1"/>
        <pt x="106" y="330" on="1"/>
      </contour>
      <contour>
        <pt x="324" y="660" on="1"/>
        <pt x="194" y="660" on="1"/>
        <pt x="194" y="398" on="1"/>
        <pt x="410" y="398" on="1"/>
        <pt x="410" y="330" on="1"/>
        <pt x="194" y="330" on="1"/>
        <pt x="194" y="70" on="1"/>
        <pt x="324" y="70" on="1"/>
        <pt x="422" y="70" on="0"/>
        <pt x="470" y="126" on="1"/>
        <pt x="526" y="194" on="0"/>
        <pt x="526" y="536" on="0"/>
        <pt x="470" y="604" on="1"/>
        <pt x="422" y="660" on="0"/>
      </contour>
    </TTGlyph>
    <TTGlyph name="Euro" xMin="47" yMin="-14" xMax="593" yMax="744">
      <contour>
        <pt x="47" y="407" on="1"/>
        <pt x="47" y="468" on="1"/>
        <pt x="118" y="468" on="1"/>
        <pt x="130" y="598" on="0"/>
        <pt x="246" y="744" on="0"/>
        <pt x="371" y="744" on="1"/>
        <pt x="476" y="744" on="0"/>
        <pt x="591" y="651" on="0"/>
        <pt x="593" y="564" on="1"/>
        <pt x="517" y="560" on="1"/>
        <pt x="517" y="614" on="0"/>
        <pt x="434" y="673" on="0"/>
        <pt x="371" y="673" on="1"/>
        <pt x="289" y="673" on="0"/>
        <pt x="213" y="568" on="0"/>
        <pt x="204" y="468" on="1"/>
        <pt x="437" y="468" on="1"/>
        <pt x="437" y="407" on="1"/>
        <pt x="200" y="407" on="1"/>
        <pt x="200" y="323" on="1"/>
        <pt x="437" y="323" on="1"/>
        <pt x="437" y="262" on="1"/>
        <pt x="204" y="262" on="1"/>
        <pt x="213" y="161" on="0"/>
        <pt x="289" y="57" on="0"/>
        <pt x="371" y="57" on="1"/>
        <pt x="435" y="57" on="0"/>
        <pt x="518" y="117" on="0"/>
        <pt x="518" y="172" on="1"/>
        <pt x="593" y="168" on="1"/>
        <pt x="591" y="80" on="0"/>
        <pt x="477" y="-14" on="0"/>
        <pt x="371" y="-14" on="1"/>
        <pt x="246" y="-14" on="0"/>
        <pt x="130" y="131" on="0"/>
        <pt x="118" y="262" on="1"/>
        <pt x="47" y="262" on="1"/>
        <pt x="47" y="323" on="1"/>
        <pt x="115" y="323" on="1"/>
        <pt x="114" y="337" on="0"/>
        <pt x="114" y="393" on="0"/>
        <pt x="115" y="407" on="1"/>
      </contour>
    </TTGlyph>
    <TTGlyph name="F" xMin="106" yMin="0" xMax="474" yMax="730">
      <contour>
        <pt x="106" y="730" on="1"/>
        <pt x="474" y="730" on="1"/>
        <pt x="474" y="660" on="1"/>
        <pt x="194" y="660" on="1"/>
        <pt x="194" y="406" on="1"/>
        <pt x="451" y="406" on="1"/>
        <pt x="451" y="336" on="1"/>
        <pt x="194" y="336" on="1"/>
        <pt x="194" y="0" on="1"/>
        <pt x="106" y="0" on="1"/>
      </contour>
    </TTGlyph>
    <TTGlyph name="G" xMin="74" yMin="-14" xMax="597" yMax="744">
      <contour>
        <pt x="406" y="308" on="1"/>
        <pt x="406" y="367" on="1"/>
        <pt x="597" y="367" on="1"/>
        <pt x="597" y="0" on="1"/>
        <pt x="549" y="0" on="1"/>
        <pt x="534" y="87" on="1"/>
        <pt x="472" y="-14" on="0"/>
        <pt x="345" y="-14" on="1"/>
        <pt x="216" y="-14" on="0"/>
        <pt x="152" y="52" on="1"/>
        <pt x="96" y="109" on="0"/>
        <pt x="80" y="236" on="1"/>
        <pt x="74" y="291" on="0"/>
        <pt x="74" y="460" on="0"/>
        <pt x="99" y="592" on="0"/>
        <pt x="130" y="643" on="1"/>
        <pt x="190" y="744" on="0"/>
        <pt x="355" y="744" on="1"/>
        <pt x="464" y="744" on="0"/>
        <pt x="570" y="645" on="0"/>
        <pt x="582" y="553" on="1"/>
        <pt x="511" y="540" on="1"/>
        <pt x="490" y="672" on="0"/>
        <pt x="355" y="672" on="1"/>
        <pt x="262" y="672" on="0"/>
        <pt x="216" y="620" on="1"/>
        <pt x="175" y="573" on="0"/>
        <pt x="166" y="472" on="1"/>
        <pt x="162" y="428" on="0"/>
        <pt x="162" y="301" on="0"/>
        <pt x="170" y="211" on="0"/>
        <pt x="194" y="132" on="0"/>
        <pt x="214" y="108" on="1"/>
        <pt x="259" y="58" on="0"/>
        <pt x="426" y="58" on="0"/>
        <pt x="513" y="139" on="0"/>
        <pt x="519" y="208" on="1"/>
        <pt x="519" y="308" on="1"/>
      </contour>
    </TTGlyph>
    <TTGlyph name="H" xMin="106" yMin="0" xMax="620" yMax="730">
      <contour>
        <pt x="532" y="730" on="1"/>
        <pt x="620" y="730" on="1"/>
        <pt x="620" y="0" on="1"/>
        <pt x="532" y="0" on="1"/>
        <pt x="532" y="330" on="1"/>
        <pt x="194" y="330" on="1"/>
        <pt x="194" y="0" on="1"/>
        <pt x="106" y="0" on="1"/>
        <pt x="106" y="730" on="1"/>
        <pt x="194" y="730" on="1"/>
        <pt x="194" y="400" on="1"/>
        <pt x="532" y="400" on="1"/>
      </contour>
    </TTGlyph>
    <TTGlyph name="I" xMin="106" yMin="0" xMax="194" yMax="730">
      <contour>
        <pt x="106" y="730" on="1"/>
        <pt x="194" y="730" on="1"/>
        <pt x="194" y="0" on="1"/>
        <pt x="106" y="0" on="1"/>
      </contour>
    </TTGlyph>
    <TTGlyph name="Iacute" xMin="61" yMin="0" xMax="283" yMax="985">
      <contour>
        <pt x="106" y="730" on="1"/>
        <pt x="194" y="730" on="1"/>
        <pt x="194" y="0" on="1"/>
        <pt x="106" y="0" on="1"/>
      </contour>
      <contour>
        <pt x="100" y="783" on="1"/>
        <pt x="61" y="829" on="1"/>
        <pt x="229" y="985" on="1"/>
        <pt x="283" y="921" on="1"/>
      </contour>
    </TTGlyph>
    <TTGlyph name="Icircumflex" xMin="-2" yMin="0" xMax="303" yMax="979">
      <contour>
        <pt x="106" y="730" on="1"/>
        <pt x="194" y="730" on="1"/>
        <pt x="194" y="0" on="1"/>
        <pt x="106" y="0" on="1"/>
      </contour>
      <contour>
        <pt x="34" y="790" on="1"/>
        <pt x="-2" y="826" on="1"/>
        <pt x="132" y="979" on="1"/>
        <pt x="169" y="979" on="1"/>
        <pt x="303" y="826" on="1"/>
        <pt x="267" y="790" on="1"/>
        <pt x="150" y="886" on="1"/>
      </contour>
    </TTGlyph>
    <TTGlyph name="Idieresis" xMin="-6" yMin="0" xMax="306" yMax="938">
      <contour>
        <pt x="106" y="730" on="1"/>
        <pt x="194" y="730" on="1"/>
        <pt x="194" y="0" on="1"/>
        <pt x="106" y="0" on="1"/>
      </contour>
      <contour>
        <pt x="90" y="844" on="0"/>
        <pt x="66" y="825" on="0"/>
        <pt x="21" y="825" on="0"/>
        <pt x="-2" y="844" on="0"/>
        <pt x="-6" y="864" on="0"/>
        <pt x="-6" y="898" on="0"/>
        <pt x="-2" y="919" on="0"/>
        <pt x="21" y="938" on="0"/>
        <pt x="76" y="938" on="0"/>
        <pt x="94" y="908" on="0"/>
        <pt x="94" y="864" on="0"/>
      </contour>
      <contour>
        <pt x="302" y="844" on="0"/>
        <pt x="278" y="825" on="0"/>
        <pt x="233" y="825" on="0"/>
        <pt x="210" y="844" on="0"/>
        <pt x="206" y="864" on="0"/>
        <pt x="206" y="898" on="0"/>
        <pt x="210" y="919" on="0"/>
        <pt x="233" y="938" on="0"/>
        <pt x="288" y="938" on="0"/>
        <pt x="306" y="908" on="0"/>
        <pt x="306" y="864" on="0"/>
      </contour>
    </TTGlyph>
    <TTGlyph name="Igrave" xMin="37" yMin="0" xMax="259" yMax="985">
      <contour>
        <pt x="106" y="730" on="1"/>
        <pt x="194" y="730" on="1"/>
        <pt x="194" y="0" on="1"/>
        <pt x="106" y="0" on="1"/>
      </contour>
      <contour>
        <pt x="259" y="829" on="1"/>
        <pt x="220" y="783" on="1"/>
        <pt x="37" y="921" on="1"/>
        <pt x="91" y="985" on="1"/>
      </contour>
    </TTGlyph>
    <TTGlyph name="J" xMin="16" yMin="-14" xMax="376" yMax="730">
      <contour>
        <pt x="376" y="730" on="1"/>
        <pt x="376" y="183" on="1"/>
        <pt x="376" y="136" on="0"/>
        <pt x="365" y="75" on="0"/>
        <pt x="347" y="45" on="1"/>
        <pt x="312" y="-14" on="0"/>
        <pt x="189" y="-14" on="1"/>
        <pt x="86" y="-14" on="0"/>
        <pt x="50" y="32" on="1"/>
        <pt x="26" y="65" on="0"/>
        <pt x="21" y="95" on="1"/>
        <pt x="16" y="133" on="0"/>
        <pt x="16" y="189" on="1"/>
        <pt x="92" y="189" on="1"/>
        <pt x="92" y="115" on="0"/>
        <pt x="134" y="58" on="0"/>
        <pt x="249" y="58" on="0"/>
        <pt x="288" y="111" on="0"/>
        <pt x="288" y="183" on="1"/>
        <pt x="288" y="730" on="1"/>
      </contour>
    </TTGlyph>
    <TTGlyph name="K" xMin="106" yMin="0" xMax="584" yMax="730">
      <contour>
        <pt x="194" y="335" on="1"/>
        <pt x="194" y="0" on="1"/>
        <pt x="106" y="0" on="1"/>
        <pt x="106" y="730" on="1"/>
        <pt x="194" y="730" on="1"/>
        <pt x="194" y="405" on="1"/>
        <pt x="273" y="405" on="1"/>
        <pt x="478" y="730" on="1"/>
        <pt x="570" y="730" on="1"/>
        <pt x="339" y="368" on="1"/>
        <pt x="584" y="0" on="1"/>
        <pt x="489" y="0" on="1"/>
        <pt x="267" y="335" on="1"/>
      </contour>
    </TTGlyph>
    <TTGlyph name="L" xMin="106" yMin="0" xMax="466" yMax="730">
      <contour>
        <pt x="106" y="0" on="1"/>
        <pt x="106" y="730" on="1"/>
        <pt x="194" y="730" on="1"/>
        <pt x="194" y="70" on="1"/>
        <pt x="466" y="70" on="1"/>
        <pt x="466" y="0" on="1"/>
      </contour>
    </TTGlyph>
    <TTGlyph name="Lslash" xMin="22" yMin="0" xMax="466" yMax="730">
      <contour>
        <pt x="106" y="730" on="1"/>
        <pt x="194" y="730" on="1"/>
        <pt x="194" y="428" on="1"/>
        <pt x="280" y="463" on="1"/>
        <pt x="280" y="400" on="1"/>
        <pt x="194" y="365" on="1"/>
        <pt x="194" y="70" on="1"/>
        <pt x="466" y="70" on="1"/>
        <pt x="466" y="0" on="1"/>
        <pt x="106" y="0" on="1"/>
        <pt x="106" y="330" on="1"/>
        <pt x="22" y="296" on="1"/>
        <pt x="22" y="359" on="1"/>
        <pt x="106" y="393" on="1"/>
      </contour>
    </TTGlyph>
    <TTGlyph name="M" xMin="96" yMin="0" xMax="781" yMax="730">
      <contour>
        <pt x="642" y="730" on="1"/>
        <pt x="762" y="730" on="1"/>
        <pt x="781" y="0" on="1"/>
        <pt x="695" y="0" on="1"/>
        <pt x="680" y="615" on="1"/>
        <pt x="471" y="62" on="1"/>
        <pt x="391" y="62" on="1"/>
        <pt x="197" y="609" on="1"/>
        <pt x="182" y="0" on="1"/>
        <pt x="96" y="0" on="1"/>
        <pt x="116" y="730" on="1"/>
        <pt x="235" y="730" on="1"/>
        <pt x="432" y="171" on="1"/>
      </contour>
    </TTGlyph>
    <TTGlyph name="N" xMin="106" yMin="0" xMax="638" yMax="730">
      <contour>
        <pt x="550" y="730" on="1"/>
        <pt x="638" y="730" on="1"/>
        <pt x="638" y="0" on="1"/>
        <pt x="542" y="0" on="1"/>
        <pt x="194" y="582" on="1"/>
        <pt x="194" y="0" on="1"/>
        <pt x="106" y="0" on="1"/>
        <pt x="106" y="730" on="1"/>
        <pt x="202" y="730" on="1"/>
        <pt x="550" y="147" on="1"/>
      </contour>
    </TTGlyph>
    <TTGlyph name="Ntilde" xMin="106" yMin="0" xMax="638" yMax="948">
      <contour>
        <pt x="550" y="730" on="1"/>
        <pt x="638" y="730" on="1"/>
        <pt x="638" y="0" on="1"/>
        <pt x="542" y="0" on="1"/>
        <pt x="194" y="582" on="1"/>
        <pt x="194" y="0" on="1"/>
        <pt x="106" y="0" on="1"/>
        <pt x="106" y="730" on="1"/>
        <pt x="202" y="730" on="1"/>
        <pt x="550" y="147" on="1"/>
      </contour>
      <contour>
        <pt x="543" y="930" on="1"/>
        <pt x="516" y="831" on="0"/>
        <pt x="454" y="831" on="1"/>
        <pt x="426" y="831" on="0"/>
        <pt x="329" y="867" on="0"/>
        <pt x="298" y="867" on="0"/>
        <pt x="278" y="846" on="0"/>
        <pt x="270" y="823" on="1"/>
        <pt x="213" y="841" on="1"/>
        <pt x="228" y="895" on="0"/>
        <pt x="273" y="940" on="0"/>
        <pt x="330" y="940" on="0"/>
        <pt x="428" y="904" on="0"/>
        <pt x="459" y="904" on="0"/>
        <pt x="479" y="924" on="0"/>
        <pt x="487" y="948" on="1"/>
      </contour>
    </TTGlyph>
    <TTGlyph name="O" xMin="74" yMin="-14" xMax="647" yMax="744">
      <contour>
        <pt x="560" y="43" on="0"/>
        <pt x="444" y="-14" on="0"/>
        <pt x="275" y="-14" on="0"/>
        <pt x="160" y="42" on="0"/>
        <pt x="99" y="151" on="0"/>
        <pt x="74" y="279" on="0"/>
        <pt x="74" y="432" on="0"/>
        <pt x="88" y="539" on="0"/>
        <pt x="127" y="639" on="0"/>
        <pt x="158" y="672" on="1"/>
        <pt x="227" y="744" on="0"/>
        <pt x="360" y="744" on="1"/>
        <pt x="528" y="744" on="0"/>
        <pt x="591" y="632" on="1"/>
        <pt x="622" y="578" on="0"/>
        <pt x="647" y="450" on="0"/>
        <pt x="647" y="279" on="0"/>
        <pt x="622" y="151" on="0"/>
      </contour>
      <contour>
        <pt x="366" y="58" on="1"/>
        <pt x="418" y="58" on="0"/>
        <pt x="499" y="105" on="0"/>
        <pt x="541" y="192" on="0"/>
        <pt x="559" y="297" on="0"/>
        <pt x="559" y="433" on="0"/>
        <pt x="541" y="538" on="0"/>
        <pt x="520" y="582" on="1"/>
        <pt x="476" y="672" on="0"/>
        <pt x="360" y="672" on="1"/>
        <pt x="267" y="672" on="0"/>
        <pt x="220" y="613" on="1"/>
        <pt x="162" y="540" on="0"/>
        <pt x="162" y="190" on="0"/>
        <pt x="220" y="117" on="1"/>
        <pt x="267" y="58" on="0"/>
      </contour>
    </TTGlyph>
    <TTGlyph name="OE" xMin="74" yMin="0" xMax="921" yMax="730">
      <contour>
        <pt x="355" y="0" on="1"/>
        <pt x="190" y="0" on="0"/>
        <pt x="128" y="100" on="1"/>
        <pt x="98" y="150" on="0"/>
        <pt x="74" y="276" on="0"/>
        <pt x="74" y="453" on="0"/>
        <pt x="98" y="579" on="0"/>
        <pt x="128" y="630" on="1"/>
        <pt x="189" y="730" on="0"/>
        <pt x="355" y="730" on="1"/>
        <pt x="901" y="730" on="1"/>
        <pt x="901" y="660" on="1"/>
        <pt x="557" y="660" on="1"/>
        <pt x="629" y="585" on="0"/>
        <pt x="636" y="406" on="1"/>
        <pt x="880" y="406" on="1"/>
        <pt x="880" y="336" on="1"/>
        <pt x="636" y="336" on="1"/>
        <pt x="633" y="147" on="0"/>
        <pt x="558" y="70" on="1"/>
        <pt x="921" y="70" on="1"/>
        <pt x="921" y="0" on="1"/>
      </contour>
      <contour>
        <pt x="465" y="71" on="0"/>
        <pt x="549" y="219" on="0"/>
        <pt x="549" y="511" on="0"/>
        <pt x="465" y="659" on="0"/>
        <pt x="355" y="659" on="1"/>
        <pt x="240" y="659" on="0"/>
        <pt x="200" y="578" on="1"/>
        <pt x="162" y="504" on="0"/>
        <pt x="162" y="226" on="0"/>
        <pt x="200" y="152" on="1"/>
        <pt x="240" y="71" on="0"/>
      </contour>
    </TTGlyph>
    <TTGlyph name="Oacute" xMin="74" yMin="-14" xMax="647" yMax="985">
      <contour>
        <pt x="560" y="43" on="0"/>
        <pt x="444" y="-14" on="0"/>
        <pt x="275" y="-14" on="0"/>
        <pt x="160" y="42" on="0"/>
        <pt x="99" y="151" on="0"/>
        <pt x="74" y="279" on="0"/>
        <pt x="74" y="432" on="0"/>
        <pt x="88" y="539" on="0"/>
        <pt x="127" y="639" on="0"/>
        <pt x="158" y="672" on="1"/>
        <pt x="227" y="744" on="0"/>
        <pt x="360" y="744" on="1"/>
        <pt x="528" y="744" on="0"/>
        <pt x="591" y="632" on="1"/>
        <pt x="622" y="578" on="0"/>
        <pt x="647" y="450" on="0"/>
        <pt x="647" y="279" on="0"/>
        <pt x="622" y="151" on="0"/>
      </contour>
      <contour>
        <pt x="366" y="58" on="1"/>
        <pt x="418" y="58" on="0"/>
        <pt x="499" y="105" on="0"/>
        <pt x="541" y="192" on="0"/>
        <pt x="559" y="297" on="0"/>
        <pt x="559" y="433" on="0"/>
        <pt x="541" y="538" on="0"/>
        <pt x="520" y="582" on="1"/>
        <pt x="476" y="672" on="0"/>
        <pt x="360" y="672" on="1"/>
        <pt x="267" y="672" on="0"/>
        <pt x="220" y="613" on="1"/>
        <pt x="162" y="540" on="0"/>
        <pt x="162" y="190" on="0"/>
        <pt x="220" y="117" on="1"/>
        <pt x="267" y="58" on="0"/>
      </contour>
      <contour>
        <pt x="290" y="783" on="1"/>
        <pt x="251" y="829" on="1"/>
        <pt x="419" y="985" on="1"/>
        <pt x="473" y="921" on="1"/>
      </contour>
    </TTGlyph>
    <TTGlyph name="Ocircumflex" xMin="74" yMin="-14" xMax="647" yMax="979">
      <contour>
        <pt x="560" y="43" on="0"/>
        <pt x="444" y="-14" on="0"/>
        <pt x="275" y="-14" on="0"/>
        <pt x="160" y="42" on="0"/>
        <pt x="99" y="151" on="0"/>
        <pt x="74" y="279" on="0"/>
        <pt x="74" y="432" on="0"/>
        <pt x="88" y="539" on="0"/>
        <pt x="127" y="639" on="0"/>
        <pt x="158" y="672" on="1"/>
        <pt x="227" y="744" on="0"/>
        <pt x="360" y="744" on="1"/>
        <pt x="528" y="744" on="0"/>
        <pt x="591" y="632" on="1"/>
        <pt x="622" y="578" on="0"/>
        <pt x="647" y="450" on="0"/>
        <pt x="647" y="279" on="0"/>
        <pt x="622" y="151" on="0"/>
      </contour>
      <contour>
        <pt x="366" y="58" on="1"/>
        <pt x="418" y="58" on="0"/>
        <pt x="499" y="105" on="0"/>
        <pt x="541" y="192" on="0"/>
        <pt x="559" y="297" on="0"/>
        <pt x="559" y="433" on="0"/>
        <pt x="541" y="538" on="0"/>
        <pt x="520" y="582" on="1"/>
        <pt x="476" y="672" on="0"/>
        <pt x="360" y="672" on="1"/>
        <pt x="267" y="672" on="0"/>
        <pt x="220" y="613" on="1"/>
        <pt x="162" y="540" on="0"/>
        <pt x="162" y="190" on="0"/>
        <pt x="220" y="117" on="1"/>
        <pt x="267" y="58" on="0"/>
      </contour>
      <contour>
        <pt x="244" y="790" on="1"/>
        <pt x="208" y="826" on="1"/>
        <pt x="342" y="979" on="1"/>
        <pt x="379" y="979" on="1"/>
        <pt x="513" y="826" on="1"/>
        <pt x="477" y="790" on="1"/>
        <pt x="360" y="886" on="1"/>
      </contour>
    </TTGlyph>
    <TTGlyph name="Odieresis" xMin="74" yMin="-14" xMax="647" yMax="938">
      <contour>
        <pt x="560" y="43" on="0"/>
        <pt x="444" y="-14" on="0"/>
        <pt x="275" y="-14" on="0"/>
        <pt x="160" y="42" on="0"/>
        <pt x="99" y="151" on="0"/>
        <pt x="74" y="279" on="0"/>
        <pt x="74" y="432" on="0"/>
        <pt x="88" y="539" on="0"/>
        <pt x="127" y="639" on="0"/>
        <pt x="158" y="672" on="1"/>
        <pt x="227" y="744" on="0"/>
        <pt x="360" y="744" on="1"/>
        <pt x="528" y="744" on="0"/>
        <pt x="591" y="632" on="1"/>
        <pt x="622" y="578" on="0"/>
        <pt x="647" y="450" on="0"/>
        <pt x="647" y="279" on="0"/>
        <pt x="622" y="151" on="0"/>
      </contour>
      <contour>
        <pt x="366" y="58" on="1"/>
        <pt x="418" y="58" on="0"/>
        <pt x="499" y="105" on="0"/>
        <pt x="541" y="192" on="0"/>
        <pt x="559" y="297" on="0"/>
        <pt x="559" y="433" on="0"/>
        <pt x="541" y="538" on="0"/>
        <pt x="520" y="582" on="1"/>
        <pt x="476" y="672" on="0"/>
        <pt x="360" y="672" on="1"/>
        <pt x="267" y="672" on="0"/>
        <pt x="220" y="613" on="1"/>
        <pt x="162" y="540" on="0"/>
        <pt x="162" y="190" on="0"/>
        <pt x="220" y="117" on="1"/>
        <pt x="267" y="58" on="0"/>
      </contour>
      <contour>
        <pt x="300" y="844" on="0"/>
        <pt x="276" y="825" on="0"/>
        <pt x="231" y="825" on="0"/>
        <pt x="208" y="844" on="0"/>
        <pt x="204" y="864" on="0"/>
        <pt x="204" y="898" on="0"/>
        <pt x="208" y="919" on="0"/>
        <pt x="231" y="938" on="0"/>
        <pt x="286" y="938" on="0"/>
        <pt x="304" y="908" on="0"/>
        <pt x="304" y="864" on="0"/>
      </contour>
      <contour>
        <pt x="512" y="844" on="0"/>
        <pt x="488" y="825" on="0"/>
        <pt x="443" y="825" on="0"/>
        <pt x="420" y="844" on="0"/>
        <pt x="416" y="864" on="0"/>
        <pt x="416" y="898" on="0"/>
        <pt x="420" y="919" on="0"/>
        <pt x="443" y="938" on="0"/>
        <pt x="498" y="938" on="0"/>
        <pt x="516" y="908" on="0"/>
        <pt x="516" y="864" on="0"/>
      </contour>
    </TTGlyph>
    <TTGlyph name="Ograve" xMin="74" yMin="-14" xMax="647" yMax="985">
      <contour>
        <pt x="560" y="43" on="0"/>
        <pt x="444" y="-14" on="0"/>
        <pt x="275" y="-14" on="0"/>
        <pt x="160" y="42" on="0"/>
        <pt x="99" y="151" on="0"/>
        <pt x="74" y="279" on="0"/>
        <pt x="74" y="432" on="0"/>
        <pt x="88" y="539" on="0"/>
        <pt x="127" y="639" on="0"/>
        <pt x="158" y="672" on="1"/>
        <pt x="227" y="744" on="0"/>
        <pt x="360" y="744" on="1"/>
        <pt x="528" y="744" on="0"/>
        <pt x="591" y="632" on="1"/>
        <pt x="622" y="578" on="0"/>
        <pt x="647" y="450" on="0"/>
        <pt x="647" y="279" on="0"/>
        <pt x="622" y="151" on="0"/>
      </contour>
      <contour>
        <pt x="366" y="58" on="1"/>
        <pt x="418" y="58" on="0"/>
        <pt x="499" y="105" on="0"/>
        <pt x="541" y="192" on="0"/>
        <pt x="559" y="297" on="0"/>
        <pt x="559" y="433" on="0"/>
        <pt x="541" y="538" on="0"/>
        <pt x="520" y="582" on="1"/>
        <pt x="476" y="672" on="0"/>
        <pt x="360" y="672" on="1"/>
        <pt x="267" y="672" on="0"/>
        <pt x="220" y="613" on="1"/>
        <pt x="162" y="540" on="0"/>
        <pt x="162" y="190" on="0"/>
        <pt x="220" y="117" on="1"/>
        <pt x="267" y="58" on="0"/>
      </contour>
      <contour>
        <pt x="469" y="829" on="1"/>
        <pt x="430" y="783" on="1"/>
        <pt x="247" y="921" on="1"/>
        <pt x="301" y="985" on="1"/>
      </contour>
    </TTGlyph>
    <TTGlyph name="Omega" xMin="72" yMin="0" xMax="737" yMax="745">
      <contour>
        <pt x="649" y="546" on="0"/>
        <pt x="540" y="673" on="0"/>
        <pt x="269" y="673" on="0"/>
        <pt x="160" y="546" on="0"/>
        <pt x="160" y="421" on="1"/>
        <pt x="160" y="331" on="0"/>
        <pt x="226" y="222" on="0"/>
        <pt x="306" y="203" on="1"/>
        <pt x="306" y="0" on="1"/>
        <pt x="100" y="0" on="1"/>
        <pt x="100" y="60" on="1"/>
        <pt x="231" y="60" on="1"/>
        <pt x="231" y="159" on="1"/>
        <pt x="148" y="193" on="0"/>
        <pt x="72" y="326" on="0"/>
        <pt x="72" y="427" on="1"/>
        <pt x="72" y="582" on="0"/>
        <pt x="229" y="745" on="0"/>
        <pt x="580" y="745" on="0"/>
        <pt x="737" y="582" on="0"/>
        <pt x="737" y="427" on="1"/>
        <pt x="737" y="224" on="0"/>
        <pt x="577" y="158" on="1"/>
        <pt x="577" y="60" on="1"/>
        <pt x="709" y="60" on="1"/>
        <pt x="709" y="0" on="1"/>
        <pt x="503" y="0" on="1"/>
        <pt x="503" y="203" on="1"/>
        <pt x="583" y="222" on="0"/>
        <pt x="649" y="331" on="0"/>
        <pt x="649" y="421" on="1"/>
      </contour>
    </TTGlyph>
    <TTGlyph name="Oslash" xMin="74" yMin="-94" xMax="647" yMax="827">
      <contour>
        <pt x="74" y="365" on="1"/>
        <pt x="74" y="583" on="0"/>
        <pt x="158" y="672" on="1"/>
        <pt x="227" y="744" on="0"/>
        <pt x="360" y="744" on="1"/>
        <pt x="382" y="744" on="0"/>
        <pt x="416" y="740" on="1"/>
        <pt x="437" y="827" on="1"/>
        <pt x="498" y="827" on="1"/>
        <pt x="474" y="726" on="1"/>
        <pt x="572" y="693" on="0"/>
        <pt x="612" y="590" on="1"/>
        <pt x="647" y="500" on="0"/>
        <pt x="647" y="365" on="1"/>
        <pt x="647" y="279" on="0"/>
        <pt x="622" y="151" on="0"/>
        <pt x="591" y="97" on="1"/>
        <pt x="527" y="-14" on="0"/>
        <pt x="360" y="-14" on="1"/>
        <pt x="338" y="-14" on="0"/>
        <pt x="302" y="-10" on="1"/>
        <pt x="283" y="-94" on="1"/>
        <pt x="223" y="-94" on="1"/>
        <pt x="245" y="3" on="1"/>
        <pt x="150" y="37" on="0"/>
        <pt x="74" y="221" on="0"/>
      </contour>
      <contour>
        <pt x="360" y="58" on="1"/>
        <pt x="476" y="58" on="0"/>
        <pt x="520" y="148" on="1"/>
        <pt x="559" y="229" on="0"/>
        <pt x="559" y="365" on="1"/>
        <pt x="559" y="590" on="0"/>
        <pt x="456" y="649" on="1"/>
        <pt x="319" y="61" on="1"/>
        <pt x="337" y="58" on="0"/>
      </contour>
      <contour>
        <pt x="162" y="365" on="1"/>
        <pt x="162" y="138" on="0"/>
        <pt x="263" y="80" on="1"/>
        <pt x="400" y="668" on="1"/>
        <pt x="374" y="672" on="0"/>
        <pt x="360" y="672" on="1"/>
        <pt x="267" y="672" on="0"/>
        <pt x="220" y="613" on="1"/>
        <pt x="162" y="540" on="0"/>
      </contour>
    </TTGlyph>
    <TTGlyph name="Otilde" xMin="74" yMin="-14" xMax="647" yMax="948">
      <contour>
        <pt x="560" y="43" on="0"/>
        <pt x="444" y="-14" on="0"/>
        <pt x="275" y="-14" on="0"/>
        <pt x="160" y="42" on="0"/>
        <pt x="99" y="151" on="0"/>
        <pt x="74" y="279" on="0"/>
        <pt x="74" y="432" on="0"/>
        <pt x="88" y="539" on="0"/>
        <pt x="127" y="639" on="0"/>
        <pt x="158" y="672" on="1"/>
        <pt x="227" y="744" on="0"/>
        <pt x="360" y="744" on="1"/>
        <pt x="528" y="744" on="0"/>
        <pt x="591" y="632" on="1"/>
        <pt x="622" y="578" on="0"/>
        <pt x="647" y="450" on="0"/>
        <pt x="647" y="279" on="0"/>
        <pt x="622" y="151" on="0"/>
      </contour>
      <contour>
        <pt x="366" y="58" on="1"/>
        <pt x="418" y="58" on="0"/>
        <pt x="499" y="105" on="0"/>
        <pt x="541" y="192" on="0"/>
        <pt x="559" y="297" on="0"/>
        <pt x="559" y="433" on="0"/>
        <pt x="541" y="538" on="0"/>
        <pt x="520" y="582" on="1"/>
        <pt x="476" y="672" on="0"/>
        <pt x="360" y="672" on="1"/>
        <pt x="267" y="672" on="0"/>
        <pt x="220" y="613" on="1"/>
        <pt x="162" y="540" on="0"/>
        <pt x="162" y="190" on="0"/>
        <pt x="220" y="117" on="1"/>
        <pt x="267" y="58" on="0"/>
      </contour>
      <contour>
        <pt x="525" y="930" on="1"/>
        <pt x="498" y="831" on="0"/>
        <pt x="436" y="831" on="1"/>
        <pt x="408" y="831" on="0"/>
        <pt x="311" y="867" on="0"/>
        <pt x="280" y="867" on="0"/>
        <pt x="260" y="846" on="0"/>
        <pt x="252" y="823" on="1"/>
        <pt x="195" y="841" on="1"/>
        <pt x="210" y="895" on="0"/>
        <pt x="255" y="940" on="0"/>
        <pt x="312" y="940" on="0"/>
        <pt x="410" y="904" on="0"/>
        <pt x="441" y="904" on="0"/>
        <pt x="461" y="924" on="0"/>
        <pt x="469" y="948" on="1"/>
      </contour>
    </TTGlyph>
    <TTGlyph name="P" xMin="106" yMin="0" xMax="547" yMax="730">
      <contour>
        <pt x="321" y="271" on="1"/>
        <pt x="194" y="271" on="1"/>
        <pt x="194" y="0" on="1"/>
        <pt x="106" y="0" on="1"/>
        <pt x="106" y="730" on="1"/>
        <pt x="321" y="730" on="1"/>
        <pt x="547" y="730" on="0"/>
        <pt x="547" y="271" on="0"/>
      </contour>
      <contour>
        <pt x="194" y="341" on="1"/>
        <pt x="316" y="341" on="1"/>
        <pt x="459" y="341" on="0"/>
        <pt x="459" y="660" on="0"/>
        <pt x="316" y="660" on="1"/>
        <pt x="194" y="660" on="1"/>
      </contour>
    </TTGlyph>
    <TTGlyph name="Q" xMin="74" yMin="-139" xMax="637" yMax="744">
      <contour>
        <pt x="74" y="365" on="1"/>
        <pt x="74" y="598" on="0"/>
        <pt x="158" y="678" on="1"/>
        <pt x="225" y="744" on="0"/>
        <pt x="355" y="744" on="1"/>
        <pt x="521" y="744" on="0"/>
        <pt x="582" y="642" on="1"/>
        <pt x="612" y="590" on="0"/>
        <pt x="637" y="459" on="0"/>
        <pt x="637" y="365" on="1"/>
        <pt x="637" y="207" on="0"/>
        <pt x="559" y="27" on="0"/>
        <pt x="459" y="-1" on="1"/>
        <pt x="618" y="-72" on="1"/>
        <pt x="582" y="-139" on="1"/>
        <pt x="327" y="-13" on="1"/>
        <pt x="182" y="-5" on="0"/>
        <pt x="74" y="180" on="0"/>
      </contour>
      <contour>
        <pt x="162" y="210" on="0"/>
        <pt x="244" y="58" on="0"/>
        <pt x="465" y="58" on="0"/>
        <pt x="549" y="211" on="0"/>
        <pt x="549" y="519" on="0"/>
        <pt x="465" y="672" on="0"/>
        <pt x="244" y="672" on="0"/>
        <pt x="162" y="520" on="0"/>
      </contour>
    </TTGlyph>
    <TTGlyph name="R" xMin="106" yMin="0" xMax="581" yMax="730">
      <contour>
        <pt x="106" y="730" on="1"/>
        <pt x="327" y="730" on="1"/>
        <pt x="392" y="730" on="0"/>
        <pt x="485" y="692" on="0"/>
        <pt x="508" y="659" on="1"/>
        <pt x="551" y="597" on="0"/>
        <pt x="551" y="515" on="1"/>
        <pt x="551" y="358" on="0"/>
        <pt x="425" y="315" on="1"/>
        <pt x="452" y="295" on="0"/>
        <pt x="473" y="249" on="1"/>
        <pt x="581" y="0" on="1"/>
        <pt x="487" y="0" on="1"/>
        <pt x="386" y="237" on="1"/>
        <pt x="370" y="273" on="0"/>
        <pt x="322" y="299" on="0"/>
        <pt x="279" y="301" on="1"/>
        <pt x="194" y="301" on="1"/>
        <pt x="194" y="0" on="1"/>
        <pt x="106" y="0" on="1"/>
      </contour>
      <contour>
        <pt x="194" y="371" on="1"/>
        <pt x="323" y="371" on="1"/>
        <pt x="396" y="371" on="0"/>
        <pt x="463" y="454" on="0"/>
        <pt x="463" y="577" on="0"/>
        <pt x="396" y="660" on="0"/>
        <pt x="323" y="660" on="1"/>
        <pt x="194" y="660" on="1"/>
      </contour>
    </TTGlyph>
    <TTGlyph name="S" xMin="56" yMin="-14" xMax="542" yMax="744">
      <contour>
        <pt x="455" y="366" on="0"/>
        <pt x="542" y="280" on="0"/>
        <pt x="542" y="101" on="0"/>
        <pt x="417" y="-14" on="0"/>
        <pt x="180" y="-14" on="0"/>
        <pt x="70" y="84" on="0"/>
        <pt x="56" y="176" on="1"/>
        <pt x="128" y="189" on="1"/>
        <pt x="147" y="57" on="0"/>
        <pt x="291" y="57" on="1"/>
        <pt x="454" y="57" on="0"/>
        <pt x="454" y="186" on="1"/>
        <pt x="454" y="242" on="0"/>
        <pt x="394" y="296" on="0"/>
        <pt x="324" y="315" on="1"/>
        <pt x="258" y="334" on="1"/>
        <pt x="155" y="362" on="0"/>
        <pt x="71" y="449" on="0"/>
        <pt x="71" y="628" on="0"/>
        <pt x="191" y="744" on="0"/>
        <pt x="420" y="744" on="0"/>
        <pt x="524" y="646" on="0"/>
        <pt x="538" y="554" on="1"/>
        <pt x="466" y="541" on="1"/>
        <pt x="447" y="673" on="0"/>
        <pt x="314" y="673" on="1"/>
        <pt x="159" y="673" on="0"/>
        <pt x="159" y="544" on="1"/>
        <pt x="159" y="488" on="0"/>
        <pt x="214" y="433" on="0"/>
        <pt x="280" y="415" on="1"/>
        <pt x="349" y="396" on="1"/>
      </contour>
    </TTGlyph>
    <TTGlyph name="Scaron" xMin="56" yMin="-14" xMax="542" yMax="977">
      <contour>
        <pt x="455" y="366" on="0"/>
        <pt x="542" y="280" on="0"/>
        <pt x="542" y="101" on="0"/>
        <pt x="417" y="-14" on="0"/>
        <pt x="180" y="-14" on="0"/>
        <pt x="70" y="84" on="0"/>
        <pt x="56" y="176" on="1"/>
        <pt x="128" y="189" on="1"/>
        <pt x="147" y="57" on="0"/>
        <pt x="291" y="57" on="1"/>
        <pt x="454" y="57" on="0"/>
        <pt x="454" y="186" on="1"/>
        <pt x="454" y="242" on="0"/>
        <pt x="394" y="296" on="0"/>
        <pt x="324" y="315" on="1"/>
        <pt x="258" y="334" on="1"/>
        <pt x="155" y="362" on="0"/>
        <pt x="71" y="449" on="0"/>
        <pt x="71" y="628" on="0"/>
        <pt x="191" y="744" on="0"/>
        <pt x="420" y="744" on="0"/>
        <pt x="524" y="646" on="0"/>
        <pt x="538" y="554" on="1"/>
        <pt x="466" y="541" on="1"/>
        <pt x="447" y="673" on="0"/>
        <pt x="314" y="673" on="1"/>
        <pt x="159" y="673" on="0"/>
        <pt x="159" y="544" on="1"/>
        <pt x="159" y="488" on="0"/>
        <pt x="214" y="433" on="0"/>
        <pt x="280" y="415" on="1"/>
        <pt x="349" y="396" on="1"/>
      </contour>
      <contour>
        <pt x="421" y="977" on="1"/>
        <pt x="457" y="941" on="1"/>
        <pt x="323" y="788" on="1"/>
        <pt x="286" y="788" on="1"/>
        <pt x="152" y="941" on="1"/>
        <pt x="188" y="977" on="1"/>
        <pt x="305" y="881" on="1"/>
      </contour>
    </TTGlyph>
    <TTGlyph name="T" xMin="7" yMin="0" xMax="487" yMax="730">
      <contour>
        <pt x="7" y="660" on="1"/>
        <pt x="7" y="730" on="1"/>
        <pt x="487" y="730" on="1"/>
        <pt x="487" y="660" on="1"/>
        <pt x="291" y="660" on="1"/>
        <pt x="291" y="0" on="1"/>
        <pt x="203" y="0" on="1"/>
        <pt x="203" y="660" on="1"/>
      </contour>
    </TTGlyph>
    <TTGlyph name="Thorn" xMin="106" yMin="0" xMax="539" yMax="730">
      <contour>
        <pt x="318" y="137" on="1"/>
        <pt x="194" y="137" on="1"/>
        <pt x="194" y="0" on="1"/>
        <pt x="106" y="0" on="1"/>
        <pt x="106" y="730" on="1"/>
        <pt x="194" y="730" on="1"/>
        <pt x="194" y="592" on="1"/>
        <pt x="318" y="592" on="1"/>
        <pt x="539" y="592" on="0"/>
        <pt x="539" y="137" on="0"/>
      </contour>
      <contour>
        <pt x="194" y="213" on="1"/>
        <pt x="313" y="213" on="1"/>
        <pt x="367" y="213" on="0"/>
        <pt x="431" y="257" on="0"/>
        <pt x="451" y="319" on="0"/>
        <pt x="451" y="434" on="0"/>
        <pt x="392" y="516" on="0"/>
        <pt x="313" y="516" on="1"/>
        <pt x="194" y="516" on="1"/>
      </contour>
    </TTGlyph>
    <TTGlyph name="U" xMin="91" yMin="-14" xMax="606" yMax="730">
      <contour>
        <pt x="518" y="730" on="1"/>
        <pt x="606" y="730" on="1"/>
        <pt x="606" y="241" on="1"/>
        <pt x="606" y="174" on="0"/>
        <pt x="574" y="78" on="0"/>
        <pt x="527" y="25" on="0"/>
        <pt x="453" y="-6" on="0"/>
        <pt x="390" y="-14" on="0"/>
        <pt x="306" y="-14" on="0"/>
        <pt x="243" y="-6" on="0"/>
        <pt x="170" y="25" on="0"/>
        <pt x="123" y="78" on="0"/>
        <pt x="91" y="174" on="0"/>
        <pt x="91" y="241" on="1"/>
        <pt x="91" y="730" on="1"/>
        <pt x="179" y="730" on="1"/>
        <pt x="179" y="244" on="1"/>
        <pt x="179" y="128" on="0"/>
        <pt x="234" y="90" on="1"/>
        <pt x="261" y="72" on="0"/>
        <pt x="313" y="60" on="0"/>
        <pt x="384" y="60" on="0"/>
        <pt x="436" y="72" on="0"/>
        <pt x="463" y="90" on="1"/>
        <pt x="518" y="127" on="0"/>
        <pt x="518" y="244" on="1"/>
      </contour>
    </TTGlyph>
    <TTGlyph name="Uacute" xMin="91" yMin="-14" xMax="606" yMax="985">
      <contour>
        <pt x="518" y="730" on="1"/>
        <pt x="606" y="730" on="1"/>
        <pt x="606" y="241" on="1"/>
        <pt x="606" y="174" on="0"/>
        <pt x="574" y="78" on="0"/>
        <pt x="527" y="25" on="0"/>
        <pt x="453" y="-6" on="0"/>
        <pt x="390" y="-14" on="0"/>
        <pt x="306" y="-14" on="0"/>
        <pt x="243" y="-6" on="0"/>
        <pt x="170" y="25" on="0"/>
        <pt x="123" y="78" on="0"/>
        <pt x="91" y="174" on="0"/>
        <pt x="91" y="241" on="1"/>
        <pt x="91" y="730" on="1"/>
        <pt x="179" y="730" on="1"/>
        <pt x="179" y="244" on="1"/>
        <pt x="179" y="128" on="0"/>
        <pt x="234" y="90" on="1"/>
        <pt x="261" y="72" on="0"/>
        <pt x="313" y="60" on="0"/>
        <pt x="384" y="60" on="0"/>
        <pt x="436" y="72" on="0"/>
        <pt x="463" y="90" on="1"/>
        <pt x="518" y="127" on="0"/>
        <pt x="518" y="244" on="1"/>
      </contour>
      <contour>
        <pt x="335" y="783" on="1"/>
        <pt x="296" y="829" on="1"/>
        <pt x="464" y="985" on="1"/>
        <pt x="518" y="921" on="1"/>
      </contour>
    </TTGlyph>
    <TTGlyph name="Ucircumflex" xMin="91" yMin="-14" xMax="606" yMax="979">
      <contour>
        <pt x="518" y="730" on="1"/>
        <pt x="606" y="730" on="1"/>
        <pt x="606" y="241" on="1"/>
        <pt x="606" y="174" on="0"/>
        <pt x="574" y="78" on="0"/>
        <pt x="527" y="25" on="0"/>
        <pt x="453" y="-6" on="0"/>
        <pt x="390" y="-14" on="0"/>
        <pt x="306" y="-14" on="0"/>
        <pt x="243" y="-6" on="0"/>
        <pt x="170" y="25" on="0"/>
        <pt x="123" y="78" on="0"/>
        <pt x="91" y="174" on="0"/>
        <pt x="91" y="241" on="1"/>
        <pt x="91" y="730" on="1"/>
        <pt x="179" y="730" on="1"/>
        <pt x="179" y="244" on="1"/>
        <pt x="179" y="128" on="0"/>
        <pt x="234" y="90" on="1"/>
        <pt x="261" y="72" on="0"/>
        <pt x="313" y="60" on="0"/>
        <pt x="384" y="60" on="0"/>
        <pt x="436" y="72" on="0"/>
        <pt x="463" y="90" on="1"/>
        <pt x="518" y="127" on="0"/>
        <pt x="518" y="244" on="1"/>
      </contour>
      <contour>
        <pt x="238" y="790" on="1"/>
        <pt x="202" y="826" on="1"/>
        <pt x="336" y="979" on="1"/>
        <pt x="373" y="979" on="1"/>
        <pt x="507" y="826" on="1"/>
        <pt x="471" y="790" on="1"/>
        <pt x="354" y="886" on="1"/>
      </contour>
    </TTGlyph>
    <TTGlyph name="Udieresis" xMin="91" yMin="-14" xMax="606" yMax="938">
      <contour>
        <pt x="518" y="730" on="1"/>
        <pt x="606" y="730" on="1"/>
        <pt x="606" y="241" on="1"/>
        <pt x="606" y="174" on="0"/>
        <pt x="574" y="78" on="0"/>
        <pt x="527" y="25" on="0"/>
        <pt x="453" y="-6" on="0"/>
        <pt x="390" y="-14" on="0"/>
        <pt x="306" y="-14" on="0"/>
        <pt x="243" y="-6" on="0"/>
        <pt x="170" y="25" on="0"/>
        <pt x="123" y="78" on="0"/>
        <pt x="91" y="174" on="0"/>
        <pt x="91" y="241" on="1"/>
        <pt x="91" y="730" on="1"/>
        <pt x="179" y="730" on="1"/>
        <pt x="179" y="244" on="1"/>
        <pt x="179" y="128" on="0"/>
        <pt x="234" y="90" on="1"/>
        <pt x="261" y="72" on="0"/>
        <pt x="313" y="60" on="0"/>
        <pt x="384" y="60" on="0"/>
        <pt x="436" y="72" on="0"/>
        <pt x="463" y="90" on="1"/>
        <pt x="518" y="127" on="0"/>
        <pt x="518" y="244" on="1"/>
      </contour>
      <contour>
        <pt x="295" y="844" on="0"/>
        <pt x="271" y="825" on="0"/>
        <pt x="226" y="825" on="0"/>
        <pt x="203" y="844" on="0"/>
        <pt x="199" y="864" on="0"/>
        <pt x="199" y="898" on="0"/>
        <pt x="203" y="919" on="0"/>
        <pt x="226" y="938" on="0"/>
        <pt x="281" y="938" on="0"/>
        <pt x="299" y="908" on="0"/>
        <pt x="299" y="864" on="0"/>
      </contour>
      <contour>
        <pt x="507" y="844" on="0"/>
        <pt x="483" y="825" on="0"/>
        <pt x="438" y="825" on="0"/>
        <pt x="415" y="844" on="0"/>
        <pt x="411" y="864" on="0"/>
        <pt x="411" y="898" on="0"/>
        <pt x="415" y="919" on="0"/>
        <pt x="438" y="938" on="0"/>
        <pt x="493" y="938" on="0"/>
        <pt x="511" y="908" on="0"/>
        <pt x="511" y="864" on="0"/>
      </contour>
    </TTGlyph>
    <TTGlyph name="Ugrave" xMin="91" yMin="-14" xMax="606" yMax="985">
      <contour>
        <pt x="518" y="730" on="1"/>
        <pt x="606" y="730" on="1"/>
        <pt x="606" y="241" on="1"/>
        <pt x="606" y="174" on="0"/>
        <pt x="574" y="78" on="0"/>
        <pt x="527" y="25" on="0"/>
        <pt x="453" y="-6" on="0"/>
        <pt x="390" y="-14" on="0"/>
        <pt x="306" y="-14" on="0"/>
        <pt x="243" y="-6" on="0"/>
        <pt x="170" y="25" on="0"/>
        <pt x="123" y="78" on="0"/>
        <pt x="91" y="174" on="0"/>
        <pt x="91" y="241" on="1"/>
        <pt x="91" y="730" on="1"/>
        <pt x="179" y="730" on="1"/>
        <pt x="179" y="244" on="1"/>
        <pt x="179" y="128" on="0"/>
        <pt x="234" y="90" on="1"/>
        <pt x="261" y="72" on="0"/>
        <pt x="313" y="60" on="0"/>
        <pt x="384" y="60" on="0"/>
        <pt x="436" y="72" on="0"/>
        <pt x="463" y="90" on="1"/>
        <pt x="518" y="127" on="0"/>
        <pt x="518" y="244" on="1"/>
      </contour>
      <contour>
        <pt x="434" y="829" on="1"/>
        <pt x="395" y="783" on="1"/>
        <pt x="212" y="921" on="1"/>
        <pt x="266" y="985" on="1"/>
      </contour>
    </TTGlyph>
    <TTGlyph name="V" xMin="25" yMin="0" xMax="587" yMax="730">
      <contour>
        <pt x="365" y="0" on="1"/>
        <pt x="248" y="0" on="1"/>
        <pt x="25" y="730" on="1"/>
        <pt x="115" y="730" on="1"/>
        <pt x="306" y="83" on="1"/>
        <pt x="498" y="730" on="1"/>
        <pt x="587" y="730" on="1"/>
      </contour>
    </TTGlyph>
    <TTGlyph name="W" xMin="28" yMin="0" xMax="843" yMax="730">
      <contour>
        <pt x="315" y="0" on="1"/>
        <pt x="187" y="0" on="1"/>
        <pt x="28" y="730" on="1"/>
        <pt x="118" y="730" on="1"/>
        <pt x="253" y="82" on="1"/>
        <pt x="392" y="730" on="1"/>
        <pt x="479" y="730" on="1"/>
        <pt x="617" y="82" on="1"/>
        <pt x="753" y="730" on="1"/>
        <pt x="843" y="730" on="1"/>
        <pt x="684" y="0" on="1"/>
        <pt x="556" y="0" on="1"/>
        <pt x="435" y="556" on="1"/>
      </contour>
    </TTGlyph>
    <TTGlyph name="X" xMin="27" yMin="0" xMax="608" yMax="730">
      <contour>
        <pt x="40" y="730" on="1"/>
        <pt x="140" y="730" on="1"/>
        <pt x="321" y="447" on="1"/>
        <pt x="493" y="730" on="1"/>
        <pt x="589" y="730" on="1"/>
        <pt x="368" y="374" on="1"/>
        <pt x="608" y="0" on="1"/>
        <pt x="508" y="0" on="1"/>
        <pt x="310" y="308" on="1"/>
        <pt x="124" y="0" on="1"/>
        <pt x="27" y="0" on="1"/>
        <pt x="263" y="382" on="1"/>
      </contour>
    </TTGlyph>
    <TTGlyph name="Y" xMin="6" yMin="0" xMax="544" yMax="730">
      <contour>
        <pt x="319" y="0" on="1"/>
        <pt x="231" y="0" on="1"/>
        <pt x="231" y="254" on="1"/>
        <pt x="6" y="730" on="1"/>
        <pt x="96" y="730" on="1"/>
        <pt x="275" y="340" on="1"/>
        <pt x="454" y="730" on="1"/>
        <pt x="544" y="730" on="1"/>
        <pt x="319" y="254" on="1"/>
      </contour>
    </TTGlyph>
    <TTGlyph name="Yacute" xMin="6" yMin="0" xMax="544" yMax="985">
      <contour>
        <pt x="319" y="0" on="1"/>
        <pt x="231" y="0" on="1"/>
        <pt x="231" y="254" on="1"/>
        <pt x="6" y="730" on="1"/>
        <pt x="96" y="730" on="1"/>
        <pt x="275" y="340" on="1"/>
        <pt x="454" y="730" on="1"/>
        <pt x="544" y="730" on="1"/>
        <pt x="319" y="254" on="1"/>
      </contour>
      <contour>
        <pt x="224" y="783" on="1"/>
        <pt x="185" y="829" on="1"/>
        <pt x="353" y="985" on="1"/>
        <pt x="407" y="921" on="1"/>
      </contour>
    </TTGlyph>
    <TTGlyph name="Ydieresis" xMin="6" yMin="0" xMax="544" yMax="938">
      <contour>
        <pt x="319" y="0" on="1"/>
        <pt x="231" y="0" on="1"/>
        <pt x="231" y="254" on="1"/>
        <pt x="6" y="730" on="1"/>
        <pt x="96" y="730" on="1"/>
        <pt x="275" y="340" on="1"/>
        <pt x="454" y="730" on="1"/>
        <pt x="544" y="730" on="1"/>
        <pt x="319" y="254" on="1"/>
      </contour>
      <contour>
        <pt x="215" y="844" on="0"/>
        <pt x="191" y="825" on="0"/>
        <pt x="146" y="825" on="0"/>
        <pt x="123" y="844" on="0"/>
        <pt x="119" y="864" on="0"/>
        <pt x="119" y="898" on="0"/>
        <pt x="123" y="919" on="0"/>
        <pt x="146" y="938" on="0"/>
        <pt x="201" y="938" on="0"/>
        <pt x="219" y="908" on="0"/>
        <pt x="219" y="864" on="0"/>
      </contour>
      <contour>
        <pt x="427" y="844" on="0"/>
        <pt x="403" y="825" on="0"/>
        <pt x="358" y="825" on="0"/>
        <pt x="335" y="844" on="0"/>
        <pt x="331" y="864" on="0"/>
        <pt x="331" y="898" on="0"/>
        <pt x="335" y="919" on="0"/>
        <pt x="358" y="938" on="0"/>
        <pt x="413" y="938" on="0"/>
        <pt x="431" y="908" on="0"/>
        <pt x="431" y="864" on="0"/>
      </contour>
    </TTGlyph>
    <TTGlyph name="Z" xMin="28" yMin="0" xMax="521" yMax="730">
      <contour>
        <pt x="511" y="730" on="1"/>
        <pt x="511" y="674" on="1"/>
        <pt x="135" y="70" on="1"/>
        <pt x="521" y="70" on="1"/>
        <pt x="521" y="0" on="1"/>
        <pt x="28" y="0" on="1"/>
        <pt x="28" y="56" on="1"/>
        <pt x="404" y="660" on="1"/>
        <pt x="47" y="660" on="1"/>
        <pt x="48" y="730" on="1"/>
      </contour>
    </TTGlyph>
    <TTGlyph name="Zcaron" xMin="28" yMin="0" xMax="521" yMax="977">
      <contour>
        <pt x="511" y="730" on="1"/>
        <pt x="511" y="674" on="1"/>
        <pt x="135" y="70" on="1"/>
        <pt x="521" y="70" on="1"/>
        <pt x="521" y="0" on="1"/>
        <pt x="28" y="0" on="1"/>
        <pt x="28" y="56" on="1"/>
        <pt x="404" y="660" on="1"/>
        <pt x="47" y="660" on="1"/>
        <pt x="48" y="730" on="1"/>
      </contour>
      <contour>
        <pt x="401" y="977" on="1"/>
        <pt x="437" y="941" on="1"/>
        <pt x="303" y="788" on="1"/>
        <pt x="266" y="788" on="1"/>
        <pt x="132" y="941" on="1"/>
        <pt x="168" y="977" on="1"/>
        <pt x="285" y="881" on="1"/>
      </contour>
    </TTGlyph>
    <TTGlyph name="a" xMin="53" yMin="-14" xMax="490" yMax="586">
      <contour>
        <pt x="430" y="548" on="1"/>
        <pt x="490" y="505" on="0"/>
        <pt x="490" y="386" on="1"/>
        <pt x="490" y="0" on="1"/>
        <pt x="433" y="0" on="1"/>
        <pt x="411" y="89" on="1"/>
        <pt x="315" y="-14" on="0"/>
        <pt x="200" y="-14" on="1"/>
        <pt x="124" y="-14" on="0"/>
        <pt x="53" y="66" on="0"/>
        <pt x="53" y="202" on="0"/>
        <pt x="138" y="286" on="0"/>
        <pt x="255" y="305" on="1"/>
        <pt x="404" y="329" on="1"/>
        <pt x="404" y="386" on="1"/>
        <pt x="404" y="460" on="0"/>
        <pt x="341" y="516" on="0"/>
        <pt x="286" y="516" on="1"/>
        <pt x="176" y="516" on="0"/>
        <pt x="155" y="409" on="1"/>
        <pt x="85" y="430" on="1"/>
        <pt x="101" y="504" on="0"/>
        <pt x="203" y="586" on="0"/>
        <pt x="378" y="586" on="0"/>
      </contour>
      <contour>
        <pt x="224" y="52" on="1"/>
        <pt x="314" y="52" on="0"/>
        <pt x="404" y="149" on="1"/>
        <pt x="404" y="269" on="1"/>
        <pt x="263" y="245" on="1"/>
        <pt x="192" y="232" on="0"/>
        <pt x="138" y="177" on="0"/>
        <pt x="138" y="98" on="0"/>
        <pt x="180" y="52" on="0"/>
      </contour>
    </TTGlyph>
    <TTGlyph name="aacute" xMin="53" yMin="-14" xMax="490" yMax="827">
      <contour>
        <pt x="430" y="548" on="1"/>
        <pt x="490" y="505" on="0"/>
        <pt x="490" y="386" on="1"/>
        <pt x="490" y="0" on="1"/>
        <pt x="433" y="0" on="1"/>
        <pt x="411" y="89" on="1"/>
        <pt x="315" y="-14" on="0"/>
        <pt x="200" y="-14" on="1"/>
        <pt x="124" y="-14" on="0"/>
        <pt x="53" y="66" on="0"/>
        <pt x="53" y="202" on="0"/>
        <pt x="138" y="286" on="0"/>
        <pt x="255" y="305" on="1"/>
        <pt x="404" y="329" on="1"/>
        <pt x="404" y="386" on="1"/>
        <pt x="404" y="460" on="0"/>
        <pt x="341" y="516" on="0"/>
        <pt x="286" y="516" on="1"/>
        <pt x="176" y="516" on="0"/>
        <pt x="155" y="409" on="1"/>
        <pt x="85" y="430" on="1"/>
        <pt x="101" y="504" on="0"/>
        <pt x="203" y="586" on="0"/>
        <pt x="378" y="586" on="0"/>
      </contour>
      <contour>
        <pt x="224" y="52" on="1"/>
        <pt x="314" y="52" on="0"/>
        <pt x="404" y="149" on="1"/>
        <pt x="404" y="269" on="1"/>
        <pt x="263" y="245" on="1"/>
        <pt x="192" y="232" on="0"/>
        <pt x="138" y="177" on="0"/>
        <pt x="138" y="98" on="0"/>
        <pt x="180" y="52" on="0"/>
      </contour>
      <contour>
        <pt x="260" y="625" on="1"/>
        <pt x="221" y="671" on="1"/>
        <pt x="389" y="827" on="1"/>
        <pt x="443" y="763" on="1"/>
      </contour>
    </TTGlyph>
    <TTGlyph name="acircumflex" xMin="53" yMin="-14" xMax="490" yMax="821">
      <contour>
        <pt x="430" y="548" on="1"/>
        <pt x="490" y="505" on="0"/>
        <pt x="490" y="386" on="1"/>
        <pt x="490" y="0" on="1"/>
        <pt x="433" y="0" on="1"/>
        <pt x="411" y="89" on="1"/>
        <pt x="315" y="-14" on="0"/>
        <pt x="200" y="-14" on="1"/>
        <pt x="124" y="-14" on="0"/>
        <pt x="53" y="66" on="0"/>
        <pt x="53" y="202" on="0"/>
        <pt x="138" y="286" on="0"/>
        <pt x="255" y="305" on="1"/>
        <pt x="404" y="329" on="1"/>
        <pt x="404" y="386" on="1"/>
        <pt x="404" y="460" on="0"/>
        <pt x="341" y="516" on="0"/>
        <pt x="286" y="516" on="1"/>
        <pt x="176" y="516" on="0"/>
        <pt x="155" y="409" on="1"/>
        <pt x="85" y="430" on="1"/>
        <pt x="101" y="504" on="0"/>
        <pt x="203" y="586" on="0"/>
        <pt x="378" y="586" on="0"/>
      </contour>
      <contour>
        <pt x="224" y="52" on="1"/>
        <pt x="314" y="52" on="0"/>
        <pt x="404" y="149" on="1"/>
        <pt x="404" y="269" on="1"/>
        <pt x="263" y="245" on="1"/>
        <pt x="192" y="232" on="0"/>
        <pt x="138" y="177" on="0"/>
        <pt x="138" y="98" on="0"/>
        <pt x="180" y="52" on="0"/>
      </contour>
      <contour>
        <pt x="168" y="632" on="1"/>
        <pt x="132" y="668" on="1"/>
        <pt x="266" y="821" on="1"/>
        <pt x="303" y="821" on="1"/>
        <pt x="437" y="668" on="1"/>
        <pt x="401" y="632" on="1"/>
        <pt x="284" y="728" on="1"/>
      </contour>
    </TTGlyph>
    <TTGlyph name="acute" xMin="46" yMin="625" xMax="268" yMax="827">
      <contour>
        <pt x="85" y="625" on="1"/>
        <pt x="46" y="671" on="1"/>
        <pt x="214" y="827" on="1"/>
        <pt x="268" y="763" on="1"/>
      </contour>
    </TTGlyph>
    <TTGlyph name="adieresis" xMin="53" yMin="-14" xMax="490" yMax="780">
      <contour>
        <pt x="430" y="548" on="1"/>
        <pt x="490" y="505" on="0"/>
        <pt x="490" y="386" on="1"/>
        <pt x="490" y="0" on="1"/>
        <pt x="433" y="0" on="1"/>
        <pt x="411" y="89" on="1"/>
        <pt x="315" y="-14" on="0"/>
        <pt x="200" y="-14" on="1"/>
        <pt x="124" y="-14" on="0"/>
        <pt x="53" y="66" on="0"/>
        <pt x="53" y="202" on="0"/>
        <pt x="138" y="286" on="0"/>
        <pt x="255" y="305" on="1"/>
        <pt x="404" y="329" on="1"/>
        <pt x="404" y="386" on="1"/>
        <pt x="404" y="460" on="0"/>
        <pt x="341" y="516" on="0"/>
        <pt x="286" y="516" on="1"/>
        <pt x="176" y="516" on="0"/>
        <pt x="155" y="409" on="1"/>
        <pt x="85" y="430" on="1"/>
        <pt x="101" y="504" on="0"/>
        <pt x="203" y="586" on="0"/>
        <pt x="378" y="586" on="0"/>
      </contour>
      <contour>
        <pt x="224" y="52" on="1"/>
        <pt x="314" y="52" on="0"/>
        <pt x="404" y="149" on="1"/>
        <pt x="404" y="269" on="1"/>
        <pt x="263" y="245" on="1"/>
        <pt x="192" y="232" on="0"/>
        <pt x="138" y="177" on="0"/>
        <pt x="138" y="98" on="0"/>
        <pt x="180" y="52" on="0"/>
      </contour>
      <contour>
        <pt x="241" y="686" on="0"/>
        <pt x="217" y="667" on="0"/>
        <pt x="172" y="667" on="0"/>
        <pt x="149" y="686" on="0"/>
        <pt x="145" y="706" on="0"/>
        <pt x="145" y="740" on="0"/>
        <pt x="149" y="761" on="0"/>
        <pt x="172" y="780" on="0"/>
        <pt x="227" y="780" on="0"/>
        <pt x="245" y="750" on="0"/>
        <pt x="245" y="706" on="0"/>
      </contour>
      <contour>
        <pt x="453" y="686" on="0"/>
        <pt x="429" y="667" on="0"/>
        <pt x="384" y="667" on="0"/>
        <pt x="361" y="686" on="0"/>
        <pt x="357" y="706" on="0"/>
        <pt x="357" y="740" on="0"/>
        <pt x="361" y="761" on="0"/>
        <pt x="384" y="780" on="0"/>
        <pt x="439" y="780" on="0"/>
        <pt x="457" y="750" on="0"/>
        <pt x="457" y="706" on="0"/>
      </contour>
    </TTGlyph>
    <TTGlyph name="ae" xMin="52" yMin="-14" xMax="879" yMax="586">
      <contour>
        <pt x="647" y="-14" on="1"/>
        <pt x="484" y="-14" on="0"/>
        <pt x="432" y="108" on="1"/>
        <pt x="326" y="-14" on="0"/>
        <pt x="202" y="-14" on="1"/>
        <pt x="125" y="-14" on="0"/>
        <pt x="52" y="67" on="0"/>
        <pt x="52" y="202" on="0"/>
        <pt x="137" y="288" on="0"/>
        <pt x="253" y="308" on="1"/>
        <pt x="402" y="334" on="1"/>
        <pt x="402" y="386" on="1"/>
        <pt x="402" y="460" on="0"/>
        <pt x="340" y="516" on="0"/>
        <pt x="231" y="516" on="0"/>
        <pt x="163" y="460" on="0"/>
        <pt x="153" y="409" on="1"/>
        <pt x="84" y="429" on="1"/>
        <pt x="118" y="586" on="0"/>
        <pt x="286" y="586" on="1"/>
        <pt x="416" y="586" on="0"/>
        <pt x="461" y="508" on="1"/>
        <pt x="521" y="586" on="0"/>
        <pt x="643" y="586" on="1"/>
        <pt x="879" y="586" on="0"/>
        <pt x="879" y="298" on="1"/>
        <pt x="879" y="277" on="1"/>
        <pt x="489" y="277" on="1"/>
        <pt x="490" y="159" on="0"/>
        <pt x="560" y="56" on="0"/>
        <pt x="647" y="56" on="1"/>
        <pt x="789" y="56" on="0"/>
        <pt x="799" y="171" on="1"/>
        <pt x="870" y="167" on="1"/>
        <pt x="851" y="-14" on="0"/>
      </contour>
      <contour>
        <pt x="224" y="52" on="1"/>
        <pt x="325" y="52" on="0"/>
        <pt x="415" y="159" on="1"/>
        <pt x="404" y="223" on="0"/>
        <pt x="404" y="269" on="1"/>
        <pt x="262" y="243" on="1"/>
        <pt x="190" y="230" on="0"/>
        <pt x="136" y="175" on="0"/>
        <pt x="136" y="98" on="0"/>
        <pt x="179" y="52" on="0"/>
      </contour>
      <contour>
        <pt x="788" y="425" on="0"/>
        <pt x="722" y="516" on="0"/>
        <pt x="566" y="516" on="0"/>
        <pt x="498" y="423" on="0"/>
        <pt x="491" y="341" on="1"/>
        <pt x="793" y="341" on="1"/>
      </contour>
    </TTGlyph>
    <TTGlyph name="agrave" xMin="53" yMin="-14" xMax="490" yMax="827">
      <contour>
        <pt x="430" y="548" on="1"/>
        <pt x="490" y="505" on="0"/>
        <pt x="490" y="386" on="1"/>
        <pt x="490" y="0" on="1"/>
        <pt x="433" y="0" on="1"/>
        <pt x="411" y="89" on="1"/>
        <pt x="315" y="-14" on="0"/>
        <pt x="200" y="-14" on="1"/>
        <pt x="124" y="-14" on="0"/>
        <pt x="53" y="66" on="0"/>
        <pt x="53" y="202" on="0"/>
        <pt x="138" y="286" on="0"/>
        <pt x="255" y="305" on="1"/>
        <pt x="404" y="329" on="1"/>
        <pt x="404" y="386" on="1"/>
        <pt x="404" y="460" on="0"/>
        <pt x="341" y="516" on="0"/>
        <pt x="286" y="516" on="1"/>
        <pt x="176" y="516" on="0"/>
        <pt x="155" y="409" on="1"/>
        <pt x="85" y="430" on="1"/>
        <pt x="101" y="504" on="0"/>
        <pt x="203" y="586" on="0"/>
        <pt x="378" y="586" on="0"/>
      </contour>
      <contour>
        <pt x="224" y="52" on="1"/>
        <pt x="314" y="52" on="0"/>
        <pt x="404" y="149" on="1"/>
        <pt x="404" y="269" on="1"/>
        <pt x="263" y="245" on="1"/>
        <pt x="192" y="232" on="0"/>
        <pt x="138" y="177" on="0"/>
        <pt x="138" y="98" on="0"/>
        <pt x="180" y="52" on="0"/>
      </contour>
      <contour>
        <pt x="393" y="671" on="1"/>
        <pt x="354" y="625" on="1"/>
        <pt x="171" y="763" on="1"/>
        <pt x="225" y="827" on="1"/>
      </contour>
    </TTGlyph>
    <TTGlyph name="ampersand" xMin="51" yMin="-15" xMax="636" yMax="744">
      <contour>
        <pt x="286" y="673" on="1"/>
        <pt x="215" y="673" on="0"/>
        <pt x="157" y="605" on="0"/>
        <pt x="157" y="481" on="0"/>
        <pt x="223" y="401" on="0"/>
        <pt x="280" y="401" on="1"/>
        <pt x="295" y="401" on="1"/>
        <pt x="295" y="339" on="1"/>
        <pt x="210" y="339" on="0"/>
        <pt x="137" y="267" on="0"/>
        <pt x="137" y="123" on="0"/>
        <pt x="210" y="57" on="0"/>
        <pt x="374" y="57" on="0"/>
        <pt x="444" y="125" on="0"/>
        <pt x="444" y="191" on="1"/>
        <pt x="444" y="339" on="1"/>
        <pt x="386" y="339" on="1"/>
        <pt x="386" y="401" on="1"/>
        <pt x="636" y="401" on="1"/>
        <pt x="636" y="339" on="1"/>
        <pt x="520" y="339" on="1"/>
        <pt x="520" y="237" on="1"/>
        <pt x="520" y="171" on="0"/>
        <pt x="505" y="88" on="0"/>
        <pt x="482" y="52" on="1"/>
        <pt x="437" y="-15" on="0"/>
        <pt x="290" y="-15" on="1"/>
        <pt x="51" y="-15" on="0"/>
        <pt x="51" y="191" on="1"/>
        <pt x="51" y="263" on="0"/>
        <pt x="127" y="355" on="0"/>
        <pt x="191" y="375" on="1"/>
        <pt x="137" y="397" on="0"/>
        <pt x="71" y="490" on="0"/>
        <pt x="71" y="547" on="1"/>
        <pt x="71" y="744" on="0"/>
        <pt x="283" y="744" on="1"/>
        <pt x="453" y="744" on="0"/>
        <pt x="480" y="602" on="1"/>
        <pt x="406" y="580" on="1"/>
        <pt x="392" y="673" on="0"/>
      </contour>
    </TTGlyph>
    <TTGlyph name="apple" xMin="98" yMin="-114" xMax="821" yMax="608">
      <contour>
        <pt x="587" y="-89" on="1"/>
        <pt x="564" y="-88" on="1"/>
        <pt x="550" y="-88" on="0"/>
        <pt x="515" y="-112" on="0"/>
        <pt x="506" y="-112" on="1"/>
        <pt x="460" y="-102" on="1"/>
        <pt x="452" y="-102" on="0"/>
        <pt x="421" y="-114" on="0"/>
        <pt x="404" y="-114" on="0"/>
        <pt x="372" y="-89" on="0"/>
        <pt x="359" y="-89" on="1"/>
        <pt x="335" y="-91" on="1"/>
        <pt x="320" y="-91" on="0"/>
        <pt x="302" y="-74" on="1"/>
        <pt x="284" y="-55" on="1"/>
        <pt x="272" y="-49" on="0"/>
        <pt x="246" y="-47" on="0"/>
        <pt x="228" y="-36" on="0"/>
        <pt x="214" y="-1" on="0"/>
        <pt x="203" y="8" on="0"/>
        <pt x="175" y="19" on="0"/>
        <pt x="169" y="28" on="1"/>
        <pt x="164" y="37" on="0"/>
        <pt x="160" y="66" on="0"/>
        <pt x="152" y="79" on="0"/>
        <pt x="142" y="86" on="1"/>
        <pt x="120" y="104" on="0"/>
        <pt x="120" y="124" on="1"/>
        <pt x="123" y="149" on="1"/>
        <pt x="123" y="158" on="0"/>
        <pt x="98" y="193" on="0"/>
        <pt x="98" y="211" on="0"/>
        <pt x="110" y="240" on="0"/>
        <pt x="110" y="257" on="0"/>
        <pt x="98" y="283" on="0"/>
        <pt x="98" y="301" on="0"/>
        <pt x="123" y="342" on="0"/>
        <pt x="123" y="351" on="1"/>
        <pt x="122" y="376" on="1"/>
        <pt x="122" y="391" on="0"/>
        <pt x="155" y="420" on="0"/>
        <pt x="160" y="430" on="0"/>
        <pt x="164" y="462" on="0"/>
        <pt x="172" y="474" on="0"/>
        <pt x="203" y="486" on="0"/>
        <pt x="213" y="496" on="0"/>
        <pt x="227" y="527" on="0"/>
        <pt x="240" y="538" on="0"/>
        <pt x="278" y="546" on="0"/>
        <pt x="289" y="552" on="0"/>
        <pt x="319" y="586" on="0"/>
        <pt x="333" y="587" on="1"/>
        <pt x="359" y="585" on="1"/>
        <pt x="372" y="585" on="0"/>
        <pt x="403" y="608" on="0"/>
        <pt x="414" y="608" on="1"/>
        <pt x="458" y="596" on="1"/>
        <pt x="503" y="608" on="1"/>
        <pt x="516" y="608" on="0"/>
        <pt x="548" y="583" on="0"/>
        <pt x="560" y="583" on="1"/>
        <pt x="588" y="586" on="1"/>
        <pt x="604" y="586" on="0"/>
        <pt x="630" y="553" on="0"/>
        <pt x="643" y="546" on="0"/>
        <pt x="673" y="540" on="0"/>
        <pt x="688" y="530" on="0"/>
        <pt x="698" y="502" on="0"/>
        <pt x="709" y="492" on="0"/>
        <pt x="749" y="471" on="0"/>
        <pt x="758" y="455" on="0"/>
        <pt x="759" y="423" on="0"/>
        <pt x="764" y="414" on="0"/>
        <pt x="798" y="385" on="0"/>
        <pt x="798" y="369" on="1"/>
        <pt x="797" y="344" on="1"/>
        <pt x="797" y="331" on="0"/>
        <pt x="821" y="294" on="0"/>
        <pt x="821" y="276" on="0"/>
        <pt x="810" y="250" on="0"/>
        <pt x="810" y="236" on="0"/>
        <pt x="821" y="207" on="0"/>
        <pt x="820" y="191" on="0"/>
        <pt x="796" y="166" on="0"/>
        <pt x="796" y="152" on="1"/>
        <pt x="798" y="120" on="1"/>
        <pt x="798" y="104" on="0"/>
        <pt x="766" y="78" on="0"/>
        <pt x="761" y="68" on="0"/>
        <pt x="752" y="30" on="0"/>
        <pt x="741" y="17" on="0"/>
        <pt x="716" y="6" on="0"/>
        <pt x="706" y="-4" on="0"/>
        <pt x="688" y="-37" on="0"/>
        <pt x="674" y="-47" on="0"/>
        <pt x="639" y="-56" on="0"/>
        <pt x="629" y="-62" on="0"/>
        <pt x="602" y="-89" on="0"/>
      </contour>
      <contour>
        <pt x="460" y="-6" on="1"/>
        <pt x="493" y="-13" on="1"/>
        <pt x="499" y="-13" on="0"/>
        <pt x="510" y="-6" on="1"/>
        <pt x="525" y="4" on="0"/>
        <pt x="537" y="4" on="1"/>
        <pt x="552" y="3" on="1"/>
        <pt x="564" y="3" on="0"/>
        <pt x="582" y="23" on="0"/>
        <pt x="589" y="27" on="0"/>
        <pt x="615" y="34" on="0"/>
        <pt x="626" y="42" on="0"/>
        <pt x="639" y="65" on="0"/>
        <pt x="646" y="72" on="0"/>
        <pt x="664" y="80" on="0"/>
        <pt x="672" y="89" on="0"/>
        <pt x="678" y="117" on="0"/>
        <pt x="683" y="125" on="0"/>
        <pt x="705" y="143" on="0"/>
        <pt x="705" y="157" on="1"/>
        <pt x="704" y="177" on="1"/>
        <pt x="704" y="188" on="0"/>
        <pt x="721" y="207" on="0"/>
        <pt x="722" y="213" on="1"/>
        <pt x="714" y="245" on="1"/>
        <pt x="722" y="273" on="1"/>
        <pt x="722" y="281" on="0"/>
        <pt x="704" y="309" on="0"/>
        <pt x="704" y="318" on="1"/>
        <pt x="705" y="335" on="1"/>
        <pt x="705" y="347" on="0"/>
        <pt x="681" y="367" on="0"/>
        <pt x="677" y="375" on="0"/>
        <pt x="676" y="398" on="0"/>
        <pt x="670" y="409" on="0"/>
        <pt x="641" y="424" on="0"/>
        <pt x="633" y="432" on="0"/>
        <pt x="625" y="452" on="0"/>
        <pt x="615" y="460" on="0"/>
        <pt x="593" y="464" on="0"/>
        <pt x="583" y="469" on="0"/>
        <pt x="565" y="493" on="0"/>
        <pt x="553" y="493" on="1"/>
        <pt x="533" y="491" on="1"/>
        <pt x="524" y="491" on="0"/>
        <pt x="502" y="509" on="0"/>
        <pt x="492" y="509" on="1"/>
        <pt x="459" y="500" on="1"/>
        <pt x="427" y="509" on="1"/>
        <pt x="419" y="509" on="0"/>
        <pt x="395" y="492" on="0"/>
        <pt x="385" y="492" on="1"/>
        <pt x="368" y="493" on="1"/>
        <pt x="357" y="493" on="0"/>
        <pt x="336" y="468" on="0"/>
        <pt x="327" y="463" on="0"/>
        <pt x="301" y="458" on="0"/>
        <pt x="291" y="450" on="0"/>
        <pt x="281" y="428" on="0"/>
        <pt x="273" y="420" on="0"/>
        <pt x="252" y="412" on="0"/>
        <pt x="248" y="407" on="1"/>
        <pt x="246" y="403" on="0"/>
        <pt x="243" y="380" on="0"/>
        <pt x="238" y="372" on="0"/>
        <pt x="214" y="351" on="0"/>
        <pt x="214" y="340" on="1"/>
        <pt x="215" y="324" on="1"/>
        <pt x="215" y="316" on="0"/>
        <pt x="198" y="286" on="0"/>
        <pt x="198" y="278" on="1"/>
        <pt x="206" y="248" on="1"/>
        <pt x="198" y="215" on="1"/>
        <pt x="198" y="207" on="0"/>
        <pt x="215" y="182" on="0"/>
        <pt x="215" y="174" on="1"/>
        <pt x="213" y="158" on="1"/>
        <pt x="213" y="147" on="0"/>
        <pt x="238" y="124" on="0"/>
        <pt x="242" y="116" on="0"/>
        <pt x="245" y="95" on="0"/>
        <pt x="253" y="82" on="0"/>
        <pt x="273" y="74" on="0"/>
        <pt x="281" y="67" on="0"/>
        <pt x="292" y="41" on="0"/>
        <pt x="304" y="33" on="0"/>
        <pt x="323" y="33" on="0"/>
        <pt x="335" y="27" on="0"/>
        <pt x="358" y="2" on="0"/>
        <pt x="369" y="2" on="1"/>
        <pt x="384" y="3" on="1"/>
        <pt x="394" y="3" on="0"/>
        <pt x="418" y="-14" on="0"/>
        <pt x="424" y="-15" on="1"/>
      </contour>
      <contour>
        <pt x="390" y="417" on="0"/>
        <pt x="530" y="417" on="0"/>
        <pt x="630" y="318" on="0"/>
        <pt x="630" y="176" on="0"/>
        <pt x="530" y="77" on="0"/>
        <pt x="390" y="77" on="0"/>
        <pt x="290" y="176" on="0"/>
        <pt x="290" y="318" on="0"/>
      </contour>
      <contour>
        <pt x="503" y="292" on="1"/>
        <pt x="555" y="292" on="1"/>
        <pt x="555" y="360" on="1"/>
        <pt x="364" y="360" on="1"/>
        <pt x="364" y="292" on="1"/>
        <pt x="418" y="292" on="1"/>
        <pt x="418" y="117" on="1"/>
        <pt x="503" y="117" on="1"/>
      </contour>
    </TTGlyph>
    <TTGlyph name="approxequal" xMin="92" yMin="162" xMax="488" yMax="471">
      <contour>
        <pt x="92" y="452" on="1"/>
        <pt x="126" y="428" on="0"/>
        <pt x="213" y="428" on="0"/>
        <pt x="366" y="471" on="0"/>
        <pt x="451" y="471" on="0"/>
        <pt x="488" y="452" on="1"/>
        <pt x="488" y="384" on="1"/>
        <pt x="450" y="405" on="0"/>
        <pt x="366" y="405" on="0"/>
        <pt x="213" y="362" on="0"/>
        <pt x="129" y="362" on="0"/>
        <pt x="92" y="384" on="1"/>
      </contour>
      <contour>
        <pt x="92" y="252" on="1"/>
        <pt x="126" y="228" on="0"/>
        <pt x="213" y="228" on="0"/>
        <pt x="366" y="271" on="0"/>
        <pt x="451" y="271" on="0"/>
        <pt x="488" y="252" on="1"/>
        <pt x="488" y="184" on="1"/>
        <pt x="450" y="205" on="0"/>
        <pt x="366" y="205" on="0"/>
        <pt x="213" y="162" on="0"/>
        <pt x="129" y="162" on="0"/>
        <pt x="92" y="184" on="1"/>
      </contour>
    </TTGlyph>
    <TTGlyph name="aring" xMin="53" yMin="-14" xMax="490" yMax="830">
      <contour>
        <pt x="430" y="548" on="1"/>
        <pt x="490" y="505" on="0"/>
        <pt x="490" y="386" on="1"/>
        <pt x="490" y="0" on="1"/>
        <pt x="433" y="0" on="1"/>
        <pt x="411" y="89" on="1"/>
        <pt x="315" y="-14" on="0"/>
        <pt x="200" y="-14" on="1"/>
        <pt x="124" y="-14" on="0"/>
        <pt x="53" y="66" on="0"/>
        <pt x="53" y="202" on="0"/>
        <pt x="138" y="286" on="0"/>
        <pt x="255" y="305" on="1"/>
        <pt x="404" y="329" on="1"/>
        <pt x="404" y="386" on="1"/>
        <pt x="404" y="460" on="0"/>
        <pt x="341" y="516" on="0"/>
        <pt x="286" y="516" on="1"/>
        <pt x="176" y="516" on="0"/>
        <pt x="155" y="409" on="1"/>
        <pt x="85" y="430" on="1"/>
        <pt x="101" y="504" on="0"/>
        <pt x="203" y="586" on="0"/>
        <pt x="378" y="586" on="0"/>
      </contour>
      <contour>
        <pt x="224" y="52" on="1"/>
        <pt x="314" y="52" on="0"/>
        <pt x="404" y="149" on="1"/>
        <pt x="404" y="269" on="1"/>
        <pt x="263" y="245" on="1"/>
        <pt x="192" y="232" on="0"/>
        <pt x="138" y="177" on="0"/>
        <pt x="138" y="98" on="0"/>
        <pt x="180" y="52" on="0"/>
      </contour>
      <contour>
        <pt x="303" y="668" on="1"/>
        <pt x="350" y="668" on="0"/>
        <pt x="350" y="782" on="0"/>
        <pt x="303" y="782" on="1"/>
        <pt x="259" y="782" on="0"/>
        <pt x="259" y="668" on="0"/>
      </contour>
      <contour>
        <pt x="303" y="621" on="1"/>
        <pt x="201" y="621" on="0"/>
        <pt x="201" y="725" on="1"/>
        <pt x="201" y="751" on="0"/>
        <pt x="215" y="794" on="0"/>
        <pt x="263" y="830" on="0"/>
        <pt x="303" y="830" on="1"/>
        <pt x="407" y="830" on="0"/>
        <pt x="407" y="621" on="0"/>
      </contour>
    </TTGlyph>
    <TTGlyph name="asciicircum" xMin="98" yMin="316" xMax="482" yMax="618">
      <contour>
        <pt x="247" y="618" on="1"/>
        <pt x="333" y="618" on="1"/>
        <pt x="482" y="316" on="1"/>
        <pt x="407" y="316" on="1"/>
        <pt x="290" y="561" on="1"/>
        <pt x="173" y="316" on="1"/>
        <pt x="98" y="316" on="1"/>
      </contour>
    </TTGlyph>
    <TTGlyph name="asciitilde" xMin="92" yMin="262" xMax="488" yMax="371">
      <contour>
        <pt x="92" y="352" on="1"/>
        <pt x="126" y="328" on="0"/>
        <pt x="213" y="328" on="0"/>
        <pt x="366" y="371" on="0"/>
        <pt x="451" y="371" on="0"/>
        <pt x="488" y="352" on="1"/>
        <pt x="488" y="284" on="1"/>
        <pt x="450" y="305" on="0"/>
        <pt x="366" y="305" on="0"/>
        <pt x="213" y="262" on="0"/>
        <pt x="129" y="262" on="0"/>
        <pt x="92" y="284" on="1"/>
      </contour>
    </TTGlyph>
    <TTGlyph name="asterisk" xMin="26" yMin="303" xMax="527" yMax="779">
      <contour>
        <pt x="231" y="779" on="1"/>
        <pt x="323" y="779" on="1"/>
        <pt x="323" y="696" on="1"/>
        <pt x="291" y="577" on="1"/>
        <pt x="263" y="577" on="1"/>
        <pt x="231" y="696" on="1"/>
      </contour>
      <contour>
        <pt x="26" y="566" on="1"/>
        <pt x="54" y="649" on="1"/>
        <pt x="133" y="624" on="1"/>
        <pt x="237" y="558" on="1"/>
        <pt x="228" y="532" on="1"/>
        <pt x="105" y="540" on="1"/>
      </contour>
      <contour>
        <pt x="167" y="303" on="1"/>
        <pt x="94" y="356" on="1"/>
        <pt x="143" y="425" on="1"/>
        <pt x="238" y="502" on="1"/>
        <pt x="260" y="485" on="1"/>
        <pt x="216" y="371" on="1"/>
      </contour>
      <contour>
        <pt x="459" y="356" on="1"/>
        <pt x="386" y="303" on="1"/>
        <pt x="337" y="371" on="1"/>
        <pt x="292" y="485" on="1"/>
        <pt x="315" y="501" on="1"/>
        <pt x="410" y="425" on="1"/>
      </contour>
      <contour>
        <pt x="499" y="649" on="1"/>
        <pt x="527" y="566" on="1"/>
        <pt x="448" y="540" on="1"/>
        <pt x="325" y="531" on="1"/>
        <pt x="317" y="558" on="1"/>
        <pt x="419" y="624" on="1"/>
      </contour>
    </TTGlyph>
    <TTGlyph name="at" xMin="86" yMin="-95" xMax="938" yMax="751">
      <contour>
        <pt x="514" y="-95" on="1"/>
        <pt x="344" y="-95" on="0"/>
        <pt x="252" y="-41" on="1"/>
        <pt x="157" y="14" on="0"/>
        <pt x="121" y="106" on="1"/>
        <pt x="86" y="196" on="0"/>
        <pt x="86" y="328" on="1"/>
        <pt x="86" y="527" on="0"/>
        <pt x="293" y="751" on="0"/>
        <pt x="725" y="751" on="0"/>
        <pt x="938" y="538" on="0"/>
        <pt x="938" y="365" on="1"/>
        <pt x="938" y="125" on="0"/>
        <pt x="710" y="125" on="1"/>
        <pt x="630" y="125" on="1"/>
        <pt x="607" y="186" on="1"/>
        <pt x="532" y="115" on="0"/>
        <pt x="447" y="115" on="1"/>
        <pt x="294" y="115" on="0"/>
        <pt x="294" y="565" on="0"/>
        <pt x="479" y="565" on="1"/>
        <pt x="552" y="565" on="0"/>
        <pt x="624" y="529" on="1"/>
        <pt x="649" y="565" on="1"/>
        <pt x="681" y="565" on="1"/>
        <pt x="681" y="185" on="1"/>
        <pt x="708" y="185" on="1"/>
        <pt x="792" y="185" on="0"/>
        <pt x="859" y="275" on="0"/>
        <pt x="859" y="434" on="0"/>
        <pt x="823" y="546" on="0"/>
        <pt x="784" y="591" on="1"/>
        <pt x="702" y="686" on="0"/>
        <pt x="329" y="686" on="0"/>
        <pt x="170" y="500" on="0"/>
        <pt x="170" y="328" on="1"/>
        <pt x="170" y="259" on="0"/>
        <pt x="186" y="157" on="0"/>
        <pt x="230" y="63" on="0"/>
        <pt x="268" y="34" on="1"/>
        <pt x="350" y="-30" on="0"/>
        <pt x="514" y="-30" on="1"/>
        <pt x="681" y="-30" on="1"/>
        <pt x="681" y="-95" on="1"/>
      </contour>
      <contour>
        <pt x="473" y="176" on="1"/>
        <pt x="542" y="176" on="0"/>
        <pt x="603" y="240" on="1"/>
        <pt x="603" y="479" on="1"/>
        <pt x="549" y="504" on="0"/>
        <pt x="494" y="504" on="1"/>
        <pt x="372" y="504" on="0"/>
        <pt x="372" y="176" on="0"/>
      </contour>
    </TTGlyph>
    <TTGlyph name="atilde" xMin="53" yMin="-14" xMax="490" yMax="790">
      <contour>
        <pt x="430" y="548" on="1"/>
        <pt x="490" y="505" on="0"/>
        <pt x="490" y="386" on="1"/>
        <pt x="490" y="0" on="1"/>
        <pt x="433" y="0" on="1"/>
        <pt x="411" y="89" on="1"/>
        <pt x="315" y="-14" on="0"/>
        <pt x="200" y="-14" on="1"/>
        <pt x="124" y="-14" on="0"/>
        <pt x="53" y="66" on="0"/>
        <pt x="53" y="202" on="0"/>
        <pt x="138" y="286" on="0"/>
        <pt x="255" y="305" on="1"/>
        <pt x="404" y="329" on="1"/>
        <pt x="404" y="386" on="1"/>
        <pt x="404" y="460" on="0"/>
        <pt x="341" y="516" on="0"/>
        <pt x="286" y="516" on="1"/>
        <pt x="176" y="516" on="0"/>
        <pt x="155" y="409" on="1"/>
        <pt x="85" y="430" on="1"/>
        <pt x="101" y="504" on="0"/>
        <pt x="203" y="586" on="0"/>
        <pt x="378" y="586" on="0"/>
      </contour>
      <contour>
        <pt x="224" y="52" on="1"/>
        <pt x="314" y="52" on="0"/>
        <pt x="404" y="149" on="1"/>
        <pt x="404" y="269" on="1"/>
        <pt x="263" y="245" on="1"/>
        <pt x="192" y="232" on="0"/>
        <pt x="138" y="177" on="0"/>
        <pt x="138" y="98" on="0"/>
        <pt x="180" y="52" on="0"/>
      </contour>
      <contour>
        <pt x="449" y="772" on="1"/>
        <pt x="422" y="673" on="0"/>
        <pt x="360" y="673" on="1"/>
        <pt x="332" y="673" on="0"/>
        <pt x="235" y="709" on="0"/>
        <pt x="204" y="709" on="0"/>
        <pt x="184" y="688" on="0"/>
        <pt x="176" y="665" on="1"/>
        <pt x="119" y="683" on="1"/>
        <pt x="134" y="737" on="0"/>
        <pt x="179" y="782" on="0"/>
        <pt x="236" y="782" on="0"/>
        <pt x="334" y="746" on="0"/>
        <pt x="365" y="746" on="0"/>
        <pt x="385" y="766" on="0"/>
        <pt x="393" y="790" on="1"/>
      </contour>
    </TTGlyph>
    <TTGlyph name="b" xMin="106" yMin="-14" xMax="573" yMax="768">
      <contour>
        <pt x="357" y="-14" on="1"/>
        <pt x="263" y="-14" on="0"/>
        <pt x="176" y="47" on="1"/>
        <pt x="157" y="0" on="1"/>
        <pt x="106" y="0" on="1"/>
        <pt x="106" y="758" on="1"/>
        <pt x="192" y="768" on="1"/>
        <pt x="192" y="539" on="1"/>
        <pt x="278" y="586" on="0"/>
        <pt x="357" y="586" on="1"/>
        <pt x="573" y="586" on="0"/>
        <pt x="573" y="-14" on="0"/>
      </contour>
      <contour>
        <pt x="341" y="516" on="1"/>
        <pt x="264" y="516" on="0"/>
        <pt x="192" y="473" on="1"/>
        <pt x="192" y="103" on="1"/>
        <pt x="261" y="56" on="0"/>
        <pt x="333" y="56" on="1"/>
        <pt x="487" y="56" on="0"/>
        <pt x="487" y="286" on="1"/>
        <pt x="487" y="349" on="0"/>
        <pt x="462" y="447" on="0"/>
        <pt x="394" y="516" on="0"/>
      </contour>
    </TTGlyph>
    <TTGlyph name="backslash" xMin="-2" yMin="-106" xMax="322" yMax="775">
      <contour>
        <pt x="85" y="775" on="1"/>
        <pt x="322" y="-106" on="1"/>
        <pt x="235" y="-106" on="1"/>
        <pt x="-2" y="775" on="1"/>
      </contour>
    </TTGlyph>
    <TTGlyph name="bar" xMin="114" yMin="-106" xMax="211" yMax="775">
      <contour>
        <pt x="114" y="-106" on="1"/>
        <pt x="114" y="775" on="1"/>
        <pt x="211" y="775" on="1"/>
        <pt x="211" y="-106" on="1"/>
      </contour>
    </TTGlyph>
    <TTGlyph name="braceleft" xMin="19" yMin="-66" xMax="297" yMax="736">
      <contour>
        <pt x="174" y="522" on="1"/>
        <pt x="182" y="404" on="1"/>
        <pt x="182" y="375" on="0"/>
        <pt x="153" y="339" on="0"/>
        <pt x="133" y="339" on="1"/>
        <pt x="133" y="333" on="1"/>
        <pt x="153" y="333" on="0"/>
        <pt x="182" y="298" on="0"/>
        <pt x="182" y="269" on="1"/>
        <pt x="174" y="149" on="1"/>
        <pt x="174" y="80" on="0"/>
        <pt x="229" y="4" on="0"/>
        <pt x="297" y="4" on="1"/>
        <pt x="297" y="-66" on="1"/>
        <pt x="84" y="-66" on="0"/>
        <pt x="84" y="137" on="1"/>
        <pt x="92" y="258" on="1"/>
        <pt x="92" y="284" on="0"/>
        <pt x="46" y="306" on="0"/>
        <pt x="19" y="306" on="1"/>
        <pt x="19" y="364" on="1"/>
        <pt x="46" y="364" on="0"/>
        <pt x="92" y="386" on="0"/>
        <pt x="92" y="412" on="1"/>
        <pt x="92" y="412" on="0"/>
        <pt x="84" y="533" on="1"/>
        <pt x="84" y="736" on="0"/>
        <pt x="297" y="736" on="1"/>
        <pt x="297" y="666" on="1"/>
        <pt x="229" y="666" on="0"/>
        <pt x="174" y="591" on="0"/>
      </contour>
    </TTGlyph>
    <TTGlyph name="braceright" xMin="6" yMin="-66" xMax="284" yMax="736">
      <contour>
        <pt x="129" y="150" on="1"/>
        <pt x="121" y="270" on="1"/>
        <pt x="121" y="299" on="0"/>
        <pt x="150" y="335" on="0"/>
        <pt x="170" y="335" on="1"/>
        <pt x="170" y="341" on="1"/>
        <pt x="150" y="341" on="0"/>
        <pt x="121" y="376" on="0"/>
        <pt x="121" y="406" on="1"/>
        <pt x="129" y="526" on="1"/>
        <pt x="129" y="593" on="0"/>
        <pt x="74" y="666" on="0"/>
        <pt x="6" y="666" on="1"/>
        <pt x="6" y="736" on="1"/>
        <pt x="219" y="736" on="0"/>
        <pt x="219" y="533" on="1"/>
        <pt x="211" y="412" on="1"/>
        <pt x="211" y="386" on="0"/>
        <pt x="257" y="364" on="0"/>
        <pt x="284" y="364" on="1"/>
        <pt x="284" y="306" on="1"/>
        <pt x="257" y="306" on="0"/>
        <pt x="211" y="284" on="0"/>
        <pt x="211" y="258" on="1"/>
        <pt x="211" y="258" on="0"/>
        <pt x="219" y="137" on="1"/>
        <pt x="219" y="-66" on="0"/>
        <pt x="6" y="-66" on="1"/>
        <pt x="6" y="4" on="1"/>
        <pt x="74" y="4" on="0"/>
        <pt x="129" y="80" on="0"/>
      </contour>
    </TTGlyph>
    <TTGlyph name="bracketleft" xMin="78" yMin="-66" xMax="289" yMax="735">
      <contour>
        <pt x="78" y="-66" on="1"/>
        <pt x="78" y="735" on="1"/>
        <pt x="289" y="735" on="1"/>
        <pt x="289" y="672" on="1"/>
        <pt x="167" y="672" on="1"/>
        <pt x="167" y="-3" on="1"/>
        <pt x="289" y="-3" on="1"/>
        <pt x="289" y="-66" on="1"/>
      </contour>
    </TTGlyph>
    <TTGlyph name="bracketright" xMin="6" yMin="-66" xMax="217" yMax="735">
      <contour>
        <pt x="217" y="735" on="1"/>
        <pt x="217" y="-66" on="1"/>
        <pt x="6" y="-66" on="1"/>
        <pt x="6" y="-3" on="1"/>
        <pt x="128" y="-3" on="1"/>
        <pt x="128" y="672" on="1"/>
        <pt x="6" y="672" on="1"/>
        <pt x="6" y="735" on="1"/>
      </contour>
    </TTGlyph>
    <TTGlyph name="breve" xMin="82" yMin="642" xMax="339" yMax="781">
      <contour>
        <pt x="278" y="781" on="1"/>
        <pt x="339" y="781" on="1"/>
        <pt x="339" y="721" on="0"/>
        <pt x="318" y="686" on="1"/>
        <pt x="293" y="642" on="0"/>
        <pt x="132" y="642" on="0"/>
        <pt x="82" y="716" on="0"/>
        <pt x="82" y="781" on="1"/>
        <pt x="142" y="781" on="1"/>
        <pt x="142" y="725" on="0"/>
        <pt x="172" y="714" on="1"/>
        <pt x="187" y="708" on="0"/>
        <pt x="253" y="708" on="0"/>
        <pt x="278" y="745" on="0"/>
      </contour>
    </TTGlyph>
    <TTGlyph name="brokenbar" xMin="114" yMin="-106" xMax="211" yMax="775">
      <contour>
        <pt x="114" y="439" on="1"/>
        <pt x="114" y="775" on="1"/>
        <pt x="211" y="775" on="1"/>
        <pt x="211" y="439" on="1"/>
      </contour>
      <contour>
        <pt x="114" y="-106" on="1"/>
        <pt x="114" y="230" on="1"/>
        <pt x="211" y="230" on="1"/>
        <pt x="211" y="-106" on="1"/>
      </contour>
    </TTGlyph>
    <TTGlyph name="bullet" xMin="51" yMin="238" xMax="213" yMax="423">
      <contour>
        <pt x="194" y="253" on="0"/>
        <pt x="159" y="238" on="0"/>
        <pt x="96" y="238" on="0"/>
        <pt x="58" y="268" on="0"/>
        <pt x="51" y="302" on="0"/>
        <pt x="51" y="357" on="0"/>
        <pt x="58" y="392" on="0"/>
        <pt x="96" y="423" on="0"/>
        <pt x="159" y="423" on="0"/>
        <pt x="194" y="407" on="0"/>
        <pt x="202" y="392" on="1"/>
        <pt x="213" y="368" on="0"/>
        <pt x="213" y="309" on="0"/>
        <pt x="209" y="283" on="0"/>
      </contour>
    </TTGlyph>
    <TTGlyph name="c" xMin="54" yMin="-14" xMax="506" yMax="586">
      <contour>
        <pt x="140" y="286" on="1"/>
        <pt x="140" y="237" on="0"/>
        <pt x="152" y="161" on="0"/>
        <pt x="168" y="127" on="1"/>
        <pt x="201" y="56" on="0"/>
        <pt x="293" y="56" on="1"/>
        <pt x="368" y="56" on="0"/>
        <pt x="433" y="115" on="0"/>
        <pt x="436" y="173" on="1"/>
        <pt x="506" y="170" on="1"/>
        <pt x="499" y="81" on="0"/>
        <pt x="401" y="-14" on="0"/>
        <pt x="290" y="-14" on="1"/>
        <pt x="133" y="-14" on="0"/>
        <pt x="82" y="114" on="1"/>
        <pt x="54" y="184" on="0"/>
        <pt x="54" y="350" on="0"/>
        <pt x="74" y="449" on="0"/>
        <pt x="99" y="494" on="1"/>
        <pt x="151" y="586" on="0"/>
        <pt x="290" y="586" on="1"/>
        <pt x="401" y="586" on="0"/>
        <pt x="499" y="495" on="0"/>
        <pt x="505" y="409" on="1"/>
        <pt x="436" y="399" on="1"/>
        <pt x="433" y="457" on="0"/>
        <pt x="368" y="516" on="0"/>
        <pt x="293" y="516" on="1"/>
        <pt x="201" y="516" on="0"/>
        <pt x="168" y="445" on="1"/>
        <pt x="140" y="386" on="0"/>
      </contour>
    </TTGlyph>
    <TTGlyph name="caron" xMin="31" yMin="630" xMax="336" yMax="819">
      <contour>
        <pt x="300" y="819" on="1"/>
        <pt x="336" y="783" on="1"/>
        <pt x="202" y="630" on="1"/>
        <pt x="165" y="630" on="1"/>
        <pt x="31" y="783" on="1"/>
        <pt x="67" y="819" on="1"/>
        <pt x="184" y="723" on="1"/>
      </contour>
    </TTGlyph>
    <TTGlyph name="ccedilla" xMin="54" yMin="-241" xMax="506" yMax="586">
      <contour>
        <pt x="140" y="286" on="1"/>
        <pt x="140" y="237" on="0"/>
        <pt x="152" y="161" on="0"/>
        <pt x="168" y="127" on="1"/>
        <pt x="201" y="56" on="0"/>
        <pt x="293" y="56" on="1"/>
        <pt x="368" y="56" on="0"/>
        <pt x="433" y="115" on="0"/>
        <pt x="436" y="173" on="1"/>
        <pt x="506" y="170" on="1"/>
        <pt x="499" y="81" on="0"/>
        <pt x="401" y="-14" on="0"/>
        <pt x="290" y="-14" on="1"/>
        <pt x="133" y="-14" on="0"/>
        <pt x="82" y="114" on="1"/>
        <pt x="54" y="184" on="0"/>
        <pt x="54" y="350" on="0"/>
        <pt x="74" y="449" on="0"/>
        <pt x="99" y="494" on="1"/>
        <pt x="151" y="586" on="0"/>
        <pt x="290" y="586" on="1"/>
        <pt x="401" y="586" on="0"/>
        <pt x="499" y="495" on="0"/>
        <pt x="505" y="409" on="1"/>
        <pt x="436" y="399" on="1"/>
        <pt x="433" y="457" on="0"/>
        <pt x="368" y="516" on="0"/>
        <pt x="293" y="516" on="1"/>
        <pt x="201" y="516" on="0"/>
        <pt x="168" y="445" on="1"/>
        <pt x="140" y="386" on="0"/>
      </contour>
      <contour>
        <pt x="173" y="-142" on="1"/>
        <pt x="239" y="-142" on="1"/>
        <pt x="239" y="-157" on="0"/>
        <pt x="241" y="-165" on="1"/>
        <pt x="246" y="-185" on="0"/>
        <pt x="304" y="-185" on="0"/>
        <pt x="318" y="-164" on="0"/>
        <pt x="318" y="-120" on="0"/>
        <pt x="299" y="-99" on="0"/>
        <pt x="274" y="-95" on="1"/>
        <pt x="220" y="-85" on="1"/>
        <pt x="227" y="-50" on="1"/>
        <pt x="269" y="-50" on="1"/>
        <pt x="325" y="-50" on="0"/>
        <pt x="380" y="-88" on="0"/>
        <pt x="380" y="-191" on="0"/>
        <pt x="335" y="-241" on="0"/>
        <pt x="218" y="-241" on="0"/>
        <pt x="173" y="-190" on="0"/>
      </contour>
    </TTGlyph>
    <TTGlyph name="cedilla" xMin="44" yMin="-241" xMax="251" yMax="-50">
      <contour>
        <pt x="44" y="-142" on="1"/>
        <pt x="110" y="-142" on="1"/>
        <pt x="110" y="-157" on="0"/>
        <pt x="112" y="-165" on="1"/>
        <pt x="117" y="-185" on="0"/>
        <pt x="175" y="-185" on="0"/>
        <pt x="189" y="-164" on="0"/>
        <pt x="189" y="-120" on="0"/>
        <pt x="170" y="-99" on="0"/>
        <pt x="145" y="-95" on="1"/>
        <pt x="91" y="-85" on="1"/>
        <pt x="98" y="-50" on="1"/>
        <pt x="140" y="-50" on="1"/>
        <pt x="196" y="-50" on="0"/>
        <pt x="251" y="-88" on="0"/>
        <pt x="251" y="-191" on="0"/>
        <pt x="206" y="-241" on="0"/>
        <pt x="89" y="-241" on="0"/>
        <pt x="44" y="-190" on="0"/>
      </contour>
    </TTGlyph>
    <TTGlyph name="cent" xMin="87" yMin="-81" xMax="573" yMax="810">
      <contour>
        <pt x="373" y="-81" on="1"/>
        <pt x="313" y="-81" on="1"/>
        <pt x="313" y="39" on="1"/>
        <pt x="256" y="42" on="0"/>
        <pt x="173" y="82" on="0"/>
        <pt x="125" y="140" on="0"/>
        <pt x="110" y="184" on="1"/>
        <pt x="87" y="254" on="0"/>
        <pt x="87" y="365" on="1"/>
        <pt x="87" y="474" on="0"/>
        <pt x="123" y="585" on="0"/>
        <pt x="171" y="643" on="0"/>
        <pt x="255" y="685" on="0"/>
        <pt x="313" y="690" on="1"/>
        <pt x="313" y="810" on="1"/>
        <pt x="373" y="810" on="1"/>
        <pt x="373" y="691" on="1"/>
        <pt x="471" y="686" on="0"/>
        <pt x="558" y="575" on="0"/>
        <pt x="565" y="483" on="1"/>
        <pt x="496" y="479" on="1"/>
        <pt x="489" y="621" on="0"/>
        <pt x="355" y="621" on="1"/>
        <pt x="306" y="621" on="0"/>
        <pt x="236" y="592" on="0"/>
        <pt x="199" y="549" on="0"/>
        <pt x="178" y="476" on="0"/>
        <pt x="173" y="413" on="0"/>
        <pt x="173" y="319" on="0"/>
        <pt x="179" y="253" on="0"/>
        <pt x="199" y="182" on="0"/>
        <pt x="216" y="160" on="1"/>
        <pt x="257" y="109" on="0"/>
        <pt x="429" y="109" on="0"/>
        <pt x="502" y="173" on="0"/>
        <pt x="504" y="236" on="1"/>
        <pt x="573" y="232" on="1"/>
        <pt x="566" y="144" on="0"/>
        <pt x="477" y="46" on="0"/>
        <pt x="373" y="39" on="1"/>
      </contour>
    </TTGlyph>
    <TTGlyph name="circumflex" xMin="46" yMin="632" xMax="351" yMax="821">
      <contour>
        <pt x="82" y="632" on="1"/>
        <pt x="46" y="668" on="1"/>
        <pt x="180" y="821" on="1"/>
        <pt x="217" y="821" on="1"/>
        <pt x="351" y="668" on="1"/>
        <pt x="315" y="632" on="1"/>
        <pt x="198" y="728" on="1"/>
      </contour>
    </TTGlyph>
    <TTGlyph name="colon" xMin="60" yMin="-8" xMax="168" yMax="530">
      <contour>
        <pt x="163" y="12" on="0"/>
        <pt x="137" y="-8" on="0"/>
        <pt x="90" y="-8" on="0"/>
        <pt x="65" y="12" on="0"/>
        <pt x="60" y="35" on="0"/>
        <pt x="60" y="66" on="0"/>
        <pt x="63" y="84" on="0"/>
        <pt x="68" y="94" on="1"/>
        <pt x="76" y="115" on="0"/>
        <pt x="148" y="115" on="0"/>
        <pt x="168" y="82" on="0"/>
        <pt x="168" y="35" on="0"/>
      </contour>
      <contour>
        <pt x="163" y="427" on="0"/>
        <pt x="137" y="407" on="0"/>
        <pt x="90" y="407" on="0"/>
        <pt x="65" y="427" on="0"/>
        <pt x="60" y="450" on="0"/>
        <pt x="60" y="481" on="0"/>
        <pt x="63" y="499" on="0"/>
        <pt x="68" y="510" on="1"/>
        <pt x="76" y="530" on="0"/>
        <pt x="148" y="530" on="0"/>
        <pt x="168" y="497" on="0"/>
        <pt x="168" y="450" on="0"/>
      </contour>
    </TTGlyph>
    <TTGlyph name="comma" xMin="33" yMin="-124" xMax="166" yMax="115">
      <contour>
        <pt x="74" y="-5" on="0"/>
        <pt x="60" y="41" on="0"/>
        <pt x="60" y="74" on="0"/>
        <pt x="65" y="95" on="0"/>
        <pt x="89" y="115" on="0"/>
        <pt x="136" y="115" on="0"/>
        <pt x="161" y="95" on="0"/>
        <pt x="166" y="74" on="0"/>
        <pt x="166" y="21" on="0"/>
        <pt x="139" y="-44" on="0"/>
        <pt x="117" y="-68" on="1"/>
        <pt x="84" y="-105" on="0"/>
        <pt x="59" y="-124" on="1"/>
        <pt x="33" y="-94" on="1"/>
        <pt x="47" y="-81" on="0"/>
        <pt x="54" y="-73" on="1"/>
        <pt x="74" y="-50" on="0"/>
        <pt x="74" y="-15" on="1"/>
      </contour>
    </TTGlyph>
    <TTGlyph name="copyright" xMin="65" yMin="261" xMax="664" yMax="860">
      <contour>
        <pt x="362" y="723" on="1"/>
        <pt x="309" y="723" on="0"/>
        <pt x="264" y="642" on="0"/>
        <pt x="264" y="478" on="0"/>
        <pt x="306" y="399" on="0"/>
        <pt x="363" y="399" on="1"/>
        <pt x="403" y="399" on="0"/>
        <pt x="444" y="447" on="0"/>
        <pt x="446" y="488" on="1"/>
        <pt x="494" y="486" on="1"/>
        <pt x="486" y="352" on="0"/>
        <pt x="362" y="352" on="1"/>
        <pt x="275" y="352" on="0"/>
        <pt x="206" y="456" on="0"/>
        <pt x="206" y="665" on="0"/>
        <pt x="277" y="769" on="0"/>
        <pt x="361" y="769" on="1"/>
        <pt x="482" y="769" on="0"/>
        <pt x="493" y="652" on="1"/>
        <pt x="444" y="649" on="1"/>
        <pt x="436" y="723" on="0"/>
      </contour>
      <contour>
        <pt x="65" y="414" on="0"/>
        <pt x="65" y="706" on="0"/>
        <pt x="219" y="860" on="0"/>
        <pt x="510" y="860" on="0"/>
        <pt x="664" y="706" on="0"/>
        <pt x="664" y="415" on="0"/>
        <pt x="510" y="261" on="0"/>
        <pt x="218" y="261" on="0"/>
      </contour>
      <contour>
        <pt x="119" y="811" on="0"/>
        <pt x="119" y="310" on="0"/>
        <pt x="610" y="310" on="0"/>
        <pt x="610" y="811" on="0"/>
      </contour>
    </TTGlyph>
    <TTGlyph name="currency" xMin="56" yMin="106" xMax="574" yMax="624">
      <contour>
        <pt x="188" y="534" on="1"/>
        <pt x="242" y="575" on="0"/>
        <pt x="399" y="575" on="0"/>
        <pt x="447" y="540" on="1"/>
        <pt x="532" y="624" on="1"/>
        <pt x="574" y="582" on="1"/>
        <pt x="489" y="497" on="1"/>
        <pt x="525" y="444" on="0"/>
        <pt x="525" y="287" on="0"/>
        <pt x="488" y="234" on="1"/>
        <pt x="574" y="148" on="1"/>
        <pt x="532" y="106" on="1"/>
        <pt x="445" y="191" on="1"/>
        <pt x="393" y="155" on="0"/>
        <pt x="236" y="155" on="0"/>
        <pt x="186" y="194" on="1"/>
        <pt x="98" y="106" on="1"/>
        <pt x="56" y="148" on="1"/>
        <pt x="146" y="239" on="1"/>
        <pt x="115" y="290" on="0"/>
        <pt x="115" y="440" on="0"/>
        <pt x="147" y="490" on="1"/>
        <pt x="56" y="582" on="1"/>
        <pt x="98" y="624" on="1"/>
      </contour>
      <contour>
        <pt x="192" y="307" on="0"/>
        <pt x="249" y="228" on="0"/>
        <pt x="385" y="228" on="0"/>
        <pt x="448" y="307" on="0"/>
        <pt x="448" y="423" on="0"/>
        <pt x="390" y="502" on="0"/>
        <pt x="254" y="502" on="0"/>
        <pt x="192" y="423" on="0"/>
      </contour>
    </TTGlyph>
    <TTGlyph name="d" xMin="54" yMin="-14" xMax="521" yMax="768">
      <contour>
        <pt x="238" y="-14" on="1"/>
        <pt x="54" y="-14" on="0"/>
        <pt x="54" y="586" on="0"/>
        <pt x="277" y="586" on="1"/>
        <pt x="354" y="586" on="0"/>
        <pt x="435" y="547" on="1"/>
        <pt x="435" y="758" on="1"/>
        <pt x="521" y="768" on="1"/>
        <pt x="521" y="0" on="1"/>
        <pt x="464" y="0" on="1"/>
        <pt x="439" y="87" on="1"/>
        <pt x="348" y="-14" on="0"/>
      </contour>
      <contour>
        <pt x="266" y="56" on="1"/>
        <pt x="356" y="56" on="0"/>
        <pt x="435" y="152" on="1"/>
        <pt x="435" y="479" on="1"/>
        <pt x="363" y="518" on="0"/>
        <pt x="294" y="518" on="1"/>
        <pt x="210" y="518" on="0"/>
        <pt x="140" y="396" on="0"/>
        <pt x="140" y="286" on="1"/>
        <pt x="140" y="56" on="0"/>
      </contour>
    </TTGlyph>
    <TTGlyph name="dagger" xMin="18" yMin="0" xMax="430" yMax="730">
      <contour>
        <pt x="430" y="572" on="1"/>
        <pt x="430" y="494" on="1"/>
        <pt x="382" y="494" on="1"/>
        <pt x="268" y="505" on="1"/>
        <pt x="254" y="0" on="1"/>
        <pt x="194" y="0" on="1"/>
        <pt x="180" y="505" on="1"/>
        <pt x="66" y="494" on="1"/>
        <pt x="18" y="494" on="1"/>
        <pt x="18" y="572" on="1"/>
        <pt x="66" y="572" on="1"/>
        <pt x="178" y="560" on="1"/>
        <pt x="174" y="730" on="1"/>
        <pt x="274" y="730" on="1"/>
        <pt x="269" y="560" on="1"/>
        <pt x="382" y="572" on="1"/>
      </contour>
    </TTGlyph>
    <TTGlyph name="daggerdbl" xMin="18" yMin="0" xMax="430" yMax="730">
      <contour>
        <pt x="18" y="158" on="1"/>
        <pt x="18" y="236" on="1"/>
        <pt x="66" y="236" on="1"/>
        <pt x="186" y="224" on="1"/>
        <pt x="194" y="365" on="1"/>
        <pt x="186" y="506" on="1"/>
        <pt x="66" y="494" on="1"/>
        <pt x="18" y="494" on="1"/>
        <pt x="18" y="572" on="1"/>
        <pt x="66" y="572" on="1"/>
        <pt x="183" y="560" on="1"/>
        <pt x="174" y="730" on="1"/>
        <pt x="274" y="730" on="1"/>
        <pt x="264" y="560" on="1"/>
        <pt x="382" y="572" on="1"/>
        <pt x="430" y="572" on="1"/>
        <pt x="430" y="494" on="1"/>
        <pt x="382" y="494" on="1"/>
        <pt x="261" y="505" on="1"/>
        <pt x="254" y="365" on="1"/>
        <pt x="261" y="224" on="1"/>
        <pt x="382" y="236" on="1"/>
        <pt x="430" y="236" on="1"/>
        <pt x="430" y="158" on="1"/>
        <pt x="382" y="158" on="1"/>
        <pt x="264" y="169" on="1"/>
        <pt x="274" y="0" on="1"/>
        <pt x="174" y="0" on="1"/>
        <pt x="183" y="169" on="1"/>
        <pt x="66" y="158" on="1"/>
      </contour>
    </TTGlyph>
    <TTGlyph name="degree" xMin="42" yMin="340" xMax="379" yMax="710">
      <contour>
        <pt x="178" y="401" on="0"/>
        <pt x="242" y="401" on="0"/>
        <pt x="281" y="419" on="0"/>
        <pt x="298" y="459" on="0"/>
        <pt x="302" y="494" on="0"/>
        <pt x="302" y="556" on="0"/>
        <pt x="298" y="591" on="0"/>
        <pt x="281" y="631" on="0"/>
        <pt x="242" y="649" on="0"/>
        <pt x="178" y="649" on="0"/>
        <pt x="139" y="631" on="0"/>
        <pt x="122" y="591" on="0"/>
        <pt x="118" y="556" on="0"/>
        <pt x="118" y="494" on="0"/>
        <pt x="122" y="459" on="0"/>
        <pt x="139" y="419" on="0"/>
      </contour>
      <contour>
        <pt x="254" y="340" on="0"/>
        <pt x="166" y="340" on="0"/>
        <pt x="103" y="361" on="0"/>
        <pt x="68" y="393" on="0"/>
        <pt x="58" y="419" on="1"/>
        <pt x="42" y="461" on="0"/>
        <pt x="42" y="567" on="0"/>
        <pt x="53" y="624" on="0"/>
        <pt x="69" y="652" on="1"/>
        <pt x="101" y="710" on="0"/>
        <pt x="210" y="710" on="1"/>
        <pt x="320" y="710" on="0"/>
        <pt x="352" y="652" on="1"/>
        <pt x="368" y="624" on="0"/>
        <pt x="379" y="567" on="0"/>
        <pt x="379" y="492" on="0"/>
        <pt x="373" y="445" on="0"/>
        <pt x="353" y="393" on="0"/>
        <pt x="318" y="361" on="0"/>
      </contour>
    </TTGlyph>
    <TTGlyph name="dieresis" xMin="6" yMin="667" xMax="318" yMax="780">
      <contour>
        <pt x="102" y="686" on="0"/>
        <pt x="78" y="667" on="0"/>
        <pt x="33" y="667" on="0"/>
        <pt x="10" y="686" on="0"/>
        <pt x="6" y="706" on="0"/>
        <pt x="6" y="740" on="0"/>
        <pt x="10" y="761" on="0"/>
        <pt x="33" y="780" on="0"/>
        <pt x="88" y="780" on="0"/>
        <pt x="106" y="750" on="0"/>
        <pt x="106" y="706" on="0"/>
      </contour>
      <contour>
        <pt x="314" y="686" on="0"/>
        <pt x="290" y="667" on="0"/>
        <pt x="245" y="667" on="0"/>
        <pt x="222" y="686" on="0"/>
        <pt x="218" y="706" on="0"/>
        <pt x="218" y="740" on="0"/>
        <pt x="222" y="761" on="0"/>
        <pt x="245" y="780" on="0"/>
        <pt x="300" y="780" on="0"/>
        <pt x="318" y="750" on="0"/>
        <pt x="318" y="706" on="0"/>
      </contour>
    </TTGlyph>
    <TTGlyph name="divide" xMin="92" yMin="83" xMax="488" yMax="543">
      <contour>
        <pt x="92" y="284" on="1"/>
        <pt x="92" y="352" on="1"/>
        <pt x="488" y="352" on="1"/>
        <pt x="488" y="284" on="1"/>
      </contour>
      <contour>
        <pt x="330" y="93" on="0"/>
        <pt x="307" y="83" on="0"/>
        <pt x="272" y="83" on="0"/>
        <pt x="250" y="93" on="0"/>
        <pt x="246" y="104" on="1"/>
        <pt x="238" y="121" on="0"/>
        <pt x="238" y="159" on="0"/>
        <pt x="241" y="177" on="0"/>
        <pt x="246" y="188" on="1"/>
        <pt x="254" y="208" on="0"/>
        <pt x="289" y="208" on="1"/>
        <pt x="326" y="208" on="0"/>
        <pt x="334" y="188" on="1"/>
        <pt x="342" y="170" on="0"/>
        <pt x="342" y="132" on="0"/>
        <pt x="339" y="114" on="0"/>
      </contour>
      <contour>
        <pt x="330" y="428" on="0"/>
        <pt x="307" y="418" on="0"/>
        <pt x="272" y="418" on="0"/>
        <pt x="250" y="428" on="0"/>
        <pt x="246" y="438" on="1"/>
        <pt x="238" y="456" on="0"/>
        <pt x="238" y="494" on="0"/>
        <pt x="241" y="512" on="0"/>
        <pt x="246" y="522" on="1"/>
        <pt x="254" y="543" on="0"/>
        <pt x="289" y="543" on="1"/>
        <pt x="326" y="543" on="0"/>
        <pt x="334" y="522" on="1"/>
        <pt x="342" y="505" on="0"/>
        <pt x="342" y="467" on="0"/>
        <pt x="339" y="449" on="0"/>
      </contour>
    </TTGlyph>
    <TTGlyph name="dollar" xMin="79" yMin="-113" xMax="557" yMax="843">
      <contour>
        <pt x="173" y="348" on="0"/>
        <pt x="90" y="442" on="0"/>
        <pt x="90" y="625" on="0"/>
        <pt x="179" y="729" on="0"/>
        <pt x="286" y="735" on="1"/>
        <pt x="286" y="843" on="1"/>
        <pt x="347" y="843" on="1"/>
        <pt x="347" y="735" on="1"/>
        <pt x="453" y="728" on="0"/>
        <pt x="546" y="626" on="0"/>
        <pt x="546" y="530" on="1"/>
        <pt x="470" y="525" on="1"/>
        <pt x="470" y="597" on="0"/>
        <pt x="401" y="665" on="0"/>
        <pt x="238" y="665" on="0"/>
        <pt x="176" y="597" on="0"/>
        <pt x="176" y="528" on="1"/>
        <pt x="176" y="423" on="0"/>
        <pt x="272" y="410" on="1"/>
        <pt x="369" y="397" on="1"/>
        <pt x="468" y="383" on="0"/>
        <pt x="557" y="286" on="0"/>
        <pt x="557" y="200" on="1"/>
        <pt x="557" y="5" on="0"/>
        <pt x="347" y="-6" on="1"/>
        <pt x="347" y="-113" on="1"/>
        <pt x="286" y="-113" on="1"/>
        <pt x="286" y="-6" on="1"/>
        <pt x="174" y="0" on="0"/>
        <pt x="79" y="105" on="0"/>
        <pt x="79" y="201" on="1"/>
        <pt x="155" y="206" on="1"/>
        <pt x="155" y="134" on="0"/>
        <pt x="229" y="64" on="0"/>
        <pt x="404" y="64" on="0"/>
        <pt x="472" y="131" on="0"/>
        <pt x="472" y="200" on="1"/>
        <pt x="472" y="298" on="0"/>
        <pt x="363" y="318" on="1"/>
        <pt x="266" y="333" on="1"/>
      </contour>
    </TTGlyph>
    <TTGlyph name="dotaccent" xMin="85" yMin="654" xMax="201" yMax="797">
      <contour>
        <pt x="196" y="678" on="0"/>
        <pt x="168" y="654" on="0"/>
        <pt x="117" y="654" on="0"/>
        <pt x="90" y="678" on="0"/>
        <pt x="85" y="704" on="0"/>
        <pt x="85" y="747" on="0"/>
        <pt x="90" y="773" on="0"/>
        <pt x="117" y="797" on="0"/>
        <pt x="168" y="797" on="0"/>
        <pt x="196" y="773" on="0"/>
        <pt x="201" y="747" on="0"/>
        <pt x="201" y="704" on="0"/>
      </contour>
    </TTGlyph>
    <TTGlyph name="dotlessi" xMin="106" yMin="0" xMax="192" yMax="572">
      <contour>
        <pt x="106" y="572" on="1"/>
        <pt x="192" y="572" on="1"/>
        <pt x="192" y="0" on="1"/>
        <pt x="106" y="0" on="1"/>
      </contour>
    </TTGlyph>
    <TTGlyph name="e" xMin="54" yMin="-14" xMax="529" yMax="586">
      <contour>
        <pt x="297" y="-14" on="1"/>
        <pt x="166" y="-14" on="0"/>
        <pt x="54" y="135" on="0"/>
        <pt x="54" y="286" on="1"/>
        <pt x="54" y="586" on="0"/>
        <pt x="293" y="586" on="1"/>
        <pt x="529" y="586" on="0"/>
        <pt x="529" y="298" on="1"/>
        <pt x="529" y="277" on="1"/>
        <pt x="139" y="277" on="1"/>
        <pt x="140" y="159" on="0"/>
        <pt x="210" y="56" on="0"/>
        <pt x="297" y="56" on="1"/>
        <pt x="439" y="56" on="0"/>
        <pt x="449" y="171" on="1"/>
        <pt x="520" y="167" on="1"/>
        <pt x="501" y="-14" on="0"/>
      </contour>
      <contour>
        <pt x="438" y="425" on="0"/>
        <pt x="372" y="516" on="0"/>
        <pt x="216" y="516" on="0"/>
        <pt x="148" y="423" on="0"/>
        <pt x="141" y="341" on="1"/>
        <pt x="443" y="341" on="1"/>
      </contour>
    </TTGlyph>
    <TTGlyph name="eacute" xMin="54" yMin="-14" xMax="529" yMax="827">
      <contour>
        <pt x="297" y="-14" on="1"/>
        <pt x="166" y="-14" on="0"/>
        <pt x="54" y="135" on="0"/>
        <pt x="54" y="286" on="1"/>
        <pt x="54" y="586" on="0"/>
        <pt x="293" y="586" on="1"/>
        <pt x="529" y="586" on="0"/>
        <pt x="529" y="298" on="1"/>
        <pt x="529" y="277" on="1"/>
        <pt x="139" y="277" on="1"/>
        <pt x="140" y="159" on="0"/>
        <pt x="210" y="56" on="0"/>
        <pt x="297" y="56" on="1"/>
        <pt x="439" y="56" on="0"/>
        <pt x="449" y="171" on="1"/>
        <pt x="520" y="167" on="1"/>
        <pt x="501" y="-14" on="0"/>
      </contour>
      <contour>
        <pt x="438" y="425" on="0"/>
        <pt x="372" y="516" on="0"/>
        <pt x="216" y="516" on="0"/>
        <pt x="148" y="423" on="0"/>
        <pt x="141" y="341" on="1"/>
        <pt x="443" y="341" on="1"/>
      </contour>
      <contour>
        <pt x="265" y="625" on="1"/>
        <pt x="226" y="671" on="1"/>
        <pt x="394" y="827" on="1"/>
        <pt x="448" y="763" on="1"/>
      </contour>
    </TTGlyph>
    <TTGlyph name="ecircumflex" xMin="54" yMin="-14" xMax="529" yMax="821">
      <contour>
        <pt x="297" y="-14" on="1"/>
        <pt x="166" y="-14" on="0"/>
        <pt x="54" y="135" on="0"/>
        <pt x="54" y="286" on="1"/>
        <pt x="54" y="586" on="0"/>
        <pt x="293" y="586" on="1"/>
        <pt x="529" y="586" on="0"/>
        <pt x="529" y="298" on="1"/>
        <pt x="529" y="277" on="1"/>
        <pt x="139" y="277" on="1"/>
        <pt x="140" y="159" on="0"/>
        <pt x="210" y="56" on="0"/>
        <pt x="297" y="56" on="1"/>
        <pt x="439" y="56" on="0"/>
        <pt x="449" y="171" on="1"/>
        <pt x="520" y="167" on="1"/>
        <pt x="501" y="-14" on="0"/>
      </contour>
      <contour>
        <pt x="438" y="425" on="0"/>
        <pt x="372" y="516" on="0"/>
        <pt x="216" y="516" on="0"/>
        <pt x="148" y="423" on="0"/>
        <pt x="141" y="341" on="1"/>
        <pt x="443" y="341" on="1"/>
      </contour>
      <contour>
        <pt x="181" y="632" on="1"/>
        <pt x="145" y="668" on="1"/>
        <pt x="279" y="821" on="1"/>
        <pt x="316" y="821" on="1"/>
        <pt x="450" y="668" on="1"/>
        <pt x="414" y="632" on="1"/>
        <pt x="297" y="728" on="1"/>
      </contour>
    </TTGlyph>
    <TTGlyph name="edieresis" xMin="46" yMin="-14" xMax="521" yMax="780">
      <contour>
        <pt x="289" y="-14" on="1"/>
        <pt x="158" y="-14" on="0"/>
        <pt x="46" y="135" on="0"/>
        <pt x="46" y="286" on="1"/>
        <pt x="46" y="586" on="0"/>
        <pt x="285" y="586" on="1"/>
        <pt x="521" y="586" on="0"/>
        <pt x="521" y="298" on="1"/>
        <pt x="521" y="277" on="1"/>
        <pt x="131" y="277" on="1"/>
        <pt x="132" y="159" on="0"/>
        <pt x="202" y="56" on="0"/>
        <pt x="289" y="56" on="1"/>
        <pt x="431" y="56" on="0"/>
        <pt x="441" y="171" on="1"/>
        <pt x="512" y="167" on="1"/>
        <pt x="493" y="-14" on="0"/>
      </contour>
      <contour>
        <pt x="430" y="425" on="0"/>
        <pt x="364" y="516" on="0"/>
        <pt x="208" y="516" on="0"/>
        <pt x="140" y="423" on="0"/>
        <pt x="133" y="341" on="1"/>
        <pt x="435" y="341" on="1"/>
      </contour>
      <contour>
        <pt x="229" y="686" on="0"/>
        <pt x="205" y="667" on="0"/>
        <pt x="160" y="667" on="0"/>
        <pt x="137" y="686" on="0"/>
        <pt x="133" y="706" on="0"/>
        <pt x="133" y="740" on="0"/>
        <pt x="137" y="761" on="0"/>
        <pt x="160" y="780" on="0"/>
        <pt x="215" y="780" on="0"/>
        <pt x="233" y="750" on="0"/>
        <pt x="233" y="706" on="0"/>
      </contour>
      <contour>
        <pt x="441" y="686" on="0"/>
        <pt x="417" y="667" on="0"/>
        <pt x="372" y="667" on="0"/>
        <pt x="349" y="686" on="0"/>
        <pt x="345" y="706" on="0"/>
        <pt x="345" y="740" on="0"/>
        <pt x="349" y="761" on="0"/>
        <pt x="372" y="780" on="0"/>
        <pt x="427" y="780" on="0"/>
        <pt x="445" y="750" on="0"/>
        <pt x="445" y="706" on="0"/>
      </contour>
    </TTGlyph>
    <TTGlyph name="egrave" xMin="54" yMin="-14" xMax="529" yMax="827">
      <contour>
        <pt x="297" y="-14" on="1"/>
        <pt x="166" y="-14" on="0"/>
        <pt x="54" y="135" on="0"/>
        <pt x="54" y="286" on="1"/>
        <pt x="54" y="586" on="0"/>
        <pt x="293" y="586" on="1"/>
        <pt x="529" y="586" on="0"/>
        <pt x="529" y="298" on="1"/>
        <pt x="529" y="277" on="1"/>
        <pt x="139" y="277" on="1"/>
        <pt x="140" y="159" on="0"/>
        <pt x="210" y="56" on="0"/>
        <pt x="297" y="56" on="1"/>
        <pt x="439" y="56" on="0"/>
        <pt x="449" y="171" on="1"/>
        <pt x="520" y="167" on="1"/>
        <pt x="501" y="-14" on="0"/>
      </contour>
      <contour>
        <pt x="438" y="425" on="0"/>
        <pt x="372" y="516" on="0"/>
        <pt x="216" y="516" on="0"/>
        <pt x="148" y="423" on="0"/>
        <pt x="141" y="341" on="1"/>
        <pt x="443" y="341" on="1"/>
      </contour>
      <contour>
        <pt x="406" y="671" on="1"/>
        <pt x="367" y="625" on="1"/>
        <pt x="184" y="763" on="1"/>
        <pt x="238" y="827" on="1"/>
      </contour>
    </TTGlyph>
    <TTGlyph name="eight" xMin="70" yMin="-14" xMax="565" yMax="744">
      <contour>
        <pt x="70" y="186" on="1"/>
        <pt x="70" y="314" on="0"/>
        <pt x="191" y="364" on="1"/>
        <pt x="80" y="411" on="0"/>
        <pt x="80" y="534" on="1"/>
        <pt x="80" y="626" on="0"/>
        <pt x="202" y="744" on="0"/>
        <pt x="433" y="744" on="0"/>
        <pt x="555" y="625" on="0"/>
        <pt x="555" y="534" on="1"/>
        <pt x="555" y="420" on="0"/>
        <pt x="443" y="370" on="1"/>
        <pt x="565" y="324" on="0"/>
        <pt x="565" y="186" on="1"/>
        <pt x="565" y="97" on="0"/>
        <pt x="432" y="-14" on="0"/>
        <pt x="204" y="-14" on="0"/>
        <pt x="70" y="97" on="0"/>
      </contour>
      <contour>
        <pt x="221" y="329" on="0"/>
        <pt x="156" y="248" on="0"/>
        <pt x="156" y="129" on="0"/>
        <pt x="239" y="57" on="0"/>
        <pt x="394" y="57" on="0"/>
        <pt x="480" y="130" on="0"/>
        <pt x="480" y="246" on="0"/>
        <pt x="426" y="316" on="0"/>
        <pt x="363" y="326" on="1"/>
        <pt x="284" y="339" on="1"/>
      </contour>
      <contour>
        <pt x="241" y="673" on="0"/>
        <pt x="165" y="594" on="0"/>
        <pt x="165" y="477" on="0"/>
        <pt x="218" y="413" on="0"/>
        <pt x="283" y="403" on="1"/>
        <pt x="344" y="393" on="1"/>
        <pt x="406" y="404" on="0"/>
        <pt x="470" y="478" on="0"/>
        <pt x="470" y="594" on="0"/>
        <pt x="395" y="673" on="0"/>
      </contour>
    </TTGlyph>
    <TTGlyph name="ellipsis" xMin="60" yMin="-8" xMax="632" yMax="116">
      <contour>
        <pt x="163" y="12" on="0"/>
        <pt x="137" y="-8" on="0"/>
        <pt x="90" y="-8" on="0"/>
        <pt x="65" y="12" on="0"/>
        <pt x="60" y="35" on="0"/>
        <pt x="60" y="66" on="0"/>
        <pt x="63" y="84" on="0"/>
        <pt x="68" y="94" on="1"/>
        <pt x="76" y="115" on="0"/>
        <pt x="148" y="115" on="0"/>
        <pt x="168" y="82" on="0"/>
        <pt x="168" y="35" on="0"/>
      </contour>
      <contour>
        <pt x="395" y="12" on="0"/>
        <pt x="369" y="-8" on="0"/>
        <pt x="322" y="-8" on="0"/>
        <pt x="297" y="12" on="0"/>
        <pt x="292" y="35" on="0"/>
        <pt x="292" y="66" on="0"/>
        <pt x="295" y="84" on="0"/>
        <pt x="300" y="94" on="1"/>
        <pt x="308" y="115" on="0"/>
        <pt x="380" y="115" on="0"/>
        <pt x="400" y="82" on="0"/>
        <pt x="400" y="35" on="0"/>
      </contour>
      <contour>
        <pt x="627" y="12" on="0"/>
        <pt x="601" y="-8" on="0"/>
        <pt x="554" y="-8" on="0"/>
        <pt x="529" y="12" on="0"/>
        <pt x="524" y="35" on="0"/>
        <pt x="524" y="66" on="0"/>
        <pt x="527" y="84" on="0"/>
        <pt x="532" y="94" on="1"/>
        <pt x="540" y="115" on="0"/>
        <pt x="612" y="115" on="0"/>
        <pt x="632" y="82" on="0"/>
        <pt x="632" y="35" on="0"/>
      </contour>
    </TTGlyph>
    <TTGlyph name="emdash" xMin="68" yMin="284" xMax="841" yMax="352">
      <contour>
        <pt x="68" y="284" on="1"/>
        <pt x="68" y="352" on="1"/>
        <pt x="841" y="352" on="1"/>
        <pt x="841" y="284" on="1"/>
      </contour>
    </TTGlyph>
    <TTGlyph name="endash" xMin="68" yMin="284" xMax="508" yMax="352">
      <contour>
        <pt x="68" y="284" on="1"/>
        <pt x="68" y="352" on="1"/>
        <pt x="508" y="352" on="1"/>
        <pt x="508" y="284" on="1"/>
      </contour>
    </TTGlyph>
    <TTGlyph name="equal" xMin="92" yMin="182" xMax="488" yMax="454">
      <contour>
        <pt x="92" y="386" on="1"/>
        <pt x="92" y="454" on="1"/>
        <pt x="488" y="454" on="1"/>
        <pt x="488" y="386" on="1"/>
      </contour>
      <contour>
        <pt x="92" y="182" on="1"/>
        <pt x="92" y="250" on="1"/>
        <pt x="488" y="250" on="1"/>
        <pt x="488" y="182" on="1"/>
      </contour>
    </TTGlyph>
    <TTGlyph name="eth" xMin="54" yMin="-14" xMax="550" yMax="764">
      <contour>
        <pt x="550" y="267" on="1"/>
        <pt x="550" y="246" on="1"/>
        <pt x="550" y="52" on="0"/>
        <pt x="404" y="2" on="1"/>
        <pt x="360" y="-14" on="0"/>
        <pt x="244" y="-14" on="0"/>
        <pt x="155" y="17" on="0"/>
        <pt x="101" y="67" on="0"/>
        <pt x="84" y="102" on="1"/>
        <pt x="54" y="164" on="0"/>
        <pt x="54" y="246" on="1"/>
        <pt x="54" y="348" on="0"/>
        <pt x="102" y="420" on="1"/>
        <pt x="128" y="460" on="0"/>
        <pt x="230" y="506" on="0"/>
        <pt x="389" y="506" on="0"/>
        <pt x="447" y="450" on="1"/>
        <pt x="423" y="541" on="0"/>
        <pt x="375" y="614" on="1"/>
        <pt x="270" y="572" on="1"/>
        <pt x="270" y="635" on="1"/>
        <pt x="339" y="662" on="1"/>
        <pt x="319" y="686" on="0"/>
        <pt x="289" y="714" on="1"/>
        <pt x="331" y="764" on="1"/>
        <pt x="371" y="729" on="0"/>
        <pt x="405" y="689" on="1"/>
        <pt x="528" y="739" on="1"/>
        <pt x="528" y="676" on="1"/>
        <pt x="441" y="641" on="1"/>
        <pt x="550" y="481" on="0"/>
      </contour>
      <contour>
        <pt x="140" y="55" on="0"/>
        <pt x="464" y="55" on="0"/>
        <pt x="464" y="437" on="0"/>
        <pt x="140" y="437" on="0"/>
      </contour>
    </TTGlyph>
    <TTGlyph name="exclam" xMin="102" yMin="-8" xMax="210" yMax="730">
      <contour>
        <pt x="205" y="12" on="0"/>
        <pt x="179" y="-8" on="0"/>
        <pt x="132" y="-8" on="0"/>
        <pt x="107" y="12" on="0"/>
        <pt x="102" y="35" on="0"/>
        <pt x="102" y="66" on="0"/>
        <pt x="105" y="84" on="0"/>
        <pt x="110" y="94" on="1"/>
        <pt x="118" y="115" on="0"/>
        <pt x="190" y="115" on="0"/>
        <pt x="210" y="82" on="0"/>
        <pt x="210" y="35" on="0"/>
      </contour>
      <contour>
        <pt x="107" y="730" on="1"/>
        <pt x="203" y="730" on="1"/>
        <pt x="203" y="566" on="1"/>
        <pt x="181" y="191" on="1"/>
        <pt x="129" y="191" on="1"/>
        <pt x="107" y="566" on="1"/>
      </contour>
    </TTGlyph>
    <TTGlyph name="exclamdown" xMin="102" yMin="-152" xMax="210" yMax="586">
      <contour>
        <pt x="107" y="566" on="0"/>
        <pt x="133" y="586" on="0"/>
        <pt x="190" y="586" on="0"/>
        <pt x="210" y="553" on="0"/>
        <pt x="210" y="507" on="0"/>
        <pt x="205" y="484" on="0"/>
        <pt x="180" y="463" on="0"/>
        <pt x="122" y="463" on="0"/>
        <pt x="102" y="496" on="0"/>
        <pt x="102" y="543" on="0"/>
      </contour>
      <contour>
        <pt x="205" y="-152" on="1"/>
        <pt x="108" y="-152" on="1"/>
        <pt x="108" y="12" on="1"/>
        <pt x="130" y="387" on="1"/>
        <pt x="183" y="387" on="1"/>
        <pt x="205" y="12" on="1"/>
      </contour>
    </TTGlyph>
    <TTGlyph name="f" xMin="56" yMin="0" xMax="386" yMax="775">
      <contour>
        <pt x="286" y="707" on="1"/>
        <pt x="208" y="707" on="0"/>
        <pt x="208" y="616" on="1"/>
        <pt x="208" y="572" on="1"/>
        <pt x="340" y="572" on="1"/>
        <pt x="340" y="513" on="1"/>
        <pt x="208" y="513" on="1"/>
        <pt x="208" y="0" on="1"/>
        <pt x="122" y="0" on="1"/>
        <pt x="122" y="513" on="1"/>
        <pt x="56" y="513" on="1"/>
        <pt x="56" y="572" on="1"/>
        <pt x="122" y="572" on="1"/>
        <pt x="122" y="616" on="1"/>
        <pt x="122" y="775" on="0"/>
        <pt x="280" y="775" on="1"/>
        <pt x="339" y="775" on="0"/>
        <pt x="386" y="758" on="1"/>
        <pt x="364" y="693" on="1"/>
        <pt x="330" y="707" on="0"/>
      </contour>
    </TTGlyph>
    <TTGlyph name="fi" xMin="56" yMin="0" xMax="544" yMax="779">
      <contour>
        <pt x="286" y="707" on="1"/>
        <pt x="208" y="707" on="0"/>
        <pt x="208" y="616" on="1"/>
        <pt x="208" y="572" on="1"/>
        <pt x="340" y="572" on="1"/>
        <pt x="340" y="513" on="1"/>
        <pt x="208" y="513" on="1"/>
        <pt x="208" y="0" on="1"/>
        <pt x="122" y="0" on="1"/>
        <pt x="122" y="513" on="1"/>
        <pt x="56" y="513" on="1"/>
        <pt x="56" y="572" on="1"/>
        <pt x="122" y="572" on="1"/>
        <pt x="122" y="616" on="1"/>
        <pt x="122" y="775" on="0"/>
        <pt x="280" y="775" on="1"/>
        <pt x="339" y="775" on="0"/>
        <pt x="386" y="758" on="1"/>
        <pt x="364" y="693" on="1"/>
        <pt x="330" y="707" on="0"/>
      </contour>
      <contour>
        <pt x="448" y="572" on="1"/>
        <pt x="534" y="572" on="1"/>
        <pt x="534" y="0" on="1"/>
        <pt x="448" y="0" on="1"/>
      </contour>
      <contour>
        <pt x="491" y="668" on="1"/>
        <pt x="440" y="668" on="0"/>
        <pt x="440" y="779" on="0"/>
        <pt x="491" y="779" on="1"/>
        <pt x="544" y="779" on="0"/>
        <pt x="544" y="668" on="0"/>
      </contour>
    </TTGlyph>
    <TTGlyph name="five" xMin="98" yMin="-14" xMax="573" yMax="730">
      <contour>
        <pt x="327" y="56" on="1"/>
        <pt x="407" y="56" on="0"/>
        <pt x="486" y="143" on="0"/>
        <pt x="486" y="289" on="0"/>
        <pt x="372" y="367" on="0"/>
        <pt x="232" y="367" on="1"/>
        <pt x="112" y="367" on="1"/>
        <pt x="135" y="730" on="1"/>
        <pt x="531" y="730" on="1"/>
        <pt x="531" y="659" on="1"/>
        <pt x="208" y="659" on="1"/>
        <pt x="193" y="439" on="1"/>
        <pt x="240" y="439" on="1"/>
        <pt x="410" y="439" on="0"/>
        <pt x="573" y="327" on="0"/>
        <pt x="573" y="114" on="0"/>
        <pt x="446" y="-14" on="0"/>
        <pt x="219" y="-14" on="0"/>
        <pt x="104" y="92" on="0"/>
        <pt x="98" y="191" on="1"/>
        <pt x="174" y="198" on="1"/>
        <pt x="182" y="56" on="0"/>
      </contour>
    </TTGlyph>
    <TTGlyph name="fl" xMin="56" yMin="0" xMax="534" yMax="775">
      <contour>
        <pt x="286" y="707" on="1"/>
        <pt x="208" y="707" on="0"/>
        <pt x="208" y="616" on="1"/>
        <pt x="208" y="572" on="1"/>
        <pt x="340" y="572" on="1"/>
        <pt x="340" y="513" on="1"/>
        <pt x="208" y="513" on="1"/>
        <pt x="208" y="0" on="1"/>
        <pt x="122" y="0" on="1"/>
        <pt x="122" y="513" on="1"/>
        <pt x="56" y="513" on="1"/>
        <pt x="56" y="572" on="1"/>
        <pt x="122" y="572" on="1"/>
        <pt x="122" y="616" on="1"/>
        <pt x="122" y="775" on="0"/>
        <pt x="280" y="775" on="1"/>
        <pt x="339" y="775" on="0"/>
        <pt x="386" y="758" on="1"/>
        <pt x="364" y="693" on="1"/>
        <pt x="330" y="707" on="0"/>
      </contour>
      <contour>
        <pt x="534" y="0" on="1"/>
        <pt x="448" y="0" on="1"/>
        <pt x="448" y="758" on="1"/>
        <pt x="534" y="770" on="1"/>
      </contour>
    </TTGlyph>
    <TTGlyph name="florin" xMin="122" yMin="-218" xMax="562" yMax="744">
      <contour>
        <pt x="439" y="673" on="1"/>
        <pt x="334" y="673" on="0"/>
        <pt x="334" y="519" on="1"/>
        <pt x="334" y="374" on="1"/>
        <pt x="504" y="374" on="1"/>
        <pt x="504" y="314" on="1"/>
        <pt x="334" y="314" on="1"/>
        <pt x="334" y="-2" on="1"/>
        <pt x="334" y="-117" on="0"/>
        <pt x="248" y="-218" on="0"/>
        <pt x="133" y="-218" on="1"/>
        <pt x="128" y="-142" on="1"/>
        <pt x="194" y="-142" on="0"/>
        <pt x="246" y="-80" on="0"/>
        <pt x="246" y="-2" on="1"/>
        <pt x="246" y="314" on="1"/>
        <pt x="122" y="314" on="1"/>
        <pt x="122" y="374" on="1"/>
        <pt x="246" y="374" on="1"/>
        <pt x="246" y="519" on="1"/>
        <pt x="246" y="634" on="0"/>
        <pt x="338" y="744" on="0"/>
        <pt x="436" y="744" on="1"/>
        <pt x="510" y="744" on="0"/>
        <pt x="562" y="711" on="1"/>
        <pt x="533" y="649" on="1"/>
        <pt x="494" y="673" on="0"/>
      </contour>
    </TTGlyph>
    <TTGlyph name="four" xMin="32" yMin="0" xMax="569" yMax="730">
      <contour>
        <pt x="480" y="0" on="1"/>
        <pt x="394" y="0" on="1"/>
        <pt x="394" y="163" on="1"/>
        <pt x="32" y="163" on="1"/>
        <pt x="32" y="233" on="1"/>
        <pt x="354" y="730" on="1"/>
        <pt x="480" y="730" on="1"/>
        <pt x="480" y="234" on="1"/>
        <pt x="569" y="234" on="1"/>
        <pt x="569" y="163" on="1"/>
        <pt x="480" y="163" on="1"/>
      </contour>
      <contour>
        <pt x="394" y="234" on="1"/>
        <pt x="394" y="648" on="1"/>
        <pt x="129" y="234" on="1"/>
      </contour>
    </TTGlyph>
    <TTGlyph name="fraction" xMin="-2" yMin="-66" xMax="273" yMax="735">
      <contour>
        <pt x="-2" y="-66" on="1"/>
        <pt x="212" y="735" on="1"/>
        <pt x="273" y="735" on="1"/>
        <pt x="58" y="-66" on="1"/>
      </contour>
    </TTGlyph>
    <TTGlyph name="g" xMin="34" yMin="-233" xMax="539" yMax="586">
      <contour>
        <pt x="434" y="216" on="0"/>
        <pt x="347" y="180" on="0"/>
        <pt x="227" y="180" on="0"/>
        <pt x="181" y="198" on="1"/>
        <pt x="136" y="154" on="1"/>
        <pt x="113" y="132" on="0"/>
        <pt x="113" y="104" on="1"/>
        <pt x="113" y="67" on="0"/>
        <pt x="159" y="67" on="1"/>
        <pt x="383" y="67" on="1"/>
        <pt x="456" y="67" on="0"/>
        <pt x="539" y="-10" on="0"/>
        <pt x="539" y="-123" on="0"/>
        <pt x="495" y="-190" on="0"/>
        <pt x="454" y="-206" on="1"/>
        <pt x="383" y="-233" on="0"/>
        <pt x="157" y="-233" on="0"/>
        <pt x="34" y="-174" on="0"/>
        <pt x="34" y="-35" on="0"/>
        <pt x="94" y="8" on="1"/>
        <pt x="37" y="30" on="0"/>
        <pt x="37" y="94" on="1"/>
        <pt x="37" y="142" on="0"/>
        <pt x="79" y="184" on="1"/>
        <pt x="127" y="232" on="1"/>
        <pt x="74" y="284" on="0"/>
        <pt x="74" y="383" on="1"/>
        <pt x="74" y="463" on="0"/>
        <pt x="115" y="520" on="1"/>
        <pt x="137" y="550" on="0"/>
        <pt x="224" y="586" on="0"/>
        <pt x="339" y="586" on="0"/>
        <pt x="379" y="572" on="1"/>
        <pt x="530" y="572" on="1"/>
        <pt x="530" y="515" on="1"/>
        <pt x="459" y="515" on="1"/>
        <pt x="497" y="463" on="0"/>
        <pt x="497" y="383" on="1"/>
        <pt x="497" y="303" on="0"/>
        <pt x="456" y="246" on="1"/>
      </contour>
      <contour>
        <pt x="157" y="524" on="0"/>
        <pt x="157" y="242" on="0"/>
        <pt x="414" y="242" on="0"/>
        <pt x="414" y="524" on="0"/>
      </contour>
      <contour>
        <pt x="115" y="-132" on="0"/>
        <pt x="197" y="-164" on="0"/>
        <pt x="370" y="-164" on="0"/>
        <pt x="451" y="-129" on="0"/>
        <pt x="451" y="-73" on="1"/>
        <pt x="451" y="-34" on="0"/>
        <pt x="394" y="0" on="0"/>
        <pt x="356" y="0" on="1"/>
        <pt x="156" y="0" on="1"/>
        <pt x="115" y="-33" on="0"/>
      </contour>
    </TTGlyph>
    <TTGlyph name="germandbls" xMin="116" yMin="-14" xMax="616" yMax="753">
      <contour>
        <pt x="538" y="380" on="0"/>
        <pt x="616" y="278" on="0"/>
        <pt x="616" y="103" on="0"/>
        <pt x="523" y="-14" on="0"/>
        <pt x="336" y="-14" on="0"/>
        <pt x="254" y="85" on="0"/>
        <pt x="254" y="183" on="1"/>
        <pt x="326" y="183" on="1"/>
        <pt x="326" y="119" on="0"/>
        <pt x="370" y="57" on="0"/>
        <pt x="481" y="57" on="0"/>
        <pt x="530" y="138" on="0"/>
        <pt x="530" y="269" on="0"/>
        <pt x="475" y="346" on="0"/>
        <pt x="408" y="346" on="1"/>
        <pt x="297" y="346" on="1"/>
        <pt x="297" y="411" on="1"/>
        <pt x="361" y="411" on="1"/>
        <pt x="414" y="411" on="0"/>
        <pt x="471" y="495" on="0"/>
        <pt x="471" y="615" on="0"/>
        <pt x="403" y="682" on="0"/>
        <pt x="270" y="682" on="0"/>
        <pt x="202" y="614" on="0"/>
        <pt x="202" y="553" on="1"/>
        <pt x="202" y="0" on="1"/>
        <pt x="116" y="0" on="1"/>
        <pt x="116" y="553" on="1"/>
        <pt x="116" y="647" on="0"/>
        <pt x="233" y="753" on="0"/>
        <pt x="445" y="753" on="0"/>
        <pt x="557" y="648" on="0"/>
        <pt x="557" y="557" on="1"/>
        <pt x="557" y="507" on="0"/>
        <pt x="510" y="421" on="0"/>
        <pt x="471" y="393" on="1"/>
      </contour>
    </TTGlyph>
    <TTGlyph name="grave" xMin="42" yMin="625" xMax="264" yMax="827">
      <contour>
        <pt x="264" y="671" on="1"/>
        <pt x="225" y="625" on="1"/>
        <pt x="42" y="763" on="1"/>
        <pt x="96" y="827" on="1"/>
      </contour>
    </TTGlyph>
    <TTGlyph name="greater" xMin="89" yMin="105" xMax="491" yMax="529">
      <contour>
        <pt x="491" y="360" on="1"/>
        <pt x="491" y="274" on="1"/>
        <pt x="89" y="105" on="1"/>
        <pt x="89" y="180" on="1"/>
        <pt x="425" y="317" on="1"/>
        <pt x="89" y="454" on="1"/>
        <pt x="89" y="529" on="1"/>
      </contour>
    </TTGlyph>
    <TTGlyph name="greaterequal" xMin="89" yMin="0" xMax="491" yMax="599">
      <contour>
        <pt x="491" y="430" on="1"/>
        <pt x="491" y="344" on="1"/>
        <pt x="89" y="175" on="1"/>
        <pt x="89" y="250" on="1"/>
        <pt x="425" y="387" on="1"/>
        <pt x="89" y="524" on="1"/>
        <pt x="89" y="599" on="1"/>
      </contour>
      <contour>
        <pt x="92" y="0" on="1"/>
        <pt x="92" y="68" on="1"/>
        <pt x="488" y="68" on="1"/>
        <pt x="488" y="0" on="1"/>
      </contour>
    </TTGlyph>
    <TTGlyph name="guillemotleft" xMin="28" yMin="109" xMax="470" yMax="521">
      <contour>
        <pt x="251" y="470" on="1"/>
        <pt x="129" y="315" on="1"/>
        <pt x="251" y="160" on="1"/>
        <pt x="199" y="109" on="1"/>
        <pt x="28" y="297" on="1"/>
        <pt x="28" y="333" on="1"/>
        <pt x="199" y="521" on="1"/>
      </contour>
      <contour>
        <pt x="470" y="470" on="1"/>
        <pt x="348" y="315" on="1"/>
        <pt x="470" y="160" on="1"/>
        <pt x="418" y="109" on="1"/>
        <pt x="247" y="297" on="1"/>
        <pt x="247" y="333" on="1"/>
        <pt x="418" y="521" on="1"/>
      </contour>
    </TTGlyph>
    <TTGlyph name="guillemotright" xMin="30" yMin="109" xMax="472" yMax="521">
      <contour>
        <pt x="249" y="160" on="1"/>
        <pt x="371" y="315" on="1"/>
        <pt x="249" y="470" on="1"/>
        <pt x="301" y="521" on="1"/>
        <pt x="472" y="333" on="1"/>
        <pt x="472" y="297" on="1"/>
        <pt x="301" y="109" on="1"/>
      </contour>
      <contour>
        <pt x="30" y="160" on="1"/>
        <pt x="152" y="315" on="1"/>
        <pt x="30" y="470" on="1"/>
        <pt x="82" y="521" on="1"/>
        <pt x="253" y="333" on="1"/>
        <pt x="253" y="297" on="1"/>
        <pt x="82" y="109" on="1"/>
      </contour>
    </TTGlyph>
    <TTGlyph name="guilsinglleft" xMin="28" yMin="109" xMax="251" yMax="521">
      <contour>
        <pt x="251" y="470" on="1"/>
        <pt x="129" y="315" on="1"/>
        <pt x="251" y="160" on="1"/>
        <pt x="199" y="109" on="1"/>
        <pt x="28" y="297" on="1"/>
        <pt x="28" y="333" on="1"/>
        <pt x="199" y="521" on="1"/>
      </contour>
    </TTGlyph>
    <TTGlyph name="guilsinglright" xMin="54" yMin="109" xMax="277" yMax="521">
      <contour>
        <pt x="54" y="160" on="1"/>
        <pt x="176" y="315" on="1"/>
        <pt x="54" y="470" on="1"/>
        <pt x="106" y="521" on="1"/>
        <pt x="277" y="333" on="1"/>
        <pt x="277" y="297" on="1"/>
        <pt x="106" y="109" on="1"/>
      </contour>
    </TTGlyph>
    <TTGlyph name="h" xMin="106" yMin="0" xMax="558" yMax="768">
      <contour>
        <pt x="192" y="519" on="1"/>
        <pt x="287" y="586" on="0"/>
        <pt x="478" y="586" on="0"/>
        <pt x="558" y="497" on="0"/>
        <pt x="558" y="406" on="1"/>
        <pt x="558" y="0" on="1"/>
        <pt x="472" y="0" on="1"/>
        <pt x="472" y="404" on="1"/>
        <pt x="472" y="464" on="0"/>
        <pt x="426" y="516" on="0"/>
        <pt x="372" y="516" on="1"/>
        <pt x="279" y="516" on="0"/>
        <pt x="192" y="449" on="1"/>
        <pt x="192" y="0" on="1"/>
        <pt x="106" y="0" on="1"/>
        <pt x="106" y="758" on="1"/>
        <pt x="192" y="768" on="1"/>
      </contour>
    </TTGlyph>
    <TTGlyph name="hungarumlaut" xMin="40" yMin="625" xMax="505" yMax="827">
      <contour>
        <pt x="79" y="625" on="1"/>
        <pt x="40" y="671" on="1"/>
        <pt x="208" y="827" on="1"/>
        <pt x="262" y="763" on="1"/>
      </contour>
      <contour>
        <pt x="322" y="625" on="1"/>
        <pt x="283" y="671" on="1"/>
        <pt x="451" y="827" on="1"/>
        <pt x="505" y="763" on="1"/>
      </contour>
    </TTGlyph>
    <TTGlyph name="hyphen" xMin="68" yMin="284" xMax="420" yMax="352">
      <contour>
        <pt x="68" y="284" on="1"/>
        <pt x="68" y="352" on="1"/>
        <pt x="420" y="352" on="1"/>
        <pt x="420" y="284" on="1"/>
      </contour>
    </TTGlyph>
    <TTGlyph name="i" xMin="98" yMin="0" xMax="202" yMax="779">
      <contour>
        <pt x="106" y="572" on="1"/>
        <pt x="192" y="572" on="1"/>
        <pt x="192" y="0" on="1"/>
        <pt x="106" y="0" on="1"/>
      </contour>
      <contour>
        <pt x="149" y="668" on="1"/>
        <pt x="98" y="668" on="0"/>
        <pt x="98" y="779" on="0"/>
        <pt x="149" y="779" on="1"/>
        <pt x="202" y="779" on="0"/>
        <pt x="202" y="668" on="0"/>
      </contour>
    </TTGlyph>
    <TTGlyph name="iacute" xMin="55" yMin="0" xMax="277" yMax="827">
      <contour>
        <pt x="106" y="572" on="1"/>
        <pt x="192" y="572" on="1"/>
        <pt x="192" y="0" on="1"/>
        <pt x="106" y="0" on="1"/>
      </contour>
      <contour>
        <pt x="94" y="625" on="1"/>
        <pt x="55" y="671" on="1"/>
        <pt x="223" y="827" on="1"/>
        <pt x="277" y="763" on="1"/>
      </contour>
    </TTGlyph>
    <TTGlyph name="icircumflex" xMin="-13" yMin="0" xMax="292" yMax="821">
      <contour>
        <pt x="106" y="572" on="1"/>
        <pt x="192" y="572" on="1"/>
        <pt x="192" y="0" on="1"/>
        <pt x="106" y="0" on="1"/>
      </contour>
      <contour>
        <pt x="23" y="632" on="1"/>
        <pt x="-13" y="668" on="1"/>
        <pt x="121" y="821" on="1"/>
        <pt x="158" y="821" on="1"/>
        <pt x="292" y="668" on="1"/>
        <pt x="256" y="632" on="1"/>
        <pt x="139" y="728" on="1"/>
      </contour>
    </TTGlyph>
    <TTGlyph name="idieresis" xMin="-7" yMin="0" xMax="305" yMax="780">
      <contour>
        <pt x="106" y="572" on="1"/>
        <pt x="192" y="572" on="1"/>
        <pt x="192" y="0" on="1"/>
        <pt x="106" y="0" on="1"/>
      </contour>
      <contour>
        <pt x="89" y="686" on="0"/>
        <pt x="65" y="667" on="0"/>
        <pt x="20" y="667" on="0"/>
        <pt x="-3" y="686" on="0"/>
        <pt x="-7" y="706" on="0"/>
        <pt x="-7" y="740" on="0"/>
        <pt x="-3" y="761" on="0"/>
        <pt x="20" y="780" on="0"/>
        <pt x="75" y="780" on="0"/>
        <pt x="93" y="750" on="0"/>
        <pt x="93" y="706" on="0"/>
      </contour>
      <contour>
        <pt x="301" y="686" on="0"/>
        <pt x="277" y="667" on="0"/>
        <pt x="232" y="667" on="0"/>
        <pt x="209" y="686" on="0"/>
        <pt x="205" y="706" on="0"/>
        <pt x="205" y="740" on="0"/>
        <pt x="209" y="761" on="0"/>
        <pt x="232" y="780" on="0"/>
        <pt x="287" y="780" on="0"/>
        <pt x="305" y="750" on="0"/>
        <pt x="305" y="706" on="0"/>
      </contour>
    </TTGlyph>
    <TTGlyph name="igrave" xMin="26" yMin="0" xMax="248" yMax="827">
      <contour>
        <pt x="106" y="572" on="1"/>
        <pt x="192" y="572" on="1"/>
        <pt x="192" y="0" on="1"/>
        <pt x="106" y="0" on="1"/>
      </contour>
      <contour>
        <pt x="248" y="671" on="1"/>
        <pt x="209" y="625" on="1"/>
        <pt x="26" y="763" on="1"/>
        <pt x="80" y="827" on="1"/>
      </contour>
    </TTGlyph>
    <TTGlyph name="infinity" xMin="36" yMin="145" xMax="593" yMax="492">
      <contour>
        <pt x="36" y="416" on="0"/>
        <pt x="115" y="492" on="0"/>
        <pt x="278" y="492" on="0"/>
        <pt x="312" y="426" on="1"/>
        <pt x="344" y="492" on="0"/>
        <pt x="438" y="492" on="1"/>
        <pt x="514" y="492" on="0"/>
        <pt x="593" y="416" on="0"/>
        <pt x="593" y="221" on="0"/>
        <pt x="514" y="145" on="0"/>
        <pt x="350" y="145" on="0"/>
        <pt x="317" y="210" on="1"/>
        <pt x="284" y="145" on="0"/>
        <pt x="191" y="145" on="1"/>
        <pt x="115" y="145" on="0"/>
        <pt x="36" y="221" on="0"/>
      </contour>
      <contour>
        <pt x="433" y="216" on="1"/>
        <pt x="479" y="216" on="0"/>
        <pt x="527" y="261" on="0"/>
        <pt x="527" y="376" on="0"/>
        <pt x="479" y="421" on="0"/>
        <pt x="393" y="421" on="0"/>
        <pt x="355" y="383" on="0"/>
        <pt x="347" y="338" on="1"/>
        <pt x="340" y="293" on="1"/>
        <pt x="359" y="216" on="0"/>
      </contour>
      <contour>
        <pt x="196" y="421" on="1"/>
        <pt x="150" y="421" on="0"/>
        <pt x="102" y="376" on="0"/>
        <pt x="102" y="261" on="0"/>
        <pt x="150" y="216" on="0"/>
        <pt x="235" y="216" on="0"/>
        <pt x="273" y="252" on="0"/>
        <pt x="281" y="294" on="1"/>
        <pt x="289" y="343" on="1"/>
        <pt x="270" y="421" on="0"/>
      </contour>
    </TTGlyph>
    <TTGlyph name="integral" xMin="-29" yMin="-261" xMax="516" yMax="744">
      <contour>
        <pt x="199" y="-37" on="1"/>
        <pt x="199" y="519" on="1"/>
        <pt x="199" y="634" on="0"/>
        <pt x="293" y="744" on="0"/>
        <pt x="391" y="744" on="1"/>
        <pt x="464" y="744" on="0"/>
        <pt x="516" y="711" on="1"/>
        <pt x="488" y="649" on="1"/>
        <pt x="448" y="673" on="0"/>
        <pt x="393" y="673" on="1"/>
        <pt x="287" y="673" on="0"/>
        <pt x="287" y="519" on="1"/>
        <pt x="287" y="-37" on="1"/>
        <pt x="287" y="-152" on="0"/>
        <pt x="194" y="-261" on="0"/>
        <pt x="96" y="-261" on="1"/>
        <pt x="21" y="-261" on="0"/>
        <pt x="-29" y="-228" on="1"/>
        <pt x="-1" y="-166" on="1"/>
        <pt x="37" y="-190" on="0"/>
        <pt x="93" y="-190" on="1"/>
        <pt x="199" y="-190" on="0"/>
      </contour>
    </TTGlyph>
    <TTGlyph name="j" xMin="-71" yMin="-226" xMax="202" yMax="779">
      <contour>
        <pt x="28" y="-158" on="1"/>
        <pt x="106" y="-158" on="0"/>
        <pt x="106" y="-67" on="1"/>
        <pt x="106" y="572" on="1"/>
        <pt x="192" y="572" on="1"/>
        <pt x="192" y="-67" on="1"/>
        <pt x="192" y="-226" on="0"/>
        <pt x="34" y="-226" on="1"/>
        <pt x="-25" y="-226" on="0"/>
        <pt x="-71" y="-208" on="1"/>
        <pt x="-49" y="-143" on="1"/>
        <pt x="-14" y="-158" on="0"/>
      </contour>
      <contour>
        <pt x="149" y="668" on="1"/>
        <pt x="98" y="668" on="0"/>
        <pt x="98" y="779" on="0"/>
        <pt x="149" y="779" on="1"/>
        <pt x="202" y="779" on="0"/>
        <pt x="202" y="668" on="0"/>
      </contour>
    </TTGlyph>
    <TTGlyph name="k" xMin="106" yMin="0" xMax="545" yMax="768">
      <contour>
        <pt x="192" y="0" on="1"/>
        <pt x="106" y="0" on="1"/>
        <pt x="106" y="758" on="1"/>
        <pt x="192" y="768" on="1"/>
        <pt x="192" y="341" on="1"/>
        <pt x="271" y="341" on="1"/>
        <pt x="432" y="572" on="1"/>
        <pt x="527" y="572" on="1"/>
        <pt x="336" y="302" on="1"/>
        <pt x="545" y="0" on="1"/>
        <pt x="450" y="0" on="1"/>
        <pt x="259" y="277" on="1"/>
        <pt x="192" y="277" on="1"/>
      </contour>
    </TTGlyph>
    <TTGlyph name="l" xMin="106" yMin="0" xMax="192" yMax="770">
      <contour>
        <pt x="192" y="0" on="1"/>
        <pt x="106" y="0" on="1"/>
        <pt x="106" y="758" on="1"/>
        <pt x="192" y="770" on="1"/>
      </contour>
    </TTGlyph>
    <TTGlyph name="less" xMin="89" yMin="105" xMax="491" yMax="529">
      <contour>
        <pt x="89" y="274" on="1"/>
        <pt x="89" y="360" on="1"/>
        <pt x="491" y="529" on="1"/>
        <pt x="491" y="454" on="1"/>
        <pt x="155" y="317" on="1"/>
        <pt x="491" y="180" on="1"/>
        <pt x="491" y="105" on="1"/>
      </contour>
    </TTGlyph>
    <TTGlyph name="lessequal" xMin="89" yMin="0" xMax="491" yMax="599">
      <contour>
        <pt x="89" y="344" on="1"/>
        <pt x="89" y="430" on="1"/>
        <pt x="491" y="599" on="1"/>
        <pt x="491" y="524" on="1"/>
        <pt x="155" y="387" on="1"/>
        <pt x="491" y="250" on="1"/>
        <pt x="491" y="175" on="1"/>
      </contour>
      <contour>
        <pt x="92" y="0" on="1"/>
        <pt x="92" y="68" on="1"/>
        <pt x="488" y="68" on="1"/>
        <pt x="488" y="0" on="1"/>
      </contour>
    </TTGlyph>
    <TTGlyph name="logicalnot" xMin="92" yMin="146" xMax="488" yMax="352">
      <contour>
        <pt x="92" y="284" on="1"/>
        <pt x="92" y="352" on="1"/>
        <pt x="488" y="352" on="1"/>
        <pt x="488" y="146" on="1"/>
        <pt x="424" y="146" on="1"/>
        <pt x="424" y="284" on="1"/>
      </contour>
    </TTGlyph>
    <TTGlyph name="lozenge" xMin="42" yMin="-100" xMax="526" yMax="770">
      <contour>
        <pt x="237" y="770" on="1"/>
        <pt x="331" y="770" on="1"/>
        <pt x="526" y="335" on="1"/>
        <pt x="331" y="-100" on="1"/>
        <pt x="237" y="-100" on="1"/>
        <pt x="42" y="335" on="1"/>
      </contour>
      <contour>
        <pt x="284" y="-20" on="1"/>
        <pt x="439" y="335" on="1"/>
        <pt x="284" y="690" on="1"/>
        <pt x="129" y="335" on="1"/>
      </contour>
    </TTGlyph>
    <TTGlyph name="lslash" xMin="20" yMin="0" xMax="278" yMax="770">
      <contour>
        <pt x="192" y="0" on="1"/>
        <pt x="106" y="0" on="1"/>
        <pt x="106" y="330" on="1"/>
        <pt x="20" y="296" on="1"/>
        <pt x="20" y="359" on="1"/>
        <pt x="106" y="393" on="1"/>
        <pt x="106" y="758" on="1"/>
        <pt x="192" y="770" on="1"/>
        <pt x="192" y="428" on="1"/>
        <pt x="278" y="463" on="1"/>
        <pt x="278" y="400" on="1"/>
        <pt x="192" y="365" on="1"/>
      </contour>
    </TTGlyph>
    <TTGlyph name="m" xMin="106" yMin="0" xMax="890" yMax="586">
      <contour>
        <pt x="365" y="586" on="1"/>
        <pt x="481" y="586" on="0"/>
        <pt x="521" y="507" on="1"/>
        <pt x="558" y="540" on="0"/>
        <pt x="661" y="586" on="0"/>
        <pt x="716" y="586" on="1"/>
        <pt x="890" y="586" on="0"/>
        <pt x="890" y="407" on="1"/>
        <pt x="890" y="0" on="1"/>
        <pt x="804" y="0" on="1"/>
        <pt x="804" y="402" on="1"/>
        <pt x="804" y="458" on="0"/>
        <pt x="756" y="516" on="0"/>
        <pt x="702" y="516" on="1"/>
        <pt x="613" y="516" on="0"/>
        <pt x="538" y="448" on="1"/>
        <pt x="541" y="428" on="0"/>
        <pt x="541" y="407" on="1"/>
        <pt x="541" y="0" on="1"/>
        <pt x="455" y="0" on="1"/>
        <pt x="455" y="402" on="1"/>
        <pt x="455" y="458" on="0"/>
        <pt x="407" y="516" on="0"/>
        <pt x="352" y="516" on="1"/>
        <pt x="265" y="516" on="0"/>
        <pt x="192" y="453" on="1"/>
        <pt x="192" y="0" on="1"/>
        <pt x="106" y="0" on="1"/>
        <pt x="106" y="572" on="1"/>
        <pt x="159" y="572" on="1"/>
        <pt x="181" y="515" on="1"/>
        <pt x="265" y="586" on="0"/>
      </contour>
    </TTGlyph>
    <TTGlyph name="macron" xMin="48" yMin="688" xMax="306" yMax="761">
      <contour>
        <pt x="48" y="688" on="1"/>
        <pt x="48" y="761" on="1"/>
        <pt x="306" y="761" on="1"/>
        <pt x="306" y="688" on="1"/>
      </contour>
    </TTGlyph>
    <TTGlyph name="minus" xMin="92" yMin="284" xMax="488" yMax="352">
      <contour>
        <pt x="92" y="284" on="1"/>
        <pt x="92" y="352" on="1"/>
        <pt x="488" y="352" on="1"/>
        <pt x="488" y="284" on="1"/>
      </contour>
    </TTGlyph>
    <TTGlyph name="mu" xMin="114" yMin="-227" xMax="578" yMax="572">
      <contour>
        <pt x="200" y="-227" on="1"/>
        <pt x="114" y="-227" on="1"/>
        <pt x="114" y="572" on="1"/>
        <pt x="200" y="572" on="1"/>
        <pt x="200" y="130" on="1"/>
        <pt x="287" y="56" on="0"/>
        <pt x="384" y="56" on="1"/>
        <pt x="444" y="56" on="0"/>
        <pt x="492" y="109" on="0"/>
        <pt x="492" y="170" on="1"/>
        <pt x="492" y="572" on="1"/>
        <pt x="578" y="572" on="1"/>
        <pt x="578" y="164" on="1"/>
        <pt x="578" y="73" on="0"/>
        <pt x="501" y="-14" on="0"/>
        <pt x="300" y="-14" on="0"/>
        <pt x="200" y="59" on="1"/>
      </contour>
    </TTGlyph>
    <TTGlyph name="multiply" xMin="109" yMin="137" xMax="471" yMax="499">
      <contour>
        <pt x="156" y="137" on="1"/>
        <pt x="109" y="184" on="1"/>
        <pt x="242" y="318" on="1"/>
        <pt x="109" y="452" on="1"/>
        <pt x="156" y="499" on="1"/>
        <pt x="290" y="366" on="1"/>
        <pt x="424" y="499" on="1"/>
        <pt x="471" y="452" on="1"/>
        <pt x="338" y="318" on="1"/>
        <pt x="471" y="184" on="1"/>
        <pt x="424" y="137" on="1"/>
        <pt x="290" y="270" on="1"/>
      </contour>
    </TTGlyph>
    <TTGlyph name="n" xMin="106" yMin="0" xMax="558" yMax="586">
      <contour>
        <pt x="181" y="512" on="1"/>
        <pt x="282" y="586" on="0"/>
        <pt x="478" y="586" on="0"/>
        <pt x="558" y="497" on="0"/>
        <pt x="558" y="406" on="1"/>
        <pt x="558" y="0" on="1"/>
        <pt x="472" y="0" on="1"/>
        <pt x="472" y="404" on="1"/>
        <pt x="472" y="464" on="0"/>
        <pt x="426" y="516" on="0"/>
        <pt x="372" y="516" on="1"/>
        <pt x="279" y="516" on="0"/>
        <pt x="192" y="449" on="1"/>
        <pt x="192" y="0" on="1"/>
        <pt x="106" y="0" on="1"/>
        <pt x="106" y="572" on="1"/>
        <pt x="157" y="572" on="1"/>
      </contour>
    </TTGlyph>
    <TTGlyph name="nine" xMin="58" yMin="-14" xMax="553" yMax="744">
      <contour>
        <pt x="142" y="192" on="1"/>
        <pt x="148" y="56" on="0"/>
        <pt x="304" y="56" on="1"/>
        <pt x="383" y="56" on="0"/>
        <pt x="462" y="181" on="0"/>
        <pt x="467" y="325" on="1"/>
        <pt x="384" y="301" on="0"/>
        <pt x="233" y="301" on="0"/>
        <pt x="135" y="336" on="0"/>
        <pt x="108" y="367" on="1"/>
        <pt x="58" y="426" on="0"/>
        <pt x="58" y="613" on="0"/>
        <pt x="192" y="744" on="0"/>
        <pt x="444" y="744" on="0"/>
        <pt x="553" y="557" on="0"/>
        <pt x="553" y="373" on="1"/>
        <pt x="553" y="198" on="0"/>
        <pt x="502" y="98" on="1"/>
        <pt x="446" y="-14" on="0"/>
        <pt x="298" y="-14" on="1"/>
        <pt x="189" y="-14" on="0"/>
        <pt x="73" y="88" on="0"/>
        <pt x="67" y="183" on="1"/>
      </contour>
      <contour>
        <pt x="144" y="456" on="0"/>
        <pt x="223" y="370" on="0"/>
        <pt x="389" y="370" on="0"/>
        <pt x="468" y="390" on="1"/>
        <pt x="466" y="542" on="0"/>
        <pt x="395" y="673" on="0"/>
        <pt x="230" y="673" on="0"/>
        <pt x="144" y="585" on="0"/>
      </contour>
    </TTGlyph>
    <TTGlyph name="notequal" xMin="84" yMin="-66" xMax="480" yMax="735">
      <contour>
        <pt x="84" y="386" on="1"/>
        <pt x="84" y="454" on="1"/>
        <pt x="292" y="454" on="1"/>
        <pt x="367" y="735" on="1"/>
        <pt x="428" y="735" on="1"/>
        <pt x="352" y="454" on="1"/>
        <pt x="480" y="454" on="1"/>
        <pt x="480" y="386" on="1"/>
        <pt x="334" y="386" on="1"/>
        <pt x="298" y="250" on="1"/>
        <pt x="480" y="250" on="1"/>
        <pt x="480" y="182" on="1"/>
        <pt x="279" y="182" on="1"/>
        <pt x="213" y="-66" on="1"/>
        <pt x="153" y="-66" on="1"/>
        <pt x="219" y="182" on="1"/>
        <pt x="84" y="182" on="1"/>
        <pt x="84" y="250" on="1"/>
        <pt x="237" y="250" on="1"/>
        <pt x="274" y="386" on="1"/>
      </contour>
    </TTGlyph>
    <TTGlyph name="ntilde" xMin="106" yMin="0" xMax="558" yMax="790">
      <contour>
        <pt x="181" y="512" on="1"/>
        <pt x="282" y="586" on="0"/>
        <pt x="478" y="586" on="0"/>
        <pt x="558" y="497" on="0"/>
        <pt x="558" y="406" on="1"/>
        <pt x="558" y="0" on="1"/>
        <pt x="472" y="0" on="1"/>
        <pt x="472" y="404" on="1"/>
        <pt x="472" y="464" on="0"/>
        <pt x="426" y="516" on="0"/>
        <pt x="372" y="516" on="1"/>
        <pt x="279" y="516" on="0"/>
        <pt x="192" y="449" on="1"/>
        <pt x="192" y="0" on="1"/>
        <pt x="106" y="0" on="1"/>
        <pt x="106" y="572" on="1"/>
        <pt x="157" y="572" on="1"/>
      </contour>
      <contour>
        <pt x="507" y="772" on="1"/>
        <pt x="480" y="673" on="0"/>
        <pt x="418" y="673" on="1"/>
        <pt x="390" y="673" on="0"/>
        <pt x="293" y="709" on="0"/>
        <pt x="262" y="709" on="0"/>
        <pt x="242" y="688" on="0"/>
        <pt x="234" y="665" on="1"/>
        <pt x="177" y="683" on="1"/>
        <pt x="192" y="737" on="0"/>
        <pt x="237" y="782" on="0"/>
        <pt x="294" y="782" on="0"/>
        <pt x="392" y="746" on="0"/>
        <pt x="423" y="746" on="0"/>
        <pt x="443" y="766" on="0"/>
        <pt x="451" y="790" on="1"/>
      </contour>
    </TTGlyph>
    <TTGlyph name="numbersign" xMin="56" yMin="-76" xMax="744" yMax="805">
      <contour>
        <pt x="432" y="-76" on="1"/>
        <pt x="477" y="174" on="1"/>
        <pt x="254" y="174" on="1"/>
        <pt x="209" y="-76" on="1"/>
        <pt x="122" y="-76" on="1"/>
        <pt x="167" y="174" on="1"/>
        <pt x="56" y="174" on="1"/>
        <pt x="68" y="244" on="1"/>
        <pt x="180" y="244" on="1"/>
        <pt x="224" y="485" on="1"/>
        <pt x="111" y="485" on="1"/>
        <pt x="123" y="555" on="1"/>
        <pt x="236" y="555" on="1"/>
        <pt x="282" y="805" on="1"/>
        <pt x="369" y="805" on="1"/>
        <pt x="323" y="555" on="1"/>
        <pt x="546" y="555" on="1"/>
        <pt x="592" y="805" on="1"/>
        <pt x="679" y="805" on="1"/>
        <pt x="633" y="555" on="1"/>
        <pt x="744" y="555" on="1"/>
        <pt x="732" y="485" on="1"/>
        <pt x="621" y="485" on="1"/>
        <pt x="577" y="244" on="1"/>
        <pt x="689" y="244" on="1"/>
        <pt x="677" y="174" on="1"/>
        <pt x="564" y="174" on="1"/>
        <pt x="519" y="-76" on="1"/>
      </contour>
      <contour>
        <pt x="311" y="485" on="1"/>
        <pt x="267" y="244" on="1"/>
        <pt x="490" y="244" on="1"/>
        <pt x="534" y="485" on="1"/>
      </contour>
    </TTGlyph>
    <TTGlyph name="o" xMin="54" yMin="-14" xMax="550" yMax="586">
      <contour>
        <pt x="252" y="56" on="0"/>
        <pt x="352" y="56" on="0"/>
        <pt x="419" y="93" on="0"/>
        <pt x="451" y="162" on="0"/>
        <pt x="464" y="237" on="0"/>
        <pt x="464" y="335" on="0"/>
        <pt x="451" y="410" on="0"/>
        <pt x="419" y="479" on="0"/>
        <pt x="352" y="516" on="0"/>
        <pt x="252" y="516" on="0"/>
        <pt x="185" y="479" on="0"/>
        <pt x="152" y="410" on="0"/>
        <pt x="140" y="336" on="0"/>
        <pt x="140" y="236" on="0"/>
        <pt x="152" y="162" on="0"/>
        <pt x="185" y="93" on="0"/>
      </contour>
      <contour>
        <pt x="550" y="-14" on="0"/>
        <pt x="54" y="-14" on="0"/>
        <pt x="54" y="586" on="0"/>
        <pt x="550" y="586" on="0"/>
      </contour>
    </TTGlyph>
    <TTGlyph name="oacute" xMin="54" yMin="-14" xMax="550" yMax="827">
      <contour>
        <pt x="252" y="56" on="0"/>
        <pt x="352" y="56" on="0"/>
        <pt x="419" y="93" on="0"/>
        <pt x="451" y="162" on="0"/>
        <pt x="464" y="237" on="0"/>
        <pt x="464" y="335" on="0"/>
        <pt x="451" y="410" on="0"/>
        <pt x="419" y="479" on="0"/>
        <pt x="352" y="516" on="0"/>
        <pt x="252" y="516" on="0"/>
        <pt x="185" y="479" on="0"/>
        <pt x="152" y="410" on="0"/>
        <pt x="140" y="336" on="0"/>
        <pt x="140" y="236" on="0"/>
        <pt x="152" y="162" on="0"/>
        <pt x="185" y="93" on="0"/>
      </contour>
      <contour>
        <pt x="550" y="-14" on="0"/>
        <pt x="54" y="-14" on="0"/>
        <pt x="54" y="586" on="0"/>
        <pt x="550" y="586" on="0"/>
      </contour>
      <contour>
        <pt x="269" y="625" on="1"/>
        <pt x="230" y="671" on="1"/>
        <pt x="398" y="827" on="1"/>
        <pt x="452" y="763" on="1"/>
      </contour>
    </TTGlyph>
    <TTGlyph name="ocircumflex" xMin="54" yMin="-14" xMax="550" yMax="821">
      <contour>
        <pt x="252" y="56" on="0"/>
        <pt x="352" y="56" on="0"/>
        <pt x="419" y="93" on="0"/>
        <pt x="451" y="162" on="0"/>
        <pt x="464" y="237" on="0"/>
        <pt x="464" y="335" on="0"/>
        <pt x="451" y="410" on="0"/>
        <pt x="419" y="479" on="0"/>
        <pt x="352" y="516" on="0"/>
        <pt x="252" y="516" on="0"/>
        <pt x="185" y="479" on="0"/>
        <pt x="152" y="410" on="0"/>
        <pt x="140" y="336" on="0"/>
        <pt x="140" y="236" on="0"/>
        <pt x="152" y="162" on="0"/>
        <pt x="185" y="93" on="0"/>
      </contour>
      <contour>
        <pt x="550" y="-14" on="0"/>
        <pt x="54" y="-14" on="0"/>
        <pt x="54" y="586" on="0"/>
        <pt x="550" y="586" on="0"/>
      </contour>
      <contour>
        <pt x="185" y="632" on="1"/>
        <pt x="149" y="668" on="1"/>
        <pt x="283" y="821" on="1"/>
        <pt x="320" y="821" on="1"/>
        <pt x="454" y="668" on="1"/>
        <pt x="418" y="632" on="1"/>
        <pt x="301" y="728" on="1"/>
      </contour>
    </TTGlyph>
    <TTGlyph name="odieresis" xMin="54" yMin="-14" xMax="550" yMax="780">
      <contour>
        <pt x="252" y="56" on="0"/>
        <pt x="352" y="56" on="0"/>
        <pt x="419" y="93" on="0"/>
        <pt x="451" y="162" on="0"/>
        <pt x="464" y="237" on="0"/>
        <pt x="464" y="335" on="0"/>
        <pt x="451" y="410" on="0"/>
        <pt x="419" y="479" on="0"/>
        <pt x="352" y="516" on="0"/>
        <pt x="252" y="516" on="0"/>
        <pt x="185" y="479" on="0"/>
        <pt x="152" y="410" on="0"/>
        <pt x="140" y="336" on="0"/>
        <pt x="140" y="236" on="0"/>
        <pt x="152" y="162" on="0"/>
        <pt x="185" y="93" on="0"/>
      </contour>
      <contour>
        <pt x="550" y="-14" on="0"/>
        <pt x="54" y="-14" on="0"/>
        <pt x="54" y="586" on="0"/>
        <pt x="550" y="586" on="0"/>
      </contour>
      <contour>
        <pt x="242" y="686" on="0"/>
        <pt x="218" y="667" on="0"/>
        <pt x="173" y="667" on="0"/>
        <pt x="150" y="686" on="0"/>
        <pt x="146" y="706" on="0"/>
        <pt x="146" y="740" on="0"/>
        <pt x="150" y="761" on="0"/>
        <pt x="173" y="780" on="0"/>
        <pt x="228" y="780" on="0"/>
        <pt x="246" y="750" on="0"/>
        <pt x="246" y="706" on="0"/>
      </contour>
      <contour>
        <pt x="454" y="686" on="0"/>
        <pt x="430" y="667" on="0"/>
        <pt x="385" y="667" on="0"/>
        <pt x="362" y="686" on="0"/>
        <pt x="358" y="706" on="0"/>
        <pt x="358" y="740" on="0"/>
        <pt x="362" y="761" on="0"/>
        <pt x="385" y="780" on="0"/>
        <pt x="440" y="780" on="0"/>
        <pt x="458" y="750" on="0"/>
        <pt x="458" y="706" on="0"/>
      </contour>
    </TTGlyph>
    <TTGlyph name="oe" xMin="54" yMin="-14" xMax="940" yMax="586">
      <contour>
        <pt x="708" y="-14" on="1"/>
        <pt x="560" y="-14" on="0"/>
        <pt x="505" y="87" on="1"/>
        <pt x="445" y="-14" on="0"/>
        <pt x="302" y="-14" on="1"/>
        <pt x="54" y="-14" on="0"/>
        <pt x="54" y="586" on="0"/>
        <pt x="302" y="586" on="1"/>
        <pt x="447" y="586" on="0"/>
        <pt x="506" y="482" on="1"/>
        <pt x="565" y="586" on="0"/>
        <pt x="704" y="586" on="1"/>
        <pt x="940" y="586" on="0"/>
        <pt x="940" y="298" on="1"/>
        <pt x="940" y="277" on="1"/>
        <pt x="550" y="277" on="1"/>
        <pt x="552" y="162" on="0"/>
        <pt x="623" y="56" on="0"/>
        <pt x="708" y="56" on="1"/>
        <pt x="848" y="56" on="0"/>
        <pt x="860" y="171" on="1"/>
        <pt x="931" y="167" on="1"/>
        <pt x="912" y="-14" on="0"/>
      </contour>
      <contour>
        <pt x="218" y="74" on="1"/>
        <pt x="252" y="56" on="0"/>
        <pt x="350" y="56" on="0"/>
        <pt x="416" y="91" on="0"/>
        <pt x="433" y="123" on="1"/>
        <pt x="464" y="181" on="0"/>
        <pt x="464" y="274" on="1"/>
        <pt x="464" y="376" on="0"/>
        <pt x="437" y="440" on="1"/>
        <pt x="404" y="516" on="0"/>
        <pt x="302" y="516" on="1"/>
        <pt x="203" y="516" on="0"/>
        <pt x="168" y="444" on="1"/>
        <pt x="140" y="385" on="0"/>
        <pt x="140" y="286" on="1"/>
        <pt x="140" y="118" on="0"/>
      </contour>
      <contour>
        <pt x="849" y="425" on="0"/>
        <pt x="783" y="516" on="0"/>
        <pt x="626" y="516" on="0"/>
        <pt x="559" y="423" on="0"/>
        <pt x="552" y="341" on="1"/>
        <pt x="854" y="341" on="1"/>
      </contour>
    </TTGlyph>
    <TTGlyph name="ogonek" xMin="44" yMin="-221" xMax="282" yMax="43">
      <contour>
        <pt x="145" y="-221" on="1"/>
        <pt x="94" y="-221" on="0"/>
        <pt x="44" y="-172" on="0"/>
        <pt x="44" y="-91" on="0"/>
        <pt x="90" y="-42" on="0"/>
        <pt x="137" y="-13" on="1"/>
        <pt x="228" y="43" on="1"/>
        <pt x="252" y="8" on="1"/>
        <pt x="170" y="-42" on="1"/>
        <pt x="135" y="-64" on="0"/>
        <pt x="107" y="-97" on="0"/>
        <pt x="107" y="-119" on="1"/>
        <pt x="107" y="-165" on="0"/>
        <pt x="206" y="-165" on="0"/>
        <pt x="241" y="-106" on="1"/>
        <pt x="282" y="-132" on="1"/>
        <pt x="233" y="-221" on="0"/>
      </contour>
    </TTGlyph>
    <TTGlyph name="ograve" xMin="54" yMin="-14" xMax="550" yMax="827">
      <contour>
        <pt x="252" y="56" on="0"/>
        <pt x="352" y="56" on="0"/>
        <pt x="419" y="93" on="0"/>
        <pt x="451" y="162" on="0"/>
        <pt x="464" y="237" on="0"/>
        <pt x="464" y="335" on="0"/>
        <pt x="451" y="410" on="0"/>
        <pt x="419" y="479" on="0"/>
        <pt x="352" y="516" on="0"/>
        <pt x="252" y="516" on="0"/>
        <pt x="185" y="479" on="0"/>
        <pt x="152" y="410" on="0"/>
        <pt x="140" y="336" on="0"/>
        <pt x="140" y="236" on="0"/>
        <pt x="152" y="162" on="0"/>
        <pt x="185" y="93" on="0"/>
      </contour>
      <contour>
        <pt x="550" y="-14" on="0"/>
        <pt x="54" y="-14" on="0"/>
        <pt x="54" y="586" on="0"/>
        <pt x="550" y="586" on="0"/>
      </contour>
      <contour>
        <pt x="411" y="671" on="1"/>
        <pt x="372" y="625" on="1"/>
        <pt x="189" y="763" on="1"/>
        <pt x="243" y="827" on="1"/>
      </contour>
    </TTGlyph>
    <TTGlyph name="one" xMin="142" yMin="0" xMax="533" yMax="730">
      <contour>
        <pt x="146" y="621" on="1"/>
        <pt x="146" y="675" on="1"/>
        <pt x="255" y="687" on="0"/>
        <pt x="316" y="730" on="1"/>
        <pt x="381" y="730" on="1"/>
        <pt x="381" y="71" on="1"/>
        <pt x="533" y="71" on="1"/>
        <pt x="533" y="0" on="1"/>
        <pt x="142" y="0" on="1"/>
        <pt x="142" y="71" on="1"/>
        <pt x="293" y="71" on="1"/>
        <pt x="293" y="621" on="1"/>
      </contour>
    </TTGlyph>
    <TTGlyph name="onehalf" xMin="93" yMin="-36" xMax="892" yMax="765">
      <contour>
        <pt x="333" y="-36" on="1"/>
        <pt x="547" y="765" on="1"/>
        <pt x="608" y="765" on="1"/>
        <pt x="393" y="-36" on="1"/>
      </contour>
      <contour>
        <pt x="754" y="414" on="1"/>
        <pt x="818" y="414" on="0"/>
        <pt x="885" y="352" on="0"/>
        <pt x="885" y="246" on="0"/>
        <pt x="820" y="174" on="1"/>
        <pt x="715" y="61" on="1"/>
        <pt x="892" y="61" on="1"/>
        <pt x="892" y="0" on="1"/>
        <pt x="611" y="0" on="1"/>
        <pt x="611" y="47" on="1"/>
        <pt x="758" y="206" on="1"/>
        <pt x="809" y="262" on="0"/>
        <pt x="809" y="299" on="1"/>
        <pt x="809" y="323" on="0"/>
        <pt x="778" y="353" on="0"/>
        <pt x="748" y="353" on="1"/>
        <pt x="689" y="353" on="0"/>
        <pt x="683" y="297" on="1"/>
        <pt x="616" y="304" on="1"/>
        <pt x="627" y="414" on="0"/>
      </contour>
      <contour>
        <pt x="93" y="655" on="1"/>
        <pt x="93" y="701" on="1"/>
        <pt x="159" y="707" on="0"/>
        <pt x="192" y="731" on="1"/>
        <pt x="254" y="731" on="1"/>
        <pt x="254" y="326" on="1"/>
        <pt x="175" y="326" on="1"/>
        <pt x="175" y="655" on="1"/>
      </contour>
    </TTGlyph>
    <TTGlyph name="onequarter" xMin="93" yMin="-36" xMax="897" yMax="765">
      <contour>
        <pt x="854" y="0" on="1"/>
        <pt x="782" y="0" on="1"/>
        <pt x="782" y="79" on="1"/>
        <pt x="584" y="79" on="1"/>
        <pt x="584" y="135" on="1"/>
        <pt x="739" y="405" on="1"/>
        <pt x="854" y="405" on="1"/>
        <pt x="854" y="139" on="1"/>
        <pt x="897" y="139" on="1"/>
        <pt x="897" y="79" on="1"/>
        <pt x="854" y="79" on="1"/>
      </contour>
      <contour>
        <pt x="782" y="139" on="1"/>
        <pt x="782" y="354" on="1"/>
        <pt x="660" y="139" on="1"/>
      </contour>
      <contour>
        <pt x="93" y="655" on="1"/>
        <pt x="93" y="701" on="1"/>
        <pt x="159" y="707" on="0"/>
        <pt x="192" y="731" on="1"/>
        <pt x="254" y="731" on="1"/>
        <pt x="254" y="326" on="1"/>
        <pt x="175" y="326" on="1"/>
        <pt x="175" y="655" on="1"/>
      </contour>
      <contour>
        <pt x="341" y="-36" on="1"/>
        <pt x="555" y="765" on="1"/>
        <pt x="616" y="765" on="1"/>
        <pt x="401" y="-36" on="1"/>
      </contour>
    </TTGlyph>
    <TTGlyph name="onesuperior" xMin="86" yMin="340" xMax="247" yMax="745">
      <contour>
        <pt x="86" y="669" on="1"/>
        <pt x="86" y="715" on="1"/>
        <pt x="152" y="721" on="0"/>
        <pt x="185" y="745" on="1"/>
        <pt x="247" y="745" on="1"/>
        <pt x="247" y="340" on="1"/>
        <pt x="168" y="340" on="1"/>
        <pt x="168" y="669" on="1"/>
      </contour>
    </TTGlyph>
    <TTGlyph name="ordfeminine" xMin="36" yMin="228" xMax="372" yMax="760">
      <contour>
        <pt x="214" y="760" on="1"/>
        <pt x="282" y="760" on="0"/>
        <pt x="361" y="699" on="0"/>
        <pt x="361" y="620" on="1"/>
        <pt x="361" y="350" on="1"/>
        <pt x="310" y="350" on="1"/>
        <pt x="289" y="405" on="1"/>
        <pt x="226" y="340" on="0"/>
        <pt x="150" y="340" on="1"/>
        <pt x="96" y="340" on="0"/>
        <pt x="44" y="398" on="0"/>
        <pt x="44" y="496" on="0"/>
        <pt x="106" y="556" on="0"/>
        <pt x="190" y="569" on="1"/>
        <pt x="283" y="584" on="1"/>
        <pt x="283" y="620" on="1"/>
        <pt x="283" y="699" on="0"/>
        <pt x="141" y="699" on="0"/>
        <pt x="129" y="631" on="1"/>
        <pt x="68" y="650" on="1"/>
        <pt x="92" y="760" on="0"/>
      </contour>
      <contour>
        <pt x="121" y="449" on="1"/>
        <pt x="121" y="398" on="0"/>
        <pt x="228" y="398" on="0"/>
        <pt x="283" y="455" on="1"/>
        <pt x="283" y="533" on="1"/>
        <pt x="201" y="519" on="1"/>
        <pt x="154" y="511" on="0"/>
        <pt x="121" y="475" on="0"/>
      </contour>
      <contour>
        <pt x="36" y="228" on="1"/>
        <pt x="36" y="279" on="1"/>
        <pt x="372" y="279" on="1"/>
        <pt x="372" y="228" on="1"/>
      </contour>
    </TTGlyph>
    <TTGlyph name="ordmasculine" xMin="32" yMin="228" xMax="389" yMax="760">
      <contour>
        <pt x="42" y="228" on="1"/>
        <pt x="42" y="279" on="1"/>
        <pt x="378" y="279" on="1"/>
        <pt x="378" y="228" on="1"/>
      </contour>
      <contour>
        <pt x="111" y="479" on="0"/>
        <pt x="152" y="402" on="0"/>
        <pt x="269" y="402" on="0"/>
        <pt x="310" y="479" on="0"/>
        <pt x="310" y="621" on="0"/>
        <pt x="269" y="699" on="0"/>
        <pt x="152" y="699" on="0"/>
        <pt x="111" y="621" on="0"/>
      </contour>
      <contour>
        <pt x="389" y="760" on="0"/>
        <pt x="389" y="340" on="0"/>
        <pt x="32" y="340" on="0"/>
        <pt x="32" y="760" on="0"/>
      </contour>
    </TTGlyph>
    <TTGlyph name="oslash" xMin="54" yMin="-115" xMax="550" yMax="686">
      <contour>
        <pt x="54" y="286" on="1"/>
        <pt x="54" y="586" on="0"/>
        <pt x="302" y="586" on="1"/>
        <pt x="321" y="586" on="0"/>
        <pt x="351" y="582" on="1"/>
        <pt x="379" y="686" on="1"/>
        <pt x="440" y="686" on="1"/>
        <pt x="408" y="568" on="1"/>
        <pt x="550" y="513" on="0"/>
        <pt x="550" y="286" on="1"/>
        <pt x="550" y="-14" on="0"/>
        <pt x="302" y="-14" on="1"/>
        <pt x="276" y="-14" on="0"/>
        <pt x="253" y="-11" on="1"/>
        <pt x="225" y="-115" on="1"/>
        <pt x="165" y="-115" on="1"/>
        <pt x="196" y="3" on="1"/>
        <pt x="54" y="57" on="0"/>
      </contour>
      <contour>
        <pt x="140" y="286" on="1"/>
        <pt x="140" y="121" on="0"/>
        <pt x="216" y="76" on="1"/>
        <pt x="333" y="513" on="1"/>
        <pt x="318" y="516" on="0"/>
        <pt x="302" y="516" on="1"/>
        <pt x="203" y="516" on="0"/>
        <pt x="168" y="444" on="1"/>
        <pt x="140" y="385" on="0"/>
      </contour>
      <contour>
        <pt x="302" y="56" on="1"/>
        <pt x="402" y="56" on="0"/>
        <pt x="435" y="128" on="1"/>
        <pt x="464" y="190" on="0"/>
        <pt x="464" y="286" on="1"/>
        <pt x="464" y="449" on="0"/>
        <pt x="388" y="495" on="1"/>
        <pt x="271" y="58" on="1"/>
        <pt x="281" y="56" on="0"/>
      </contour>
    </TTGlyph>
    <TTGlyph name="otilde" xMin="54" yMin="-14" xMax="550" yMax="790">
      <contour>
        <pt x="252" y="56" on="0"/>
        <pt x="352" y="56" on="0"/>
        <pt x="419" y="93" on="0"/>
        <pt x="451" y="162" on="0"/>
        <pt x="464" y="237" on="0"/>
        <pt x="464" y="335" on="0"/>
        <pt x="451" y="410" on="0"/>
        <pt x="419" y="479" on="0"/>
        <pt x="352" y="516" on="0"/>
        <pt x="252" y="516" on="0"/>
        <pt x="185" y="479" on="0"/>
        <pt x="152" y="410" on="0"/>
        <pt x="140" y="336" on="0"/>
        <pt x="140" y="236" on="0"/>
        <pt x="152" y="162" on="0"/>
        <pt x="185" y="93" on="0"/>
      </contour>
      <contour>
        <pt x="550" y="-14" on="0"/>
        <pt x="54" y="-14" on="0"/>
        <pt x="54" y="586" on="0"/>
        <pt x="550" y="586" on="0"/>
      </contour>
      <contour>
        <pt x="467" y="772" on="1"/>
        <pt x="440" y="673" on="0"/>
        <pt x="378" y="673" on="1"/>
        <pt x="350" y="673" on="0"/>
        <pt x="253" y="709" on="0"/>
        <pt x="222" y="709" on="0"/>
        <pt x="202" y="688" on="0"/>
        <pt x="194" y="665" on="1"/>
        <pt x="137" y="683" on="1"/>
        <pt x="152" y="737" on="0"/>
        <pt x="197" y="782" on="0"/>
        <pt x="254" y="782" on="0"/>
        <pt x="352" y="746" on="0"/>
        <pt x="383" y="746" on="0"/>
        <pt x="403" y="766" on="0"/>
        <pt x="411" y="790" on="1"/>
      </contour>
    </TTGlyph>
    <TTGlyph name="p" xMin="106" yMin="-234" xMax="573" yMax="586">
      <contour>
        <pt x="357" y="586" on="1"/>
        <pt x="573" y="586" on="0"/>
        <pt x="573" y="-14" on="0"/>
        <pt x="349" y="-14" on="1"/>
        <pt x="276" y="-14" on="0"/>
        <pt x="192" y="17" on="1"/>
        <pt x="192" y="-222" on="1"/>
        <pt x="106" y="-234" on="1"/>
        <pt x="106" y="572" on="1"/>
        <pt x="157" y="572" on="1"/>
        <pt x="177" y="522" on="1"/>
        <pt x="264" y="586" on="0"/>
      </contour>
      <contour>
        <pt x="487" y="385" on="0"/>
        <pt x="418" y="516" on="0"/>
        <pt x="262" y="516" on="0"/>
        <pt x="192" y="465" on="1"/>
        <pt x="192" y="82" on="1"/>
        <pt x="254" y="56" on="0"/>
        <pt x="333" y="56" on="1"/>
        <pt x="487" y="56" on="0"/>
        <pt x="487" y="286" on="1"/>
      </contour>
    </TTGlyph>
    <TTGlyph name="paragraph" xMin="26" yMin="0" xMax="369" yMax="670">
      <contour>
        <pt x="369" y="0" on="1"/>
        <pt x="281" y="0" on="1"/>
        <pt x="281" y="281" on="1"/>
        <pt x="224" y="281" on="1"/>
        <pt x="124" y="281" on="0"/>
        <pt x="26" y="392" on="0"/>
        <pt x="26" y="559" on="0"/>
        <pt x="124" y="670" on="0"/>
        <pt x="224" y="670" on="1"/>
        <pt x="369" y="670" on="1"/>
      </contour>
    </TTGlyph>
    <TTGlyph name="parenleft" xMin="58" yMin="-66" xMax="294" yMax="735">
      <contour>
        <pt x="294" y="4" on="1"/>
        <pt x="294" y="-66" on="1"/>
        <pt x="189" y="-66" on="0"/>
        <pt x="139" y="-6" on="1"/>
        <pt x="86" y="56" on="0"/>
        <pt x="72" y="142" on="1"/>
        <pt x="58" y="226" on="0"/>
        <pt x="58" y="391" on="0"/>
        <pt x="64" y="479" on="0"/>
        <pt x="80" y="576" on="0"/>
        <pt x="114" y="646" on="0"/>
        <pt x="139" y="676" on="1"/>
        <pt x="189" y="735" on="0"/>
        <pt x="294" y="735" on="1"/>
        <pt x="294" y="665" on="1"/>
        <pt x="257" y="665" on="0"/>
        <pt x="203" y="627" on="0"/>
        <pt x="173" y="569" on="0"/>
        <pt x="164" y="522" on="1"/>
        <pt x="151" y="449" on="0"/>
        <pt x="151" y="277" on="0"/>
        <pt x="156" y="193" on="0"/>
        <pt x="173" y="100" on="0"/>
        <pt x="203" y="42" on="0"/>
        <pt x="257" y="4" on="0"/>
      </contour>
    </TTGlyph>
    <TTGlyph name="parenright" xMin="6" yMin="-66" xMax="242" yMax="735">
      <contour>
        <pt x="6" y="665" on="1"/>
        <pt x="6" y="735" on="1"/>
        <pt x="111" y="735" on="0"/>
        <pt x="161" y="676" on="1"/>
        <pt x="214" y="613" on="0"/>
        <pt x="228" y="528" on="1"/>
        <pt x="242" y="443" on="0"/>
        <pt x="242" y="278" on="0"/>
        <pt x="236" y="190" on="0"/>
        <pt x="220" y="93" on="0"/>
        <pt x="186" y="23" on="0"/>
        <pt x="161" y="-6" on="1"/>
        <pt x="111" y="-66" on="0"/>
        <pt x="6" y="-66" on="1"/>
        <pt x="6" y="4" on="1"/>
        <pt x="43" y="4" on="0"/>
        <pt x="97" y="42" on="0"/>
        <pt x="127" y="100" on="0"/>
        <pt x="136" y="146" on="1"/>
        <pt x="149" y="220" on="0"/>
        <pt x="149" y="392" on="0"/>
        <pt x="144" y="476" on="0"/>
        <pt x="127" y="569" on="0"/>
        <pt x="97" y="627" on="0"/>
        <pt x="43" y="665" on="0"/>
      </contour>
    </TTGlyph>
    <TTGlyph name="partialdiff" xMin="54" yMin="-14" xMax="557" yMax="764">
      <contour>
        <pt x="557" y="373" on="1"/>
        <pt x="557" y="173" on="0"/>
        <pt x="417" y="-14" on="0"/>
        <pt x="258" y="-14" on="1"/>
        <pt x="145" y="-14" on="0"/>
        <pt x="54" y="85" on="0"/>
        <pt x="54" y="168" on="1"/>
        <pt x="54" y="334" on="0"/>
        <pt x="192" y="506" on="0"/>
        <pt x="348" y="506" on="1"/>
        <pt x="435" y="506" on="0"/>
        <pt x="475" y="451" on="1"/>
        <pt x="465" y="604" on="0"/>
        <pt x="370" y="714" on="1"/>
        <pt x="421" y="764" on="1"/>
        <pt x="557" y="618" on="0"/>
      </contour>
      <contour>
        <pt x="270" y="55" on="1"/>
        <pt x="374" y="55" on="0"/>
        <pt x="465" y="186" on="0"/>
        <pt x="465" y="437" on="0"/>
        <pt x="337" y="437" on="1"/>
        <pt x="232" y="437" on="0"/>
        <pt x="141" y="306" on="0"/>
        <pt x="141" y="55" on="0"/>
      </contour>
    </TTGlyph>
    <TTGlyph name="percent" xMin="50" yMin="-66" xMax="904" yMax="739">
      <contour>
        <pt x="341" y="-66" on="1"/>
        <pt x="555" y="735" on="1"/>
        <pt x="616" y="735" on="1"/>
        <pt x="401" y="-66" on="1"/>
      </contour>
      <contour>
        <pt x="828" y="8" on="1"/>
        <pt x="798" y="-8" on="0"/>
        <pt x="694" y="-8" on="0"/>
        <pt x="624" y="51" on="0"/>
        <pt x="601" y="138" on="0"/>
        <pt x="601" y="267" on="0"/>
        <pt x="624" y="354" on="0"/>
        <pt x="694" y="413" on="0"/>
        <pt x="798" y="413" on="0"/>
        <pt x="859" y="381" on="0"/>
        <pt x="875" y="351" on="1"/>
        <pt x="904" y="297" on="0"/>
        <pt x="904" y="203" on="1"/>
        <pt x="904" y="48" on="0"/>
      </contour>
      <contour>
        <pt x="710" y="52" on="0"/>
        <pt x="796" y="52" on="0"/>
        <pt x="827" y="125" on="0"/>
        <pt x="827" y="280" on="0"/>
        <pt x="796" y="353" on="0"/>
        <pt x="710" y="353" on="0"/>
        <pt x="678" y="280" on="0"/>
        <pt x="678" y="125" on="0"/>
      </contour>
      <contour>
        <pt x="278" y="334" on="1"/>
        <pt x="247" y="318" on="0"/>
        <pt x="143" y="318" on="0"/>
        <pt x="73" y="377" on="0"/>
        <pt x="50" y="464" on="0"/>
        <pt x="50" y="593" on="0"/>
        <pt x="73" y="680" on="0"/>
        <pt x="143" y="739" on="0"/>
        <pt x="247" y="739" on="0"/>
        <pt x="308" y="707" on="0"/>
        <pt x="324" y="677" on="1"/>
        <pt x="353" y="623" on="0"/>
        <pt x="353" y="529" on="1"/>
        <pt x="353" y="374" on="0"/>
      </contour>
      <contour>
        <pt x="159" y="378" on="0"/>
        <pt x="245" y="378" on="0"/>
        <pt x="276" y="451" on="0"/>
        <pt x="276" y="606" on="0"/>
        <pt x="245" y="679" on="0"/>
        <pt x="159" y="679" on="0"/>
        <pt x="127" y="606" on="0"/>
        <pt x="127" y="451" on="0"/>
      </contour>
    </TTGlyph>
    <TTGlyph name="period" xMin="60" yMin="-8" xMax="168" yMax="115">
      <contour>
        <pt x="163" y="12" on="0"/>
        <pt x="137" y="-8" on="0"/>
        <pt x="90" y="-8" on="0"/>
        <pt x="65" y="12" on="0"/>
        <pt x="60" y="35" on="0"/>
        <pt x="60" y="66" on="0"/>
        <pt x="63" y="84" on="0"/>
        <pt x="68" y="94" on="1"/>
        <pt x="76" y="115" on="0"/>
        <pt x="148" y="115" on="0"/>
        <pt x="168" y="82" on="0"/>
        <pt x="168" y="35" on="0"/>
      </contour>
    </TTGlyph>
    <TTGlyph name="periodcentered" xMin="60" yMin="257" xMax="168" yMax="380">
      <contour>
        <pt x="163" y="277" on="0"/>
        <pt x="137" y="257" on="0"/>
        <pt x="90" y="257" on="0"/>
        <pt x="65" y="277" on="0"/>
        <pt x="60" y="300" on="0"/>
        <pt x="60" y="331" on="0"/>
        <pt x="63" y="349" on="0"/>
        <pt x="68" y="360" on="1"/>
        <pt x="76" y="380" on="0"/>
        <pt x="148" y="380" on="0"/>
        <pt x="168" y="347" on="0"/>
        <pt x="168" y="300" on="0"/>
      </contour>
    </TTGlyph>
    <TTGlyph name="perthousand" xMin="50" yMin="-66" xMax="1304" yMax="739">
      <contour>
        <pt x="341" y="-66" on="1"/>
        <pt x="555" y="735" on="1"/>
        <pt x="616" y="735" on="1"/>
        <pt x="401" y="-66" on="1"/>
      </contour>
      <contour>
        <pt x="1228" y="8" on="1"/>
        <pt x="1198" y="-8" on="0"/>
        <pt x="1094" y="-8" on="0"/>
        <pt x="1024" y="51" on="0"/>
        <pt x="1001" y="138" on="0"/>
        <pt x="1001" y="267" on="0"/>
        <pt x="1024" y="354" on="0"/>
        <pt x="1094" y="413" on="0"/>
        <pt x="1198" y="413" on="0"/>
        <pt x="1259" y="381" on="0"/>
        <pt x="1275" y="351" on="1"/>
        <pt x="1304" y="297" on="0"/>
        <pt x="1304" y="203" on="1"/>
        <pt x="1304" y="48" on="0"/>
      </contour>
      <contour>
        <pt x="1110" y="52" on="0"/>
        <pt x="1196" y="52" on="0"/>
        <pt x="1227" y="125" on="0"/>
        <pt x="1227" y="280" on="0"/>
        <pt x="1196" y="353" on="0"/>
        <pt x="1110" y="353" on="0"/>
        <pt x="1078" y="280" on="0"/>
        <pt x="1078" y="125" on="0"/>
      </contour>
      <contour>
        <pt x="278" y="334" on="1"/>
        <pt x="247" y="318" on="0"/>
        <pt x="143" y="318" on="0"/>
        <pt x="73" y="377" on="0"/>
        <pt x="50" y="464" on="0"/>
        <pt x="50" y="593" on="0"/>
        <pt x="73" y="680" on="0"/>
        <pt x="143" y="739" on="0"/>
        <pt x="247" y="739" on="0"/>
        <pt x="308" y="707" on="0"/>
        <pt x="324" y="677" on="1"/>
        <pt x="353" y="623" on="0"/>
        <pt x="353" y="529" on="1"/>
        <pt x="353" y="374" on="0"/>
      </contour>
      <contour>
        <pt x="159" y="378" on="0"/>
        <pt x="245" y="378" on="0"/>
        <pt x="276" y="451" on="0"/>
        <pt x="276" y="606" on="0"/>
        <pt x="245" y="679" on="0"/>
        <pt x="159" y="679" on="0"/>
        <pt x="127" y="606" on="0"/>
        <pt x="127" y="451" on="0"/>
      </contour>
      <contour>
        <pt x="828" y="8" on="1"/>
        <pt x="798" y="-8" on="0"/>
        <pt x="694" y="-8" on="0"/>
        <pt x="624" y="51" on="0"/>
        <pt x="601" y="138" on="0"/>
        <pt x="601" y="267" on="0"/>
        <pt x="624" y="354" on="0"/>
        <pt x="694" y="413" on="0"/>
        <pt x="798" y="413" on="0"/>
        <pt x="859" y="381" on="0"/>
        <pt x="875" y="351" on="1"/>
        <pt x="904" y="297" on="0"/>
        <pt x="904" y="203" on="1"/>
        <pt x="904" y="48" on="0"/>
      </contour>
      <contour>
        <pt x="710" y="52" on="0"/>
        <pt x="796" y="52" on="0"/>
        <pt x="827" y="125" on="0"/>
        <pt x="827" y="280" on="0"/>
        <pt x="796" y="353" on="0"/>
        <pt x="710" y="353" on="0"/>
        <pt x="678" y="280" on="0"/>
        <pt x="678" y="125" on="0"/>
      </contour>
    </TTGlyph>
    <TTGlyph name="pi" xMin="64" yMin="0" xMax="575" yMax="572">
      <contour>
        <pt x="64" y="513" on="1"/>
        <pt x="64" y="572" on="1"/>
        <pt x="575" y="572" on="1"/>
        <pt x="575" y="513" on="1"/>
        <pt x="515" y="513" on="1"/>
        <pt x="515" y="0" on="1"/>
        <pt x="429" y="0" on="1"/>
        <pt x="429" y="513" on="1"/>
        <pt x="210" y="513" on="1"/>
        <pt x="210" y="0" on="1"/>
        <pt x="124" y="0" on="1"/>
        <pt x="124" y="513" on="1"/>
      </contour>
    </TTGlyph>
    <TTGlyph name="plus" xMin="92" yMin="120" xMax="488" yMax="516">
      <contour>
        <pt x="92" y="284" on="1"/>
        <pt x="92" y="352" on="1"/>
        <pt x="256" y="352" on="1"/>
        <pt x="256" y="516" on="1"/>
        <pt x="324" y="516" on="1"/>
        <pt x="324" y="352" on="1"/>
        <pt x="488" y="352" on="1"/>
        <pt x="488" y="284" on="1"/>
        <pt x="324" y="284" on="1"/>
        <pt x="324" y="120" on="1"/>
        <pt x="256" y="120" on="1"/>
        <pt x="256" y="284" on="1"/>
      </contour>
    </TTGlyph>
    <TTGlyph name="plusminus" xMin="92" yMin="0" xMax="488" yMax="566">
      <contour>
        <pt x="92" y="334" on="1"/>
        <pt x="92" y="402" on="1"/>
        <pt x="256" y="402" on="1"/>
        <pt x="256" y="566" on="1"/>
        <pt x="324" y="566" on="1"/>
        <pt x="324" y="402" on="1"/>
        <pt x="488" y="402" on="1"/>
        <pt x="488" y="334" on="1"/>
        <pt x="324" y="334" on="1"/>
        <pt x="324" y="170" on="1"/>
        <pt x="256" y="170" on="1"/>
        <pt x="256" y="334" on="1"/>
      </contour>
      <contour>
        <pt x="92" y="0" on="1"/>
        <pt x="92" y="68" on="1"/>
        <pt x="488" y="68" on="1"/>
        <pt x="488" y="0" on="1"/>
      </contour>
    </TTGlyph>
    <TTGlyph name="product" xMin="72" yMin="-190" xMax="675" yMax="730">
      <contour>
        <pt x="72" y="670" on="1"/>
        <pt x="72" y="730" on="1"/>
        <pt x="675" y="730" on="1"/>
        <pt x="675" y="670" on="1"/>
        <pt x="610" y="670" on="1"/>
        <pt x="610" y="-190" on="1"/>
        <pt x="524" y="-190" on="1"/>
        <pt x="524" y="670" on="1"/>
        <pt x="223" y="670" on="1"/>
        <pt x="223" y="-190" on="1"/>
        <pt x="137" y="-190" on="1"/>
        <pt x="137" y="670" on="1"/>
      </contour>
    </TTGlyph>
    <TTGlyph name="q" xMin="54" yMin="-234" xMax="521" yMax="586">
      <contour>
        <pt x="277" y="586" on="1"/>
        <pt x="375" y="586" on="0"/>
        <pt x="452" y="530" on="1"/>
        <pt x="469" y="572" on="1"/>
        <pt x="521" y="572" on="1"/>
        <pt x="521" y="-222" on="1"/>
        <pt x="435" y="-234" on="1"/>
        <pt x="435" y="23" on="1"/>
        <pt x="352" y="-14" on="0"/>
        <pt x="277" y="-14" on="1"/>
        <pt x="54" y="-14" on="0"/>
        <pt x="54" y="586" on="0"/>
      </contour>
      <contour>
        <pt x="294" y="56" on="1"/>
        <pt x="368" y="56" on="0"/>
        <pt x="435" y="89" on="1"/>
        <pt x="435" y="473" on="1"/>
        <pt x="376" y="516" on="0"/>
        <pt x="294" y="516" on="1"/>
        <pt x="140" y="516" on="0"/>
        <pt x="140" y="56" on="0"/>
      </contour>
    </TTGlyph>
    <TTGlyph name="question" xMin="36" yMin="-8" xMax="454" yMax="744">
      <contour>
        <pt x="269" y="12" on="0"/>
        <pt x="243" y="-8" on="0"/>
        <pt x="196" y="-8" on="0"/>
        <pt x="171" y="12" on="0"/>
        <pt x="166" y="35" on="0"/>
        <pt x="166" y="66" on="0"/>
        <pt x="169" y="84" on="0"/>
        <pt x="174" y="94" on="1"/>
        <pt x="182" y="115" on="0"/>
        <pt x="253" y="115" on="0"/>
        <pt x="274" y="81" on="0"/>
        <pt x="274" y="35" on="0"/>
      </contour>
      <contour>
        <pt x="48" y="662" on="0"/>
        <pt x="150" y="744" on="0"/>
        <pt x="341" y="744" on="0"/>
        <pt x="454" y="621" on="0"/>
        <pt x="454" y="535" on="1"/>
        <pt x="454" y="381" on="0"/>
        <pt x="258" y="313" on="1"/>
        <pt x="247" y="191" on="1"/>
        <pt x="192" y="191" on="1"/>
        <pt x="184" y="343" on="1"/>
        <pt x="281" y="375" on="0"/>
        <pt x="370" y="466" on="0"/>
        <pt x="370" y="591" on="0"/>
        <pt x="302" y="677" on="0"/>
        <pt x="236" y="677" on="1"/>
        <pt x="129" y="677" on="0"/>
        <pt x="110" y="581" on="1"/>
        <pt x="36" y="591" on="1"/>
      </contour>
    </TTGlyph>
</ttFont>
